M48
;Layer_Color=9474304
;FILE_FORMAT=2:5
INCH,LZ
;TYPE=PLATED
T1F00S00C0.00787
T2F00S00C0.01181
T3F00S00C0.02800
T4F00S00C0.03543
T5F00S00C0.03937
T6F00S00C0.04331
T7F00S00C0.04803
T8F00S00C0.05118
T9F00S00C0.07205
T10F00S00C0.12500
T11F00S00C0.13583
%
T01
X0023031Y0143063
Y0147
Y0150937
X0026969
Y0147
Y0143063
T02
X0196185Y0069685
X0195Y0078347
Y0097
Y0108
X0205Y01575
X0123Y0157
X0122Y0161
X01265Y018
X0087Y0175
X0066Y018
X0055Y0185
X0038Y0179
X0043425Y0148575
X0049Y015
X0097Y0148
X0102487Y0132
X01Y0128
X009Y0103
X0123Y009
X012Y0085
Y0077
X01325Y0116555
X0021Y0122
X001Y0131
Y0145
Y0149
Y0152
X0006Y0183
X0026
Y0189
X0039Y0203
T03
X0205Y013
X0155Y0125
Y0115
Y0105
X0161555Y00875
X013Y009
Y008
Y007
Y006
Y005
X0165Y018
X0175
X0185
X0075Y017
X0045Y0165
X003Y012
X001Y0115
T04
X013Y001
X014
X015
X016
X017
X018
X02
X021
X022
X023
X024
X025
X018Y02
X0164
X0154
X0144
X0134
X0124
X0114
X0104
X0094
X0084
X0074
X019
X02
X021
X022
X023
X024
X025
T05
X025059Y0066929
Y0098425
X01595Y0140787
Y016
X0098779Y0121
T06
X007Y0045
Y0055
Y0065
Y0075
X008Y007
Y006
Y005
Y004
T07
X0025709Y0031417
Y0041417
Y0073583
Y0083583
T08
X0069252Y0121
T09
X0057008Y0027008
Y0087992
T10
X0055Y001
X026Y003
Y014
X006Y02
T11
X0045Y0035
Y008
M30
