G04 Layer_Physical_Order=1*
G04 Layer_Color=255*
%FSLAX25Y25*%
%MOIN*%
G70*
G01*
G75*
%ADD10R,0.06500X0.05000*%
%ADD11R,0.05000X0.06500*%
%ADD12R,0.05906X0.09449*%
%ADD13R,0.02362X0.01575*%
%ADD14R,0.05906X0.04724*%
%ADD15O,0.08661X0.02362*%
%ADD16R,0.05512X0.06299*%
%ADD17R,0.08661X0.04724*%
%ADD18R,0.05512X0.04724*%
%ADD19R,0.05118X0.02756*%
%ADD20R,0.06890X0.01772*%
%ADD21R,0.04921X0.07284*%
%ADD22R,0.04724X0.04724*%
%ADD23R,0.09252X0.12795*%
%ADD24R,0.03740X0.01378*%
%ADD25R,0.11811X0.03937*%
%ADD26R,0.31496X0.11811*%
%ADD27C,0.01000*%
%ADD28C,0.02000*%
%ADD29C,0.05906*%
%ADD30R,0.05906X0.05906*%
%ADD31C,0.12500*%
%ADD32C,0.09567*%
%ADD33C,0.06693*%
%ADD34C,0.07165*%
%ADD35C,0.13583*%
%ADD36C,0.03937*%
%ADD37C,0.07874*%
%ADD38C,0.05118*%
%ADD39C,0.05000*%
%ADD40C,0.01969*%
G36*
X37116Y202220D02*
X37558Y201558D01*
X38220Y201116D01*
X39000Y200961D01*
X42750D01*
Y200029D01*
X38200D01*
X38171Y200073D01*
X37449Y200554D01*
X36598Y200724D01*
X30299D01*
X29448Y200554D01*
X28727Y200073D01*
X28245Y199351D01*
X28075Y198500D01*
X28245Y197649D01*
X28727Y196927D01*
X29448Y196446D01*
X30299Y196276D01*
X36598D01*
X37449Y196446D01*
X38171Y196927D01*
X38200Y196971D01*
X42750D01*
Y194000D01*
X51250D01*
Y194000D01*
X51665Y194172D01*
X58919Y186919D01*
X59415Y186587D01*
X60000Y186471D01*
X62500D01*
Y183750D01*
X64471D01*
Y181283D01*
X64131Y180774D01*
X63977Y180000D01*
X64131Y179226D01*
X64262Y179029D01*
X63995Y178529D01*
X49633D01*
X43625Y184538D01*
X43816Y185000D01*
X46500D01*
Y188000D01*
X42750D01*
Y186066D01*
X42288Y185875D01*
X38581Y189581D01*
X38432Y189681D01*
X38171Y190073D01*
X37449Y190554D01*
X36598Y190724D01*
X30299D01*
X29448Y190554D01*
X28727Y190073D01*
X28698Y190029D01*
X27699D01*
X27431Y190431D01*
X26774Y190869D01*
X26000Y191023D01*
X25226Y190869D01*
X24569Y190431D01*
X24131Y189774D01*
X23977Y189000D01*
X24131Y188226D01*
X24569Y187569D01*
X25226Y187131D01*
X26000Y186977D01*
X26234Y187023D01*
X26500Y186971D01*
X28698D01*
X28727Y186927D01*
X29448Y186445D01*
X30299Y186276D01*
X36598D01*
X37401Y186436D01*
X38148Y185689D01*
X37829Y185301D01*
X37449Y185555D01*
X36598Y185724D01*
X30299D01*
X29448Y185555D01*
X28727Y185073D01*
X28698Y185029D01*
X26500D01*
X26234Y184976D01*
X26000Y185023D01*
X25226Y184869D01*
X24569Y184431D01*
X24131Y183774D01*
X23977Y183000D01*
X24131Y182226D01*
X24569Y181569D01*
X25226Y181131D01*
X26000Y180977D01*
X26774Y181131D01*
X27431Y181569D01*
X27699Y181971D01*
X28698D01*
X28727Y181928D01*
X29448Y181446D01*
X30299Y181276D01*
X31919D01*
Y174909D01*
X31496Y174724D01*
Y174724D01*
X24500D01*
Y169000D01*
X23500D01*
Y174724D01*
X16504D01*
Y171150D01*
X16504D01*
Y171029D01*
X16111Y170529D01*
X14133D01*
X13250Y171413D01*
Y177000D01*
X8384D01*
X8039Y177345D01*
Y183000D01*
X7884Y183780D01*
X7442Y184442D01*
X6780Y184884D01*
X6000Y185039D01*
X5500Y184940D01*
X5000Y185293D01*
Y203000D01*
X36961D01*
X37116Y202220D01*
D02*
G37*
G36*
X246047Y196047D02*
X250000D01*
Y158000D01*
X260268Y147732D01*
X260054Y147280D01*
X260000Y147285D01*
X258579Y147145D01*
X257212Y146730D01*
X255953Y146057D01*
X254849Y145151D01*
X253943Y144047D01*
X253270Y142788D01*
X252855Y141421D01*
X252715Y140000D01*
X252855Y138579D01*
X253270Y137212D01*
X253943Y135953D01*
X254849Y134849D01*
X255953Y133943D01*
X257212Y133270D01*
X258579Y132855D01*
X260000Y132715D01*
X261421Y132855D01*
X262500Y133182D01*
X263000Y132846D01*
Y37154D01*
X262500Y36818D01*
X261421Y37145D01*
X260000Y37285D01*
X258579Y37145D01*
X257212Y36731D01*
X255953Y36057D01*
X254849Y35151D01*
X253943Y34047D01*
X253270Y32788D01*
X252855Y31421D01*
X252715Y30000D01*
X252855Y28579D01*
X253270Y27212D01*
X253943Y25953D01*
X254849Y24849D01*
X255953Y23943D01*
X257212Y23269D01*
X258579Y22855D01*
X260000Y22715D01*
X261421Y22855D01*
X262500Y23182D01*
X263000Y22846D01*
Y20000D01*
X254287Y11287D01*
X253697Y11404D01*
X253453Y11993D01*
X252819Y12819D01*
X251993Y13453D01*
X251032Y13851D01*
X250000Y13987D01*
X248968Y13851D01*
X248007Y13453D01*
X247181Y12819D01*
X246547Y11993D01*
X246149Y11032D01*
X246013Y10000D01*
X246149Y8968D01*
X246547Y8007D01*
X247181Y7181D01*
X248007Y6547D01*
X248596Y6303D01*
X248713Y5713D01*
X248000Y5000D01*
X119250D01*
Y8471D01*
X126047D01*
Y6047D01*
X133953D01*
Y13231D01*
X134415Y13422D01*
X136341Y11496D01*
X136149Y11032D01*
X136013Y10000D01*
X136149Y8968D01*
X136547Y8007D01*
X137181Y7181D01*
X138007Y6547D01*
X138968Y6149D01*
X140000Y6013D01*
X141032Y6149D01*
X141993Y6547D01*
X142819Y7181D01*
X143453Y8007D01*
X143851Y8968D01*
X143987Y10000D01*
X143851Y11032D01*
X143453Y11993D01*
X142819Y12819D01*
X142039Y13418D01*
Y65100D01*
X160984Y84045D01*
X161555Y83970D01*
X162469Y84090D01*
X163320Y84443D01*
X164051Y85004D01*
X164612Y85735D01*
X164710Y85971D01*
X177154D01*
X177346Y85509D01*
X174919Y83081D01*
X174587Y82585D01*
X174471Y82000D01*
Y71750D01*
X172500D01*
Y63250D01*
X174471D01*
Y61750D01*
X172500D01*
Y53250D01*
X179500D01*
Y61750D01*
X177529D01*
Y63250D01*
X179500D01*
Y71750D01*
X177529D01*
Y81251D01*
X177773Y81435D01*
X178250Y81170D01*
X178250Y81050D01*
Y78500D01*
X182000D01*
Y81500D01*
X178734D01*
X178441Y81500D01*
X178364Y81510D01*
X178101Y81938D01*
X179663Y83500D01*
X186750D01*
Y85471D01*
X189366D01*
X193241Y81596D01*
X193738Y81264D01*
X194323Y81148D01*
X205102D01*
Y79876D01*
X196283D01*
X195774Y80216D01*
X195000Y80370D01*
X194226Y80216D01*
X193569Y79777D01*
X193131Y79121D01*
X193050Y78713D01*
X186087Y71750D01*
X180500D01*
Y63250D01*
X186880D01*
X187087Y62750D01*
X186087Y61750D01*
X180500D01*
Y53250D01*
X187500D01*
Y58837D01*
X196360Y67697D01*
X196959Y67816D01*
X197468Y68156D01*
X205102D01*
Y62976D01*
Y61524D01*
X208661D01*
X212221D01*
Y62976D01*
Y67307D01*
Y71638D01*
Y73516D01*
X208661D01*
X205102D01*
Y71214D01*
X197468D01*
X196959Y71554D01*
X196185Y71708D01*
X195411Y71554D01*
X194755Y71116D01*
X194316Y70459D01*
X194197Y69859D01*
X188000Y63663D01*
X187500Y63870D01*
Y68837D01*
X194989Y76326D01*
X195000Y76323D01*
X195774Y76477D01*
X196283Y76817D01*
X205102D01*
Y74516D01*
X208661D01*
X212221D01*
Y75968D01*
Y80299D01*
Y84630D01*
Y88961D01*
Y93291D01*
Y98047D01*
X205102D01*
Y92868D01*
X204295D01*
X202000Y95163D01*
Y102529D01*
X201884Y103115D01*
X201552Y103611D01*
X196988Y108175D01*
X196869Y108774D01*
X196431Y109431D01*
X195774Y109869D01*
X195000Y110023D01*
X194226Y109869D01*
X193717Y109529D01*
X187500D01*
Y111750D01*
X180500D01*
Y103250D01*
X187500D01*
Y106471D01*
X193717D01*
X194226Y106131D01*
X194825Y106012D01*
X198941Y101896D01*
Y94529D01*
X199058Y93944D01*
X199389Y93448D01*
X202580Y90257D01*
X203076Y89926D01*
X203661Y89809D01*
X205102D01*
Y88537D01*
X201126D01*
X196529Y93133D01*
Y95717D01*
X196869Y96226D01*
X197023Y97000D01*
X196869Y97774D01*
X196431Y98431D01*
X195774Y98869D01*
X195000Y99023D01*
X194766Y98976D01*
X194500Y99029D01*
X187500D01*
Y101750D01*
X180500D01*
Y93250D01*
X187500D01*
Y95971D01*
X193301D01*
X193471Y95717D01*
Y92500D01*
X193587Y91915D01*
X193919Y91419D01*
X199411Y85926D01*
X199907Y85595D01*
X200492Y85479D01*
X205102D01*
Y84207D01*
X194956D01*
X191081Y88081D01*
X190585Y88413D01*
X190000Y88529D01*
X186750D01*
Y90500D01*
X181163D01*
X178875Y92788D01*
X179066Y93250D01*
X179500D01*
Y101750D01*
X177529D01*
Y103250D01*
X179500D01*
Y111750D01*
X172500D01*
Y103250D01*
X174471D01*
Y101750D01*
X172500D01*
Y93250D01*
X174520D01*
X174587Y92915D01*
X174919Y92419D01*
X177808Y89529D01*
X177601Y89029D01*
X164710D01*
X164612Y89265D01*
X164051Y89996D01*
X163320Y90557D01*
X163084Y90655D01*
Y105922D01*
X197081Y139919D01*
X197413Y140415D01*
X197529Y141000D01*
Y143250D01*
X199500D01*
Y151750D01*
X197529D01*
Y173250D01*
X199500D01*
Y181750D01*
X192500D01*
Y173250D01*
X194471D01*
Y151750D01*
X192500D01*
Y143250D01*
X194471D01*
Y141633D01*
X160474Y107637D01*
X160142Y107140D01*
X160026Y106555D01*
Y92567D01*
X159564Y92375D01*
X134539Y117400D01*
Y123750D01*
X136000D01*
Y132250D01*
X134539D01*
Y134750D01*
X136000D01*
Y143250D01*
X129000D01*
Y142691D01*
X116217D01*
Y143220D01*
X111772D01*
X107327D01*
Y141835D01*
Y139276D01*
Y136716D01*
Y136543D01*
X111772D01*
X116217D01*
Y137073D01*
X120764D01*
X129000Y128837D01*
Y123750D01*
X130461D01*
Y117000D01*
X130505Y116778D01*
X130461Y116555D01*
X130616Y115775D01*
X131058Y115113D01*
X158100Y88071D01*
X158025Y87500D01*
X158100Y86929D01*
X138558Y67387D01*
X138116Y66725D01*
X137961Y65945D01*
Y14855D01*
X137499Y14664D01*
X134581Y17581D01*
X134085Y17913D01*
X133500Y18029D01*
X119250D01*
Y20000D01*
X110750D01*
Y13000D01*
X119250D01*
Y14971D01*
X132867D01*
X133422Y14415D01*
X133231Y13953D01*
X126047D01*
Y11529D01*
X119250D01*
Y12000D01*
X110750D01*
Y10029D01*
X107291D01*
X106610Y10710D01*
Y14290D01*
X108081Y15761D01*
X108413Y16257D01*
X108529Y16842D01*
Y28250D01*
X110500D01*
Y36750D01*
X103500D01*
Y28250D01*
X105471D01*
Y17476D01*
X103857Y15862D01*
X98705D01*
Y9138D01*
X103857D01*
X105576Y7419D01*
X106072Y7087D01*
X106658Y6971D01*
X110750D01*
Y5000D01*
X60860D01*
X60646Y5452D01*
X61057Y5953D01*
X61730Y7212D01*
X62145Y8579D01*
X62285Y10000D01*
X62145Y11421D01*
X61730Y12788D01*
X61057Y14047D01*
X60151Y15151D01*
X59047Y16057D01*
X57788Y16730D01*
X56421Y17145D01*
X55000Y17285D01*
X53579Y17145D01*
X52212Y16730D01*
X50953Y16057D01*
X49849Y15151D01*
X48943Y14047D01*
X48270Y12788D01*
X47855Y11421D01*
X47715Y10000D01*
X47855Y8579D01*
X48270Y7212D01*
X48943Y5953D01*
X49354Y5452D01*
X49140Y5000D01*
X5000D01*
Y97095D01*
X20941D01*
Y104000D01*
Y110906D01*
X5000D01*
Y161000D01*
X8500D01*
Y164500D01*
X9000D01*
Y165000D01*
X13250D01*
Y167265D01*
X13500Y167471D01*
X16111D01*
X16504Y167213D01*
Y166850D01*
X16504D01*
Y163276D01*
X17156D01*
Y162315D01*
X17272Y161730D01*
X17604Y161233D01*
X18918Y159919D01*
X19415Y159587D01*
X20000Y159471D01*
X32000D01*
X32585Y159587D01*
X33081Y159919D01*
X39081Y165919D01*
X39413Y166415D01*
X39529Y167000D01*
Y177717D01*
X39869Y178226D01*
X40023Y179000D01*
X39997Y179133D01*
X40457Y179380D01*
X45919Y173919D01*
X46415Y173587D01*
X47000Y173471D01*
X72993D01*
X73122Y172971D01*
X72504Y172496D01*
X71943Y171765D01*
X71590Y170914D01*
X71536Y170500D01*
X78464D01*
X78410Y170914D01*
X78057Y171765D01*
X77496Y172496D01*
X76765Y173057D01*
X76674Y173095D01*
X76632Y173327D01*
X76665Y173640D01*
X77081Y173919D01*
X85081Y181919D01*
X85413Y182415D01*
X85529Y183000D01*
Y183750D01*
X87500D01*
Y192250D01*
X85529D01*
Y196355D01*
X85993Y196547D01*
X86819Y197181D01*
X87453Y198007D01*
X87851Y198968D01*
X87987Y200000D01*
X87851Y201032D01*
X87453Y201993D01*
X87064Y202500D01*
X87311Y203000D01*
X90689D01*
X90936Y202500D01*
X90547Y201993D01*
X90149Y201032D01*
X90013Y200000D01*
X90149Y198968D01*
X90547Y198007D01*
X91181Y197181D01*
X92007Y196547D01*
X92471Y196355D01*
Y192250D01*
X88500D01*
Y183750D01*
X90471D01*
Y180633D01*
X86826Y176988D01*
X86226Y176869D01*
X85569Y176431D01*
X85131Y175774D01*
X84977Y175000D01*
X85131Y174226D01*
X85569Y173569D01*
X86226Y173131D01*
X87000Y172977D01*
X87774Y173131D01*
X88431Y173569D01*
X88869Y174226D01*
X88988Y174826D01*
X93081Y178919D01*
X93413Y179415D01*
X93529Y180000D01*
Y183750D01*
X95500D01*
Y189852D01*
X95529Y190000D01*
Y196355D01*
X95993Y196547D01*
X96819Y197181D01*
X97453Y198007D01*
X97851Y198968D01*
X97987Y200000D01*
X97851Y201032D01*
X97453Y201993D01*
X97064Y202500D01*
X97311Y203000D01*
X100689D01*
X100936Y202500D01*
X100547Y201993D01*
X100149Y201032D01*
X100079Y200500D01*
X104000D01*
X107921D01*
X107851Y201032D01*
X107453Y201993D01*
X107064Y202500D01*
X107311Y203000D01*
X110689D01*
X110936Y202500D01*
X110547Y201993D01*
X110149Y201032D01*
X110013Y200000D01*
X110149Y198968D01*
X110547Y198007D01*
X111181Y197181D01*
X112007Y196547D01*
X112968Y196149D01*
X114000Y196013D01*
X114208Y196040D01*
X114429Y195592D01*
X93919Y175081D01*
X93587Y174585D01*
X93471Y174000D01*
Y159634D01*
X89323Y155486D01*
X87673D01*
Y158575D01*
X83228D01*
X78784D01*
Y157189D01*
Y154630D01*
Y152071D01*
Y149512D01*
Y146953D01*
Y142864D01*
X76299D01*
X69081Y150081D01*
X68585Y150413D01*
X68000Y150529D01*
X67500D01*
Y153250D01*
X60500D01*
Y144750D01*
X67500D01*
Y146684D01*
X67962Y146875D01*
X74070Y140767D01*
X73879Y140305D01*
X67500D01*
Y143250D01*
X60500D01*
Y134750D01*
X67500D01*
Y137246D01*
X78784D01*
Y136543D01*
X83228D01*
X87673D01*
Y137073D01*
X94602D01*
X95188Y137189D01*
X95684Y137521D01*
X104081Y145919D01*
X104413Y146415D01*
X104529Y147000D01*
Y169367D01*
X119633Y184471D01*
X150000D01*
X150585Y184587D01*
X151081Y184919D01*
X162210Y196047D01*
X167953D01*
Y203000D01*
X176689D01*
X176936Y202500D01*
X176547Y201993D01*
X176149Y201032D01*
X176013Y200000D01*
X176149Y198968D01*
X176547Y198007D01*
X177181Y197181D01*
X178007Y196547D01*
X178968Y196149D01*
X180000Y196013D01*
X181032Y196149D01*
X181993Y196547D01*
X182819Y197181D01*
X183453Y198007D01*
X183851Y198968D01*
X183987Y200000D01*
X183851Y201032D01*
X183453Y201993D01*
X183064Y202500D01*
X183311Y203000D01*
X186689D01*
X186936Y202500D01*
X186547Y201993D01*
X186149Y201032D01*
X186013Y200000D01*
X186149Y198968D01*
X186547Y198007D01*
X187181Y197181D01*
X188007Y196547D01*
X188968Y196149D01*
X190000Y196013D01*
X191032Y196149D01*
X191993Y196547D01*
X192819Y197181D01*
X193453Y198007D01*
X193851Y198968D01*
X193987Y200000D01*
X193851Y201032D01*
X193453Y201993D01*
X193064Y202500D01*
X193311Y203000D01*
X196689D01*
X196936Y202500D01*
X196547Y201993D01*
X196149Y201032D01*
X196013Y200000D01*
X196149Y198968D01*
X196547Y198007D01*
X197181Y197181D01*
X198007Y196547D01*
X198968Y196149D01*
X200000Y196013D01*
X201032Y196149D01*
X201993Y196547D01*
X202819Y197181D01*
X203453Y198007D01*
X203851Y198968D01*
X203987Y200000D01*
X203851Y201032D01*
X203453Y201993D01*
X203064Y202500D01*
X203311Y203000D01*
X206689D01*
X206936Y202500D01*
X206547Y201993D01*
X206149Y201032D01*
X206013Y200000D01*
X206149Y198968D01*
X206547Y198007D01*
X207181Y197181D01*
X208007Y196547D01*
X208968Y196149D01*
X210000Y196013D01*
X211032Y196149D01*
X211993Y196547D01*
X212819Y197181D01*
X213453Y198007D01*
X213851Y198968D01*
X213987Y200000D01*
X213851Y201032D01*
X213453Y201993D01*
X213064Y202500D01*
X213311Y203000D01*
X216689D01*
X216936Y202500D01*
X216547Y201993D01*
X216149Y201032D01*
X216013Y200000D01*
X216149Y198968D01*
X216547Y198007D01*
X217181Y197181D01*
X218007Y196547D01*
X218968Y196149D01*
X220000Y196013D01*
X221032Y196149D01*
X221993Y196547D01*
X222819Y197181D01*
X223453Y198007D01*
X223851Y198968D01*
X223987Y200000D01*
X223851Y201032D01*
X223453Y201993D01*
X223064Y202500D01*
X223311Y203000D01*
X226689D01*
X226936Y202500D01*
X226547Y201993D01*
X226149Y201032D01*
X226013Y200000D01*
X226149Y198968D01*
X226341Y198504D01*
X219367Y191529D01*
X212500D01*
X211915Y191413D01*
X211419Y191081D01*
X202919Y182581D01*
X202587Y182085D01*
X202520Y181750D01*
X200500D01*
Y173250D01*
X207500D01*
Y175971D01*
X210890D01*
Y174138D01*
X216042D01*
X222968Y167212D01*
X222776Y166750D01*
X222000D01*
Y158250D01*
X229000D01*
Y166750D01*
X227029D01*
Y166842D01*
X226913Y167428D01*
X226581Y167924D01*
X218795Y175710D01*
Y180862D01*
X210890D01*
Y179029D01*
X207500D01*
Y181750D01*
X207066D01*
X206875Y182212D01*
X213134Y188471D01*
X220000D01*
X220585Y188587D01*
X221081Y188919D01*
X228504Y196341D01*
X228968Y196149D01*
X230000Y196013D01*
X231032Y196149D01*
X231993Y196547D01*
X232819Y197181D01*
X233453Y198007D01*
X233851Y198968D01*
X233987Y200000D01*
X233851Y201032D01*
X233453Y201993D01*
X233064Y202500D01*
X233311Y203000D01*
X236689D01*
X236936Y202500D01*
X236547Y201993D01*
X236149Y201032D01*
X236013Y200000D01*
X236149Y198968D01*
X236547Y198007D01*
X237181Y197181D01*
X238007Y196547D01*
X238968Y196149D01*
X240000Y196013D01*
X241032Y196149D01*
X241993Y196547D01*
X242819Y197181D01*
X243453Y198007D01*
X243851Y198968D01*
X243987Y200000D01*
X243851Y201032D01*
X243453Y201993D01*
X243064Y202500D01*
X243311Y203000D01*
X246047D01*
Y196047D01*
D02*
G37*
G36*
X160047Y198210D02*
X149366Y187529D01*
X134346D01*
X134154Y187991D01*
X142504Y196341D01*
X142968Y196149D01*
X144000Y196013D01*
X145032Y196149D01*
X145993Y196547D01*
X146819Y197181D01*
X147453Y198007D01*
X147851Y198968D01*
X147987Y200000D01*
X147851Y201032D01*
X147453Y201993D01*
X147064Y202500D01*
X147311Y203000D01*
X148837D01*
X150341Y201496D01*
X150149Y201032D01*
X150013Y200000D01*
X150149Y198968D01*
X150547Y198007D01*
X151181Y197181D01*
X152007Y196547D01*
X152968Y196149D01*
X154000Y196013D01*
X155032Y196149D01*
X155993Y196547D01*
X156819Y197181D01*
X157453Y198007D01*
X157851Y198968D01*
X157987Y200000D01*
X157851Y201032D01*
X157453Y201993D01*
X157064Y202500D01*
X157311Y203000D01*
X160047D01*
Y198210D01*
D02*
G37*
G36*
X140936Y202500D02*
X140547Y201993D01*
X140149Y201032D01*
X140013Y200000D01*
X140149Y198968D01*
X140341Y198504D01*
X131367Y189529D01*
X119174D01*
X118983Y189991D01*
X119962Y190971D01*
X126500D01*
X127085Y191087D01*
X127581Y191419D01*
X132504Y196341D01*
X132968Y196149D01*
X134000Y196013D01*
X135032Y196149D01*
X135993Y196547D01*
X136819Y197181D01*
X137453Y198007D01*
X137851Y198968D01*
X137987Y200000D01*
X137851Y201032D01*
X137453Y201993D01*
X137064Y202500D01*
X137311Y203000D01*
X140689D01*
X140936Y202500D01*
D02*
G37*
G36*
X130936D02*
X130547Y201993D01*
X130149Y201032D01*
X130013Y200000D01*
X130149Y198968D01*
X130341Y198504D01*
X125866Y194029D01*
X120846D01*
X120654Y194491D01*
X122504Y196341D01*
X122968Y196149D01*
X124000Y196013D01*
X125032Y196149D01*
X125993Y196547D01*
X126819Y197181D01*
X127453Y198007D01*
X127851Y198968D01*
X127987Y200000D01*
X127851Y201032D01*
X127453Y201993D01*
X127064Y202500D01*
X127311Y203000D01*
X130689D01*
X130936Y202500D01*
D02*
G37*
G36*
X70936D02*
X70547Y201993D01*
X70149Y201032D01*
X70013Y200000D01*
X70149Y198968D01*
X70547Y198007D01*
X71181Y197181D01*
X72007Y196547D01*
X72471Y196355D01*
Y192250D01*
X70500D01*
Y183750D01*
X72471D01*
Y181633D01*
X69367Y178529D01*
X68005D01*
X67738Y179029D01*
X67869Y179226D01*
X68023Y180000D01*
X67869Y180774D01*
X67529Y181283D01*
Y183750D01*
X69500D01*
Y192250D01*
X62500D01*
Y189529D01*
X60633D01*
X57505Y192658D01*
X57770Y193100D01*
X58579Y192855D01*
X60000Y192715D01*
X61421Y192855D01*
X62788Y193270D01*
X64047Y193943D01*
X65151Y194849D01*
X66057Y195953D01*
X66730Y197212D01*
X67145Y198579D01*
X67285Y200000D01*
X67145Y201421D01*
X66818Y202500D01*
X67154Y203000D01*
X70689D01*
X70936Y202500D01*
D02*
G37*
G36*
X80936D02*
X80547Y201993D01*
X80149Y201032D01*
X80013Y200000D01*
X80149Y198968D01*
X80547Y198007D01*
X81181Y197181D01*
X82007Y196547D01*
X82471Y196355D01*
Y192250D01*
X80500D01*
Y183750D01*
X81880D01*
X82087Y183250D01*
X75366Y176529D01*
X72346D01*
X72154Y176991D01*
X75081Y179919D01*
X75413Y180415D01*
X75529Y181000D01*
Y183750D01*
X77500D01*
Y192250D01*
X75529D01*
Y196355D01*
X75993Y196547D01*
X76819Y197181D01*
X77453Y198007D01*
X77851Y198968D01*
X77987Y200000D01*
X77851Y201032D01*
X77453Y201993D01*
X77064Y202500D01*
X77311Y203000D01*
X80689D01*
X80936Y202500D01*
D02*
G37*
%LPC*%
G36*
X17701Y200724D02*
X15051D01*
Y199000D01*
X19825D01*
X19755Y199351D01*
X19273Y200073D01*
X18552Y200554D01*
X17701Y200724D01*
D02*
G37*
G36*
X14051D02*
X11402D01*
X10550Y200554D01*
X9829Y200073D01*
X9347Y199351D01*
X9277Y199000D01*
X14051D01*
Y200724D01*
D02*
G37*
G36*
X36598Y195724D02*
X33949D01*
Y194000D01*
X38723D01*
X38653Y194351D01*
X38171Y195072D01*
X37449Y195554D01*
X36598Y195724D01*
D02*
G37*
G36*
X32949D02*
X30299D01*
X29448Y195554D01*
X28727Y195072D01*
X28245Y194351D01*
X28175Y194000D01*
X32949D01*
Y195724D01*
D02*
G37*
G36*
X19825Y198000D02*
X14551D01*
X9277D01*
X9347Y197649D01*
X9829Y196927D01*
X10550Y196446D01*
X11402Y196276D01*
X13022D01*
Y195724D01*
X11402D01*
X10550Y195554D01*
X9829Y195072D01*
X9347Y194351D01*
X9277Y194000D01*
X14551D01*
X19825D01*
X19755Y194351D01*
X19273Y195072D01*
X18552Y195554D01*
X17701Y195724D01*
X16081D01*
Y196276D01*
X17701D01*
X18552Y196446D01*
X19273Y196927D01*
X19755Y197649D01*
X19825Y198000D01*
D02*
G37*
G36*
X38723Y193000D02*
X33949D01*
Y191276D01*
X36598D01*
X37449Y191446D01*
X38171Y191928D01*
X38653Y192649D01*
X38723Y193000D01*
D02*
G37*
G36*
X32949D02*
X28175D01*
X28245Y192649D01*
X28727Y191928D01*
X29448Y191446D01*
X30299Y191276D01*
X32949D01*
Y193000D01*
D02*
G37*
G36*
X46500Y192000D02*
X42750D01*
Y189000D01*
X46500D01*
Y192000D01*
D02*
G37*
G36*
X19825Y193000D02*
X14551D01*
X9277D01*
X9347Y192649D01*
X9829Y191928D01*
X10550Y191446D01*
X11402Y191276D01*
X13022D01*
Y190724D01*
X11402D01*
X10550Y190554D01*
X9829Y190073D01*
X9347Y189351D01*
X9277Y189000D01*
X14551D01*
X19825D01*
X19755Y189351D01*
X19273Y190073D01*
X18552Y190554D01*
X17701Y190724D01*
X16081D01*
Y191276D01*
X17701D01*
X18552Y191446D01*
X19273Y191928D01*
X19755Y192649D01*
X19825Y193000D01*
D02*
G37*
G36*
Y188000D02*
X14551D01*
X9277D01*
X9347Y187649D01*
X9829Y186927D01*
X10550Y186445D01*
X11402Y186276D01*
X13022D01*
Y185724D01*
X11402D01*
X10550Y185555D01*
X9829Y185073D01*
X9347Y184351D01*
X9277Y184000D01*
X14551D01*
X19825D01*
X19755Y184351D01*
X19273Y185073D01*
X18552Y185555D01*
X17701Y185724D01*
X16081D01*
Y186276D01*
X17701D01*
X18552Y186445D01*
X19273Y186927D01*
X19755Y187649D01*
X19825Y188000D01*
D02*
G37*
G36*
X56924Y184500D02*
X55500D01*
Y183076D01*
X55774Y183131D01*
X56431Y183569D01*
X56869Y184226D01*
X56924Y184500D01*
D02*
G37*
G36*
X51250Y192000D02*
X47500D01*
Y188500D01*
Y185000D01*
X51250D01*
Y185934D01*
X51712Y186125D01*
X53012Y184826D01*
X53131Y184226D01*
X53569Y183569D01*
X54226Y183131D01*
X54500Y183076D01*
Y185000D01*
X55000D01*
Y185500D01*
X56924D01*
X56869Y185774D01*
X56431Y186431D01*
X55774Y186869D01*
X55174Y186988D01*
X52581Y189581D01*
X52085Y189913D01*
X51500Y190029D01*
X51250D01*
Y192000D01*
D02*
G37*
G36*
X19825Y183000D02*
X15051D01*
Y181276D01*
X17701D01*
X18552Y181446D01*
X19273Y181928D01*
X19755Y182649D01*
X19825Y183000D01*
D02*
G37*
G36*
X14051D02*
X9277D01*
X9347Y182649D01*
X9829Y181928D01*
X10550Y181446D01*
X11402Y181276D01*
X14051D01*
Y183000D01*
D02*
G37*
G36*
X107921Y199500D02*
X104500D01*
Y196079D01*
X105032Y196149D01*
X105993Y196547D01*
X106819Y197181D01*
X107453Y198007D01*
X107851Y198968D01*
X107921Y199500D01*
D02*
G37*
G36*
X103500D02*
X100079D01*
X100149Y198968D01*
X100547Y198007D01*
X101181Y197181D01*
X102007Y196547D01*
X102968Y196149D01*
X103500Y196079D01*
Y199500D01*
D02*
G37*
G36*
X185500Y183464D02*
Y180500D01*
X188464D01*
X188410Y180914D01*
X188057Y181765D01*
X187496Y182496D01*
X186765Y183057D01*
X185914Y183410D01*
X185500Y183464D01*
D02*
G37*
G36*
X184500D02*
X184086Y183410D01*
X183235Y183057D01*
X182504Y182496D01*
X181943Y181765D01*
X181590Y180914D01*
X181536Y180500D01*
X184500D01*
Y183464D01*
D02*
G37*
G36*
X175500D02*
Y180500D01*
X178464D01*
X178410Y180914D01*
X178057Y181765D01*
X177496Y182496D01*
X176765Y183057D01*
X175914Y183410D01*
X175500Y183464D01*
D02*
G37*
G36*
X174500D02*
X174086Y183410D01*
X173235Y183057D01*
X172504Y182496D01*
X171943Y181765D01*
X171590Y180914D01*
X171536Y180500D01*
X174500D01*
Y183464D01*
D02*
G37*
G36*
X165500D02*
Y180500D01*
X168464D01*
X168410Y180914D01*
X168057Y181765D01*
X167496Y182496D01*
X166765Y183057D01*
X165914Y183410D01*
X165500Y183464D01*
D02*
G37*
G36*
X164500D02*
X164086Y183410D01*
X163235Y183057D01*
X162504Y182496D01*
X161943Y181765D01*
X161590Y180914D01*
X161536Y180500D01*
X164500D01*
Y183464D01*
D02*
G37*
G36*
X249110Y180862D02*
X245657D01*
Y178000D01*
X249110D01*
Y180862D01*
D02*
G37*
G36*
X244657D02*
X241205D01*
Y178000D01*
X244657D01*
Y180862D01*
D02*
G37*
G36*
X188464Y179500D02*
X185500D01*
Y176536D01*
X185914Y176590D01*
X186765Y176943D01*
X187496Y177504D01*
X188057Y178235D01*
X188410Y179086D01*
X188464Y179500D01*
D02*
G37*
G36*
X184500D02*
X181536D01*
X181590Y179086D01*
X181943Y178235D01*
X182504Y177504D01*
X183235Y176943D01*
X184086Y176590D01*
X184500Y176536D01*
Y179500D01*
D02*
G37*
G36*
X178464D02*
X175500D01*
Y176536D01*
X175914Y176590D01*
X176765Y176943D01*
X177496Y177504D01*
X178057Y178235D01*
X178410Y179086D01*
X178464Y179500D01*
D02*
G37*
G36*
X174500D02*
X171536D01*
X171590Y179086D01*
X171943Y178235D01*
X172504Y177504D01*
X173235Y176943D01*
X174086Y176590D01*
X174500Y176536D01*
Y179500D01*
D02*
G37*
G36*
X168464D02*
X165500D01*
Y176536D01*
X165914Y176590D01*
X166765Y176943D01*
X167496Y177504D01*
X168057Y178235D01*
X168410Y179086D01*
X168464Y179500D01*
D02*
G37*
G36*
X164500D02*
X161536D01*
X161590Y179086D01*
X161943Y178235D01*
X162504Y177504D01*
X163235Y176943D01*
X164086Y176590D01*
X164500Y176536D01*
Y179500D01*
D02*
G37*
G36*
X145000Y178250D02*
X142000D01*
Y174500D01*
X145000D01*
Y178250D01*
D02*
G37*
G36*
X141000D02*
X138000D01*
Y174500D01*
X141000D01*
Y178250D01*
D02*
G37*
G36*
X249110Y177000D02*
X245657D01*
Y174138D01*
X249110D01*
Y177000D01*
D02*
G37*
G36*
X244657D02*
X241205D01*
Y174138D01*
X244657D01*
Y177000D01*
D02*
G37*
G36*
X145000Y173500D02*
X142000D01*
Y169750D01*
X145000D01*
Y173500D01*
D02*
G37*
G36*
X141000D02*
X138000D01*
Y169750D01*
X141000D01*
Y173500D01*
D02*
G37*
G36*
X78464Y169500D02*
X75500D01*
Y166536D01*
X75914Y166590D01*
X76765Y166943D01*
X77496Y167504D01*
X78057Y168235D01*
X78410Y169086D01*
X78464Y169500D01*
D02*
G37*
G36*
X74500D02*
X71536D01*
X71590Y169086D01*
X71943Y168235D01*
X72504Y167504D01*
X73235Y166943D01*
X74086Y166590D01*
X74500Y166536D01*
Y169500D01*
D02*
G37*
G36*
X45500Y168464D02*
Y165500D01*
X48464D01*
X48410Y165914D01*
X48057Y166765D01*
X47496Y167496D01*
X46765Y168057D01*
X45914Y168410D01*
X45500Y168464D01*
D02*
G37*
G36*
X44500D02*
X44086Y168410D01*
X43235Y168057D01*
X42504Y167496D01*
X41943Y166765D01*
X41590Y165914D01*
X41536Y165500D01*
X44500D01*
Y168464D01*
D02*
G37*
G36*
X145000Y168250D02*
X142000D01*
Y164500D01*
X145000D01*
Y168250D01*
D02*
G37*
G36*
X141000D02*
X138000D01*
Y164500D01*
X141000D01*
Y168250D01*
D02*
G37*
G36*
X87673Y163520D02*
X78784D01*
Y163163D01*
X68000D01*
Y163250D01*
X61000D01*
Y154750D01*
X68000D01*
Y160105D01*
X78784D01*
Y159575D01*
X83228D01*
X87673D01*
Y159748D01*
Y163520D01*
D02*
G37*
G36*
X238000Y166750D02*
X235000D01*
Y163000D01*
X238000D01*
Y166750D01*
D02*
G37*
G36*
X234000D02*
X231000D01*
Y163000D01*
X234000D01*
Y166750D01*
D02*
G37*
G36*
X48464Y164500D02*
X45500D01*
Y161536D01*
X45914Y161590D01*
X46765Y161943D01*
X47496Y162504D01*
X48057Y163235D01*
X48410Y164086D01*
X48464Y164500D01*
D02*
G37*
G36*
X44500D02*
X41536D01*
X41590Y164086D01*
X41943Y163235D01*
X42504Y162504D01*
X43235Y161943D01*
X44086Y161590D01*
X44500Y161536D01*
Y164500D01*
D02*
G37*
G36*
X126500Y182023D02*
X125726Y181869D01*
X125069Y181431D01*
X124631Y180774D01*
X124477Y180000D01*
X124631Y179226D01*
X125069Y178569D01*
X125726Y178131D01*
X126326Y178012D01*
X128331Y176006D01*
X128167Y175463D01*
X127915Y175413D01*
X127419Y175081D01*
X115857Y163520D01*
X107327D01*
Y159748D01*
Y157189D01*
Y154630D01*
Y152071D01*
Y149512D01*
Y146953D01*
Y146780D01*
X111772D01*
X116217D01*
Y147309D01*
X150815D01*
X155088Y143037D01*
X154690Y142076D01*
X154520Y140787D01*
X154690Y139499D01*
X155187Y138298D01*
X155979Y137266D01*
X157010Y136475D01*
X158211Y135977D01*
X159500Y135808D01*
X160789Y135977D01*
X161749Y136375D01*
X163706Y134419D01*
X164202Y134087D01*
X164787Y133971D01*
X172750D01*
Y132000D01*
X181250D01*
Y139000D01*
X172750D01*
Y137029D01*
X165421D01*
X163912Y138538D01*
X164310Y139499D01*
X164480Y140787D01*
X164310Y142076D01*
X163812Y143277D01*
X163021Y144308D01*
X161990Y145100D01*
X160789Y145597D01*
X159500Y145767D01*
X158211Y145597D01*
X157251Y145200D01*
X152530Y149920D01*
X152386Y150016D01*
X152323Y150660D01*
X157251Y155588D01*
X158211Y155190D01*
X159500Y155020D01*
X160789Y155190D01*
X161990Y155687D01*
X163021Y156479D01*
X163812Y157510D01*
X164310Y158711D01*
X164480Y160000D01*
X164310Y161289D01*
X163912Y162249D01*
X164634Y162971D01*
X172750D01*
Y161000D01*
X181250D01*
Y168000D01*
X172750D01*
Y166029D01*
X164000D01*
X163415Y165913D01*
X162919Y165581D01*
X161749Y164412D01*
X160789Y164810D01*
X159500Y164980D01*
X158211Y164810D01*
X157010Y164313D01*
X155979Y163521D01*
X155187Y162490D01*
X154690Y161289D01*
X154520Y160000D01*
X154690Y158711D01*
X155088Y157751D01*
X150264Y152927D01*
X130743D01*
X130552Y153389D01*
X133581Y156419D01*
X133913Y156915D01*
X134029Y157500D01*
Y159750D01*
X136000D01*
Y168250D01*
X134029D01*
Y169750D01*
X136000D01*
Y178250D01*
X130413D01*
X128488Y180175D01*
X128369Y180774D01*
X127931Y181431D01*
X127274Y181869D01*
X126500Y182023D01*
D02*
G37*
G36*
X13250Y164000D02*
X9500D01*
Y161000D01*
X13250D01*
Y164000D01*
D02*
G37*
G36*
X145000Y163500D02*
X142000D01*
Y159750D01*
X145000D01*
Y163500D01*
D02*
G37*
G36*
X141000D02*
X138000D01*
Y159750D01*
X141000D01*
Y163500D01*
D02*
G37*
G36*
X59000Y163250D02*
X56000D01*
Y159500D01*
X59000D01*
Y163250D01*
D02*
G37*
G36*
X55000D02*
X52000D01*
Y159500D01*
X55000D01*
Y163250D01*
D02*
G37*
G36*
X238000Y162000D02*
X235000D01*
Y158250D01*
X238000D01*
Y162000D01*
D02*
G37*
G36*
X234000D02*
X231000D01*
Y158250D01*
X234000D01*
Y162000D01*
D02*
G37*
G36*
X181250Y159000D02*
X177500D01*
Y156000D01*
X181250D01*
Y159000D01*
D02*
G37*
G36*
X176500D02*
X172750D01*
Y156000D01*
X176500D01*
Y159000D01*
D02*
G37*
G36*
X59000Y158500D02*
X56000D01*
Y154750D01*
X59000D01*
Y158500D01*
D02*
G37*
G36*
X55000D02*
X52000D01*
Y154750D01*
X55000D01*
Y158500D01*
D02*
G37*
G36*
X35744Y153413D02*
X33374D01*
Y152224D01*
X35744D01*
Y153413D01*
D02*
G37*
G36*
X181250Y155000D02*
X177500D01*
Y152000D01*
X181250D01*
Y155000D01*
D02*
G37*
G36*
X176500D02*
X172750D01*
Y152000D01*
X176500D01*
Y155000D01*
D02*
G37*
G36*
X59500Y153250D02*
X52500D01*
Y150529D01*
X50918D01*
X50869Y150774D01*
X50431Y151431D01*
X49774Y151869D01*
X49000Y152023D01*
X48226Y151869D01*
X47569Y151431D01*
X47131Y150774D01*
X46977Y150000D01*
X47131Y149226D01*
X47569Y148569D01*
X48226Y148131D01*
X48825Y148012D01*
X48919Y147919D01*
X49415Y147587D01*
X50000Y147471D01*
X52500D01*
Y144750D01*
X53961D01*
Y143250D01*
X52500D01*
Y134750D01*
X59500D01*
Y143250D01*
X58039D01*
Y144750D01*
X59500D01*
Y153250D01*
D02*
G37*
G36*
X249110Y150862D02*
X245657D01*
Y148000D01*
X249110D01*
Y150862D01*
D02*
G37*
G36*
X244657D02*
X241205D01*
Y148000D01*
X244657D01*
Y150862D01*
D02*
G37*
G36*
X30626Y154398D02*
X25500D01*
Y147000D01*
X24500D01*
Y154398D01*
X19374D01*
Y153413D01*
X14256D01*
Y153254D01*
X11549D01*
X11431Y153431D01*
X10774Y153869D01*
X10000Y154023D01*
X9226Y153869D01*
X8569Y153431D01*
X8131Y152774D01*
X7977Y152000D01*
X8131Y151226D01*
X8356Y150889D01*
X8537Y150500D01*
X8356Y150111D01*
X8131Y149774D01*
X7977Y149000D01*
X8131Y148226D01*
X8569Y147569D01*
X8985Y147292D01*
Y146708D01*
X8569Y146431D01*
X8131Y145774D01*
X7977Y145000D01*
X8131Y144226D01*
X8569Y143569D01*
X9226Y143131D01*
X10000Y142977D01*
X10774Y143131D01*
X11431Y143569D01*
X11649Y143896D01*
X14256D01*
Y140587D01*
X15597D01*
Y135374D01*
X15713Y134789D01*
X16045Y134293D01*
X16836Y133501D01*
X16645Y133039D01*
X10000D01*
X9220Y132884D01*
X8558Y132442D01*
X8116Y131780D01*
X7961Y131000D01*
X8116Y130220D01*
X8558Y129558D01*
X9220Y129116D01*
X10000Y128961D01*
X18000D01*
Y126750D01*
X19971D01*
Y123699D01*
X19569Y123431D01*
X19131Y122774D01*
X18977Y122000D01*
X19131Y121226D01*
X19569Y120569D01*
X20226Y120131D01*
X21000Y119977D01*
X21774Y120131D01*
X22431Y120569D01*
X22869Y121226D01*
X23023Y122000D01*
X22976Y122234D01*
X23029Y122500D01*
Y126750D01*
X25000D01*
Y135250D01*
X19413D01*
X18655Y136007D01*
Y140587D01*
X19374D01*
Y139602D01*
X24235D01*
X28125Y135712D01*
X27934Y135250D01*
X27000D01*
Y131500D01*
X30500D01*
X34000D01*
Y135250D01*
X32029D01*
Y135500D01*
X31913Y136085D01*
X31581Y136581D01*
X29022Y139140D01*
X29214Y139602D01*
X30626D01*
Y140587D01*
X35744D01*
Y140587D01*
X36244Y140593D01*
X38471Y138366D01*
Y111289D01*
X38189Y110906D01*
X37971Y110906D01*
X21941D01*
Y104000D01*
Y97095D01*
X38189D01*
Y103111D01*
X38689Y103262D01*
X38919Y102919D01*
X42094Y99743D01*
Y97095D01*
X55905D01*
Y98534D01*
X61000D01*
Y94750D01*
X68000D01*
Y103250D01*
X61000D01*
Y101592D01*
X55905D01*
Y103032D01*
X43131D01*
X41529Y104633D01*
Y139000D01*
X41413Y139585D01*
X41148Y139982D01*
X41536Y140301D01*
X47471Y134367D01*
Y110906D01*
X42094D01*
Y104969D01*
X55905D01*
Y106408D01*
X61000D01*
Y104750D01*
X68000D01*
Y113250D01*
X61000D01*
Y109466D01*
X55905D01*
Y110906D01*
X50529D01*
Y135000D01*
X50413Y135585D01*
X50081Y136081D01*
X39656Y146507D01*
X39598Y146545D01*
X39750Y147045D01*
X42143D01*
X42651Y146706D01*
X43425Y146552D01*
X44199Y146706D01*
X44856Y147144D01*
X45294Y147801D01*
X45448Y148575D01*
X45294Y149349D01*
X44856Y150005D01*
X44199Y150444D01*
X43425Y150598D01*
X42651Y150444D01*
X42143Y150104D01*
X35744D01*
Y151224D01*
X32874D01*
Y151724D01*
X32374D01*
Y153413D01*
X30626D01*
Y154398D01*
D02*
G37*
G36*
X181250Y148000D02*
X177500D01*
Y145000D01*
X181250D01*
Y148000D01*
D02*
G37*
G36*
X176500D02*
X172750D01*
Y145000D01*
X176500D01*
Y148000D01*
D02*
G37*
G36*
X116217Y145780D02*
X111772D01*
X107327D01*
Y144394D01*
Y144220D01*
X111772D01*
X116217D01*
Y145780D01*
D02*
G37*
G36*
X249110Y147000D02*
X245657D01*
Y144138D01*
X249110D01*
Y147000D01*
D02*
G37*
G36*
X244657D02*
X241205D01*
Y144138D01*
X244657D01*
Y147000D01*
D02*
G37*
G36*
X181250Y144000D02*
X177500D01*
Y141000D01*
X181250D01*
Y144000D01*
D02*
G37*
G36*
X176500D02*
X172750D01*
Y141000D01*
X176500D01*
Y144000D01*
D02*
G37*
G36*
X145000Y143250D02*
X142000D01*
Y139500D01*
X145000D01*
Y143250D01*
D02*
G37*
G36*
X141000D02*
X138000D01*
Y139500D01*
X141000D01*
Y143250D01*
D02*
G37*
G36*
X145000Y138500D02*
X142000D01*
Y134750D01*
X145000D01*
Y138500D01*
D02*
G37*
G36*
X141000D02*
X138000D01*
Y134750D01*
X141000D01*
Y138500D01*
D02*
G37*
G36*
X238000Y136750D02*
X235000D01*
Y133000D01*
X238000D01*
Y136750D01*
D02*
G37*
G36*
X234000D02*
X231000D01*
Y133000D01*
X234000D01*
Y136750D01*
D02*
G37*
G36*
X59500Y134250D02*
X56500D01*
Y130500D01*
X59500D01*
Y134250D01*
D02*
G37*
G36*
X55500D02*
X52500D01*
Y130500D01*
X55500D01*
Y134250D01*
D02*
G37*
G36*
X205500Y133464D02*
Y130500D01*
X208464D01*
X208410Y130914D01*
X208057Y131765D01*
X207496Y132496D01*
X206765Y133057D01*
X205914Y133410D01*
X205500Y133464D01*
D02*
G37*
G36*
X204500D02*
X204086Y133410D01*
X203235Y133057D01*
X202504Y132496D01*
X201943Y131765D01*
X201590Y130914D01*
X201536Y130500D01*
X204500D01*
Y133464D01*
D02*
G37*
G36*
X87673Y135543D02*
X83228D01*
X78784D01*
Y134158D01*
Y129895D01*
X67500D01*
Y134250D01*
X60500D01*
Y125750D01*
X67500D01*
Y126837D01*
X78784D01*
Y126480D01*
X87673D01*
Y129396D01*
X96441D01*
X98012Y127825D01*
X98131Y127226D01*
X98569Y126569D01*
X99226Y126131D01*
X100000Y125977D01*
X100774Y126131D01*
X101431Y126569D01*
X101869Y127226D01*
X102023Y128000D01*
X101869Y128774D01*
X101431Y129431D01*
X100774Y129869D01*
X100174Y129988D01*
X98670Y131493D01*
X98861Y131955D01*
X100473D01*
X100618Y131226D01*
X101056Y130569D01*
X101713Y130131D01*
X102487Y129977D01*
X103261Y130131D01*
X103917Y130569D01*
X104356Y131226D01*
X104510Y132000D01*
X104356Y132774D01*
X103917Y133431D01*
X103360Y133803D01*
X102597Y134566D01*
X102101Y134897D01*
X101516Y135014D01*
X87673D01*
Y135543D01*
D02*
G37*
G36*
X145000Y132250D02*
X142000D01*
Y128500D01*
X145000D01*
Y132250D01*
D02*
G37*
G36*
X141000D02*
X138000D01*
Y128500D01*
X141000D01*
Y132250D01*
D02*
G37*
G36*
X238000Y132000D02*
X235000D01*
Y128250D01*
X238000D01*
Y132000D01*
D02*
G37*
G36*
X234000D02*
X231000D01*
Y128250D01*
X234000D01*
Y132000D01*
D02*
G37*
G36*
X205000Y159523D02*
X204226Y159369D01*
X203569Y158931D01*
X203131Y158274D01*
X203012Y157675D01*
X202919Y157581D01*
X202587Y157085D01*
X202471Y156500D01*
Y151750D01*
X200500D01*
Y143250D01*
X207500D01*
Y145971D01*
X210890D01*
Y144138D01*
X216042D01*
X222968Y137212D01*
X222776Y136750D01*
X222000D01*
Y128250D01*
X229000D01*
Y136750D01*
X227029D01*
Y136843D01*
X226913Y137428D01*
X226581Y137924D01*
X218795Y145710D01*
Y150862D01*
X210890D01*
Y149029D01*
X207500D01*
Y151750D01*
X205529D01*
Y155582D01*
X205774Y155631D01*
X206431Y156069D01*
X206869Y156726D01*
X207023Y157500D01*
X206869Y158274D01*
X206431Y158931D01*
X205774Y159369D01*
X205000Y159523D01*
D02*
G37*
G36*
X34000Y130500D02*
X31000D01*
Y126750D01*
X34000D01*
Y130500D01*
D02*
G37*
G36*
X30000D02*
X27000D01*
Y126750D01*
X30000D01*
Y130500D01*
D02*
G37*
G36*
X208464Y129500D02*
X205500D01*
Y126536D01*
X205914Y126590D01*
X206765Y126943D01*
X207496Y127504D01*
X208057Y128235D01*
X208410Y129086D01*
X208464Y129500D01*
D02*
G37*
G36*
X204500D02*
X201536D01*
X201590Y129086D01*
X201943Y128235D01*
X202504Y127504D01*
X203235Y126943D01*
X204086Y126590D01*
X204500Y126536D01*
Y129500D01*
D02*
G37*
G36*
X59500Y129500D02*
X56500D01*
Y125750D01*
X59500D01*
Y129500D01*
D02*
G37*
G36*
X55500D02*
X52500D01*
Y125750D01*
X55500D01*
Y129500D01*
D02*
G37*
G36*
X155500Y128464D02*
Y125500D01*
X158464D01*
X158410Y125914D01*
X158057Y126765D01*
X157496Y127496D01*
X156765Y128057D01*
X155914Y128410D01*
X155500Y128464D01*
D02*
G37*
G36*
X154500D02*
X154086Y128410D01*
X153235Y128057D01*
X152504Y127496D01*
X151943Y126765D01*
X151590Y125914D01*
X151536Y125500D01*
X154500D01*
Y128464D01*
D02*
G37*
G36*
X145000Y127500D02*
X142000D01*
Y123750D01*
X145000D01*
Y127500D01*
D02*
G37*
G36*
X141000D02*
X138000D01*
Y123750D01*
X141000D01*
Y127500D01*
D02*
G37*
G36*
X158464Y124500D02*
X155500D01*
Y121536D01*
X155914Y121590D01*
X156765Y121943D01*
X157496Y122504D01*
X158057Y123235D01*
X158410Y124086D01*
X158464Y124500D01*
D02*
G37*
G36*
X154500D02*
X151536D01*
X151590Y124086D01*
X151943Y123235D01*
X152504Y122504D01*
X153235Y121943D01*
X154086Y121590D01*
X154500Y121536D01*
Y124500D01*
D02*
G37*
G36*
X30500Y123464D02*
Y120500D01*
X33464D01*
X33410Y120914D01*
X33057Y121765D01*
X32496Y122496D01*
X31765Y123057D01*
X30914Y123410D01*
X30500Y123464D01*
D02*
G37*
G36*
X29500D02*
X29086Y123410D01*
X28235Y123057D01*
X27504Y122496D01*
X26943Y121765D01*
X26590Y120914D01*
X26536Y120500D01*
X29500D01*
Y123464D01*
D02*
G37*
G36*
X98779Y123994D02*
X98005Y123892D01*
X97282Y123593D01*
X96662Y123117D01*
X96187Y122497D01*
X95887Y121775D01*
X95785Y121000D01*
X95887Y120225D01*
X96187Y119503D01*
X96662Y118883D01*
X97282Y118407D01*
X98005Y118108D01*
X98779Y118006D01*
X99555Y118108D01*
X100277Y118407D01*
X100897Y118883D01*
X101373Y119503D01*
X101672Y120225D01*
X101774Y121000D01*
X101672Y121775D01*
X101373Y122497D01*
X100897Y123117D01*
X100277Y123593D01*
X99555Y123892D01*
X98779Y123994D01*
D02*
G37*
G36*
X254346Y120291D02*
X249516D01*
Y117429D01*
X254346D01*
Y120291D01*
D02*
G37*
G36*
X248516D02*
X243685D01*
Y117429D01*
X248516D01*
Y120291D01*
D02*
G37*
G36*
X69252Y124590D02*
X68323Y124467D01*
X67457Y124109D01*
X66714Y123538D01*
X66143Y122795D01*
X65785Y121929D01*
X65662Y121000D01*
X65785Y120071D01*
X66143Y119205D01*
X66714Y118462D01*
X67457Y117891D01*
X68323Y117533D01*
X69252Y117410D01*
X70181Y117533D01*
X71047Y117891D01*
X71790Y118462D01*
X72361Y119205D01*
X72719Y120071D01*
X72842Y121000D01*
X72719Y121929D01*
X72361Y122795D01*
X71790Y123538D01*
X71047Y124109D01*
X70181Y124467D01*
X69252Y124590D01*
D02*
G37*
G36*
X33464Y119500D02*
X30500D01*
Y116536D01*
X30914Y116590D01*
X31765Y116943D01*
X32496Y117504D01*
X33057Y118235D01*
X33410Y119086D01*
X33464Y119500D01*
D02*
G37*
G36*
X29500D02*
X26536D01*
X26590Y119086D01*
X26943Y118235D01*
X27504Y117504D01*
X28235Y116943D01*
X29086Y116590D01*
X29500Y116536D01*
Y119500D01*
D02*
G37*
G36*
X155500Y118464D02*
Y115500D01*
X158464D01*
X158410Y115914D01*
X158057Y116765D01*
X157496Y117496D01*
X156765Y118057D01*
X155914Y118410D01*
X155500Y118464D01*
D02*
G37*
G36*
X154500D02*
X154086Y118410D01*
X153235Y118057D01*
X152504Y117496D01*
X151943Y116765D01*
X151590Y115914D01*
X151536Y115500D01*
X154500D01*
Y118464D01*
D02*
G37*
G36*
X10500D02*
Y115500D01*
X13464D01*
X13410Y115914D01*
X13057Y116765D01*
X12496Y117496D01*
X11765Y118057D01*
X10914Y118410D01*
X10500Y118464D01*
D02*
G37*
G36*
X9500D02*
X9086Y118410D01*
X8235Y118057D01*
X7504Y117496D01*
X6943Y116765D01*
X6590Y115914D01*
X6536Y115500D01*
X9500D01*
Y118464D01*
D02*
G37*
G36*
X254346Y116429D02*
X249516D01*
Y113567D01*
X254346D01*
Y116429D01*
D02*
G37*
G36*
X248516D02*
X243685D01*
Y113567D01*
X248516D01*
Y116429D01*
D02*
G37*
G36*
X96974Y115887D02*
X93974D01*
Y112137D01*
X96974D01*
Y115887D01*
D02*
G37*
G36*
X92974D02*
X89974D01*
Y112137D01*
X92974D01*
Y115887D01*
D02*
G37*
G36*
X158464Y114500D02*
X155500D01*
Y111536D01*
X155914Y111590D01*
X156765Y111943D01*
X157496Y112504D01*
X158057Y113235D01*
X158410Y114086D01*
X158464Y114500D01*
D02*
G37*
G36*
X154500D02*
X151536D01*
X151590Y114086D01*
X151943Y113235D01*
X152504Y112504D01*
X153235Y111943D01*
X154086Y111590D01*
X154500Y111536D01*
Y114500D01*
D02*
G37*
G36*
X13464D02*
X10500D01*
Y111536D01*
X10914Y111590D01*
X11765Y111943D01*
X12496Y112504D01*
X13057Y113235D01*
X13410Y114086D01*
X13464Y114500D01*
D02*
G37*
G36*
X9500D02*
X6536D01*
X6590Y114086D01*
X6943Y113235D01*
X7504Y112504D01*
X8235Y111943D01*
X9086Y111590D01*
X9500Y111536D01*
Y114500D01*
D02*
G37*
G36*
X215764Y113992D02*
X212508D01*
Y110343D01*
X215764D01*
Y113992D01*
D02*
G37*
G36*
X211508D02*
X208252D01*
Y110343D01*
X211508D01*
Y113992D01*
D02*
G37*
G36*
X77000Y113250D02*
X74000D01*
Y109500D01*
X77000D01*
Y113250D01*
D02*
G37*
G36*
X73000D02*
X70000D01*
Y109500D01*
X73000D01*
Y113250D01*
D02*
G37*
G36*
X92974Y111137D02*
X89974D01*
Y107387D01*
X92974D01*
Y111137D01*
D02*
G37*
G36*
X215764Y109343D02*
X212508D01*
Y105693D01*
X215764D01*
Y109343D01*
D02*
G37*
G36*
X211508D02*
X208252D01*
Y105693D01*
X211508D01*
Y109343D01*
D02*
G37*
G36*
X155500Y108464D02*
Y105500D01*
X158464D01*
X158410Y105914D01*
X158057Y106765D01*
X157496Y107496D01*
X156765Y108057D01*
X155914Y108410D01*
X155500Y108464D01*
D02*
G37*
G36*
X154500D02*
X154086Y108410D01*
X153235Y108057D01*
X152504Y107496D01*
X151943Y106765D01*
X151590Y105914D01*
X151536Y105500D01*
X154500D01*
Y108464D01*
D02*
G37*
G36*
X77000Y108500D02*
X74000D01*
Y104750D01*
X77000D01*
Y108500D01*
D02*
G37*
G36*
X73000D02*
X70000D01*
Y104750D01*
X73000D01*
Y108500D01*
D02*
G37*
G36*
X158464Y104500D02*
X155500D01*
Y101536D01*
X155914Y101590D01*
X156765Y101943D01*
X157496Y102504D01*
X158057Y103235D01*
X158410Y104086D01*
X158464Y104500D01*
D02*
G37*
G36*
X154500D02*
X151536D01*
X151590Y104086D01*
X151943Y103235D01*
X152504Y102504D01*
X153235Y101943D01*
X154086Y101590D01*
X154500Y101536D01*
Y104500D01*
D02*
G37*
G36*
X77000Y103250D02*
X74000D01*
Y99500D01*
X77000D01*
Y103250D01*
D02*
G37*
G36*
X73000D02*
X70000D01*
Y99500D01*
X73000D01*
Y103250D01*
D02*
G37*
G36*
X250590Y101419D02*
X249816Y101317D01*
X249094Y101018D01*
X248473Y100542D01*
X247998Y99922D01*
X247698Y99200D01*
X247596Y98425D01*
X247698Y97650D01*
X247998Y96928D01*
X248473Y96308D01*
X249094Y95832D01*
X249816Y95533D01*
X250590Y95431D01*
X251365Y95533D01*
X252088Y95832D01*
X252708Y96308D01*
X253184Y96928D01*
X253483Y97650D01*
X253585Y98425D01*
X253483Y99200D01*
X253184Y99922D01*
X252708Y100542D01*
X252088Y101018D01*
X251365Y101317D01*
X250590Y101419D01*
D02*
G37*
G36*
X77000Y98500D02*
X74000D01*
Y94750D01*
X77000D01*
Y98500D01*
D02*
G37*
G36*
X73000D02*
X70000D01*
Y94750D01*
X73000D01*
Y98500D01*
D02*
G37*
G36*
X130500Y93464D02*
Y90500D01*
X133464D01*
X133410Y90914D01*
X133057Y91765D01*
X132496Y92496D01*
X131765Y93057D01*
X130914Y93410D01*
X130500Y93464D01*
D02*
G37*
G36*
X129500D02*
X129086Y93410D01*
X128235Y93057D01*
X127504Y92496D01*
X126943Y91765D01*
X126590Y90914D01*
X126536Y90500D01*
X129500D01*
Y93464D01*
D02*
G37*
G36*
X57508Y93760D02*
Y88492D01*
X62775D01*
X62643Y89502D01*
X62060Y90909D01*
X61133Y92117D01*
X59925Y93044D01*
X58518Y93627D01*
X57508Y93760D01*
D02*
G37*
G36*
X56508D02*
X55498Y93627D01*
X54091Y93044D01*
X52883Y92117D01*
X51956Y90909D01*
X51373Y89502D01*
X51240Y88492D01*
X56508D01*
Y93760D01*
D02*
G37*
G36*
X102000Y96750D02*
X95000D01*
Y94029D01*
X87500D01*
X86915Y93913D01*
X86419Y93581D01*
X71797Y78960D01*
X71135Y79235D01*
X70000Y79384D01*
X68865Y79235D01*
X67808Y78797D01*
X66900Y78100D01*
X66203Y77192D01*
X65765Y76135D01*
X65616Y75000D01*
X65765Y73865D01*
X66203Y72808D01*
X66900Y71900D01*
X67808Y71203D01*
X68865Y70765D01*
X70000Y70616D01*
X71135Y70765D01*
X72192Y71203D01*
X73100Y71900D01*
X73797Y72808D01*
X74235Y73865D01*
X74384Y75000D01*
X74235Y76135D01*
X73960Y76797D01*
X88134Y90971D01*
X95000D01*
Y88250D01*
X102000D01*
Y96750D01*
D02*
G37*
G36*
X116217Y135543D02*
X111772D01*
X107327D01*
Y134158D01*
Y131598D01*
Y129039D01*
Y126480D01*
X110242D01*
Y122405D01*
X103724Y115887D01*
X98974D01*
Y107387D01*
X98575Y107142D01*
X97372D01*
X96974Y107387D01*
X96974Y107642D01*
Y111137D01*
X93974D01*
Y107387D01*
X95196D01*
X95595Y107142D01*
X95595Y106887D01*
Y104529D01*
X91283D01*
X90774Y104869D01*
X90000Y105023D01*
X89226Y104869D01*
X88569Y104431D01*
X88131Y103774D01*
X87977Y103000D01*
X88131Y102226D01*
X88569Y101569D01*
X89226Y101131D01*
X90000Y100977D01*
X90774Y101131D01*
X91283Y101471D01*
X95595D01*
Y97858D01*
X104416D01*
Y96750D01*
X103000D01*
Y88250D01*
X104971D01*
Y86750D01*
X103000D01*
Y78250D01*
X104971D01*
Y76250D01*
X103000D01*
Y67750D01*
X110000D01*
Y76250D01*
X108029D01*
Y78250D01*
X110000D01*
Y80971D01*
X115866D01*
X118471Y78367D01*
Y78283D01*
X118131Y77774D01*
X117977Y77000D01*
X118131Y76226D01*
X118569Y75569D01*
X119226Y75131D01*
X120000Y74977D01*
X120774Y75131D01*
X121431Y75569D01*
X121869Y76226D01*
X122023Y77000D01*
X121869Y77774D01*
X121529Y78283D01*
Y79000D01*
X121413Y79585D01*
X121081Y80081D01*
X117581Y83581D01*
X117085Y83913D01*
X116500Y84029D01*
X110000D01*
Y86750D01*
X108029D01*
Y88250D01*
X110000D01*
Y96750D01*
X107474D01*
Y97858D01*
X109406D01*
Y107142D01*
X106372D01*
X105974Y107387D01*
Y113811D01*
X112853Y120690D01*
X113185Y121186D01*
X113301Y121772D01*
Y126480D01*
X116217D01*
Y128913D01*
X116506Y129086D01*
X116717Y129121D01*
X118471Y127366D01*
Y86283D01*
X118131Y85774D01*
X117977Y85000D01*
X118131Y84226D01*
X118569Y83569D01*
X119226Y83131D01*
X120000Y82977D01*
X120774Y83131D01*
X121431Y83569D01*
X121869Y84226D01*
X122023Y85000D01*
X121869Y85774D01*
X121529Y86283D01*
Y87995D01*
X122029Y88262D01*
X122226Y88131D01*
X123000Y87977D01*
X123774Y88131D01*
X124431Y88569D01*
X124869Y89226D01*
X125023Y90000D01*
X124869Y90774D01*
X124529Y91283D01*
Y129000D01*
X124413Y129585D01*
X124081Y130081D01*
X119597Y134566D01*
X119101Y134897D01*
X118516Y135014D01*
X116217D01*
Y135543D01*
D02*
G37*
G36*
X133464Y89500D02*
X130500D01*
Y86536D01*
X130914Y86590D01*
X131765Y86943D01*
X132496Y87504D01*
X133057Y88235D01*
X133410Y89086D01*
X133464Y89500D01*
D02*
G37*
G36*
X129500D02*
X126536D01*
X126590Y89086D01*
X126943Y88235D01*
X127504Y87504D01*
X128235Y86943D01*
X129086Y86590D01*
X129500Y86536D01*
Y89500D01*
D02*
G37*
G36*
X62775Y87492D02*
X57508D01*
Y82225D01*
X58518Y82358D01*
X59925Y82940D01*
X61133Y83867D01*
X62060Y85075D01*
X62643Y86482D01*
X62775Y87492D01*
D02*
G37*
G36*
X56508D02*
X51240D01*
X51373Y86482D01*
X51956Y85075D01*
X52883Y83867D01*
X54091Y82940D01*
X55498Y82358D01*
X56508Y82225D01*
Y87492D01*
D02*
G37*
G36*
X130500Y83464D02*
Y80500D01*
X133464D01*
X133410Y80914D01*
X133057Y81765D01*
X132496Y82496D01*
X131765Y83057D01*
X130914Y83410D01*
X130500Y83464D01*
D02*
G37*
G36*
X129500D02*
X129086Y83410D01*
X128235Y83057D01*
X127504Y82496D01*
X126943Y81765D01*
X126590Y80914D01*
X126536Y80500D01*
X129500D01*
Y83464D01*
D02*
G37*
G36*
X25709Y88205D02*
X24512Y88047D01*
X23398Y87586D01*
X22440Y86851D01*
X21706Y85894D01*
X21244Y84779D01*
X21086Y83583D01*
X21244Y82386D01*
X21706Y81272D01*
X22440Y80314D01*
X23398Y79580D01*
X24512Y79118D01*
X25709Y78961D01*
X26905Y79118D01*
X28020Y79580D01*
X28977Y80314D01*
X29712Y81272D01*
X30173Y82386D01*
X30331Y83583D01*
X30173Y84779D01*
X29712Y85894D01*
X28977Y86851D01*
X28020Y87586D01*
X26905Y88047D01*
X25709Y88205D01*
D02*
G37*
G36*
X183000Y81500D02*
Y78500D01*
X186750D01*
Y81500D01*
X183000D01*
D02*
G37*
G36*
X102000Y86750D02*
X95000D01*
Y84029D01*
X92500D01*
X91915Y83913D01*
X91419Y83581D01*
X81797Y73960D01*
X81135Y74235D01*
X80000Y74384D01*
X78865Y74235D01*
X77808Y73797D01*
X76900Y73100D01*
X76203Y72192D01*
X75765Y71135D01*
X75616Y70000D01*
X75765Y68865D01*
X76203Y67808D01*
X76801Y67029D01*
X76618Y66529D01*
X74071D01*
X73797Y67192D01*
X73100Y68100D01*
X72192Y68797D01*
X71135Y69235D01*
X70000Y69384D01*
X68865Y69235D01*
X67808Y68797D01*
X66900Y68100D01*
X66203Y67192D01*
X65765Y66135D01*
X65616Y65000D01*
X65765Y63865D01*
X66203Y62808D01*
X66900Y61900D01*
X67808Y61203D01*
X68865Y60765D01*
X70000Y60616D01*
X71135Y60765D01*
X72192Y61203D01*
X73100Y61900D01*
X73797Y62808D01*
X74071Y63471D01*
X76618D01*
X76801Y62971D01*
X76203Y62192D01*
X75765Y61135D01*
X75616Y60000D01*
X75765Y58865D01*
X76203Y57808D01*
X76900Y56900D01*
X77808Y56203D01*
X78865Y55765D01*
X80000Y55616D01*
X81135Y55765D01*
X82192Y56203D01*
X83100Y56900D01*
X83797Y57808D01*
X84235Y58865D01*
X84384Y60000D01*
X84235Y61135D01*
X83797Y62192D01*
X83199Y62971D01*
X83382Y63471D01*
X95000D01*
Y58250D01*
X102000D01*
Y66750D01*
X95000D01*
Y66529D01*
X83382D01*
X83199Y67029D01*
X83797Y67808D01*
X84235Y68865D01*
X84384Y70000D01*
X84235Y71135D01*
X83960Y71797D01*
X93133Y80971D01*
X95000D01*
Y78250D01*
X102000D01*
Y86750D01*
D02*
G37*
G36*
X133464Y79500D02*
X130500D01*
Y76536D01*
X130914Y76590D01*
X131765Y76943D01*
X132496Y77504D01*
X133057Y78235D01*
X133410Y79086D01*
X133464Y79500D01*
D02*
G37*
G36*
X129500D02*
X126536D01*
X126590Y79086D01*
X126943Y78235D01*
X127504Y77504D01*
X128235Y76943D01*
X129086Y76590D01*
X129500Y76536D01*
Y79500D01*
D02*
G37*
G36*
X186750Y77500D02*
X183000D01*
Y74500D01*
X186750D01*
Y77500D01*
D02*
G37*
G36*
X182000D02*
X178250D01*
Y74500D01*
X182000D01*
Y77500D01*
D02*
G37*
G36*
X101000Y76250D02*
X98000D01*
Y72500D01*
X101000D01*
Y76250D01*
D02*
G37*
G36*
X97000D02*
X94000D01*
Y72500D01*
X97000D01*
Y76250D01*
D02*
G37*
G36*
X45000Y87829D02*
X43473Y87679D01*
X42004Y87233D01*
X40650Y86510D01*
X39464Y85536D01*
X38490Y84350D01*
X37767Y82996D01*
X37321Y81527D01*
X37171Y80000D01*
X37321Y78473D01*
X37767Y77004D01*
X38490Y75650D01*
X39464Y74464D01*
X40650Y73490D01*
X42004Y72767D01*
X43473Y72321D01*
X45000Y72171D01*
X46527Y72321D01*
X47996Y72767D01*
X49350Y73490D01*
X50536Y74464D01*
X51510Y75650D01*
X52233Y77004D01*
X52679Y78473D01*
X52829Y80000D01*
X52679Y81527D01*
X52233Y82996D01*
X51510Y84350D01*
X50536Y85536D01*
X49350Y86510D01*
X47996Y87233D01*
X46527Y87679D01*
X45000Y87829D01*
D02*
G37*
G36*
X130500Y73464D02*
Y70500D01*
X133464D01*
X133410Y70914D01*
X133057Y71765D01*
X132496Y72496D01*
X131765Y73057D01*
X130914Y73410D01*
X130500Y73464D01*
D02*
G37*
G36*
X129500D02*
X129086Y73410D01*
X128235Y73057D01*
X127504Y72496D01*
X126943Y71765D01*
X126590Y70914D01*
X126536Y70500D01*
X129500D01*
Y73464D01*
D02*
G37*
G36*
X101000Y71500D02*
X98000D01*
Y67750D01*
X101000D01*
Y71500D01*
D02*
G37*
G36*
X97000D02*
X94000D01*
Y67750D01*
X97000D01*
Y71500D01*
D02*
G37*
G36*
X133464Y69500D02*
X130500D01*
Y66536D01*
X130914Y66590D01*
X131765Y66943D01*
X132496Y67504D01*
X133057Y68235D01*
X133410Y69086D01*
X133464Y69500D01*
D02*
G37*
G36*
X129500D02*
X126536D01*
X126590Y69086D01*
X126943Y68235D01*
X127504Y67504D01*
X128235Y66943D01*
X129086Y66590D01*
X129500Y66536D01*
Y69500D01*
D02*
G37*
G36*
X250590Y69923D02*
X249816Y69821D01*
X249094Y69522D01*
X248473Y69046D01*
X247998Y68426D01*
X247698Y67704D01*
X247596Y66929D01*
X247698Y66154D01*
X247998Y65432D01*
X248473Y64812D01*
X249094Y64336D01*
X249816Y64037D01*
X250590Y63935D01*
X251365Y64037D01*
X252088Y64336D01*
X252708Y64812D01*
X253184Y65432D01*
X253483Y66154D01*
X253585Y66929D01*
X253483Y67704D01*
X253184Y68426D01*
X252708Y69046D01*
X252088Y69522D01*
X251365Y69821D01*
X250590Y69923D01*
D02*
G37*
G36*
X130500Y63464D02*
Y60500D01*
X133464D01*
X133410Y60914D01*
X133057Y61765D01*
X132496Y62496D01*
X131765Y63057D01*
X130914Y63410D01*
X130500Y63464D01*
D02*
G37*
G36*
X129500D02*
X129086Y63410D01*
X128235Y63057D01*
X127504Y62496D01*
X126943Y61765D01*
X126590Y60914D01*
X126536Y60500D01*
X129500D01*
Y63464D01*
D02*
G37*
G36*
X133464Y59500D02*
X130500D01*
Y56536D01*
X130914Y56590D01*
X131765Y56943D01*
X132496Y57504D01*
X133057Y58235D01*
X133410Y59086D01*
X133464Y59500D01*
D02*
G37*
G36*
X129500D02*
X126536D01*
X126590Y59086D01*
X126943Y58235D01*
X127504Y57504D01*
X128235Y56943D01*
X129086Y56590D01*
X129500Y56536D01*
Y59500D01*
D02*
G37*
G36*
X254346Y59268D02*
X249516D01*
Y56406D01*
X254346D01*
Y59268D01*
D02*
G37*
G36*
X212221Y60524D02*
X208661D01*
X205102D01*
Y58646D01*
X207465D01*
Y56406D01*
X211221D01*
X214976D01*
Y59268D01*
X212221D01*
Y60524D01*
D02*
G37*
G36*
X248516Y59268D02*
X243685D01*
Y56406D01*
X248516D01*
Y59268D01*
D02*
G37*
G36*
X102000Y56750D02*
X95000D01*
Y54029D01*
X82500D01*
X81915Y53913D01*
X81913Y53912D01*
X81135Y54235D01*
X80000Y54384D01*
X78865Y54235D01*
X77808Y53797D01*
X76900Y53100D01*
X76203Y52192D01*
X75765Y51135D01*
X75616Y50000D01*
X75765Y48865D01*
X76203Y47808D01*
X76900Y46900D01*
X77808Y46203D01*
X78865Y45765D01*
X80000Y45616D01*
X81135Y45765D01*
X82192Y46203D01*
X83100Y46900D01*
X83797Y47808D01*
X84235Y48865D01*
X84384Y50000D01*
X84306Y50595D01*
X84635Y50971D01*
X95000D01*
Y48250D01*
X102000D01*
Y56750D01*
D02*
G37*
G36*
X254346Y55405D02*
X249516D01*
Y52543D01*
X254346D01*
Y55405D01*
D02*
G37*
G36*
X248516D02*
X243685D01*
Y52543D01*
X248516D01*
Y55405D01*
D02*
G37*
G36*
X214976D02*
X211720D01*
Y52543D01*
X214976D01*
Y55405D01*
D02*
G37*
G36*
X210720D02*
X207465D01*
Y52543D01*
X210720D01*
Y55405D01*
D02*
G37*
G36*
X70000Y59384D02*
X68865Y59235D01*
X67808Y58797D01*
X66900Y58100D01*
X66203Y57192D01*
X65765Y56135D01*
X65616Y55000D01*
X65765Y53865D01*
X66203Y52808D01*
X66900Y51900D01*
X67808Y51203D01*
X68865Y50765D01*
X70000Y50616D01*
X71135Y50765D01*
X72192Y51203D01*
X73100Y51900D01*
X73797Y52808D01*
X74235Y53865D01*
X74384Y55000D01*
X74235Y56135D01*
X73797Y57192D01*
X73100Y58100D01*
X72192Y58797D01*
X71135Y59235D01*
X70000Y59384D01*
D02*
G37*
G36*
X130500Y53464D02*
Y50500D01*
X133464D01*
X133410Y50914D01*
X133057Y51765D01*
X132496Y52496D01*
X131765Y53057D01*
X130914Y53410D01*
X130500Y53464D01*
D02*
G37*
G36*
X129500D02*
X129086Y53410D01*
X128235Y53057D01*
X127504Y52496D01*
X126943Y51765D01*
X126590Y50914D01*
X126536Y50500D01*
X129500D01*
Y53464D01*
D02*
G37*
G36*
X133464Y49500D02*
X130500D01*
Y46536D01*
X130914Y46590D01*
X131765Y46943D01*
X132496Y47504D01*
X133057Y48235D01*
X133410Y49086D01*
X133464Y49500D01*
D02*
G37*
G36*
X129500D02*
X126536D01*
X126590Y49086D01*
X126943Y48235D01*
X127504Y47504D01*
X128235Y46943D01*
X129086Y46590D01*
X129500Y46536D01*
Y49500D01*
D02*
G37*
G36*
X70500Y49318D02*
Y45500D01*
X74318D01*
X74235Y46135D01*
X73797Y47192D01*
X73100Y48100D01*
X72192Y48797D01*
X71135Y49235D01*
X70500Y49318D01*
D02*
G37*
G36*
X69500D02*
X68865Y49235D01*
X67808Y48797D01*
X66900Y48100D01*
X66203Y47192D01*
X65765Y46135D01*
X65682Y45500D01*
X69500D01*
Y49318D01*
D02*
G37*
G36*
X101500Y46750D02*
X98500D01*
Y43000D01*
X101500D01*
Y46750D01*
D02*
G37*
G36*
X97500D02*
X94500D01*
Y43000D01*
X97500D01*
Y46750D01*
D02*
G37*
G36*
X74318Y44500D02*
X70500D01*
Y40682D01*
X71135Y40765D01*
X72192Y41203D01*
X73100Y41900D01*
X73797Y42808D01*
X74235Y43865D01*
X74318Y44500D01*
D02*
G37*
G36*
X69500D02*
X65682D01*
X65765Y43865D01*
X66203Y42808D01*
X66900Y41900D01*
X67808Y41203D01*
X68865Y40765D01*
X69500Y40682D01*
Y44500D01*
D02*
G37*
G36*
X249250Y42500D02*
X240750D01*
Y40664D01*
X237362D01*
Y42497D01*
X230637D01*
Y35773D01*
X237362D01*
Y37605D01*
X240750D01*
Y35500D01*
X249250D01*
Y42500D01*
D02*
G37*
G36*
X227250D02*
X218750D01*
Y40664D01*
X215362D01*
Y42497D01*
X208637D01*
Y35773D01*
X215362D01*
Y37605D01*
X218750D01*
Y35500D01*
X227250D01*
Y42500D01*
D02*
G37*
G36*
X206250D02*
X197750D01*
Y40664D01*
X195362D01*
Y42497D01*
X188637D01*
Y35773D01*
X195362D01*
Y37605D01*
X197750D01*
Y35500D01*
X206250D01*
Y42500D01*
D02*
G37*
G36*
X186250D02*
X177750D01*
Y40664D01*
X174362D01*
Y42497D01*
X167637D01*
Y35773D01*
X174362D01*
Y37605D01*
X177750D01*
Y35500D01*
X186250D01*
Y42500D01*
D02*
G37*
G36*
X80500Y44318D02*
Y40500D01*
X84318D01*
X84235Y41135D01*
X83797Y42192D01*
X83100Y43100D01*
X82192Y43797D01*
X81135Y44235D01*
X80500Y44318D01*
D02*
G37*
G36*
X79500D02*
X78865Y44235D01*
X77808Y43797D01*
X76900Y43100D01*
X76203Y42192D01*
X75765Y41135D01*
X75682Y40500D01*
X79500D01*
Y44318D01*
D02*
G37*
G36*
X110000Y66750D02*
X103000D01*
Y58250D01*
X104971D01*
Y56750D01*
X103000D01*
Y48250D01*
X104971D01*
Y46750D01*
X103500D01*
Y38250D01*
X110500D01*
Y46750D01*
X108029D01*
Y48250D01*
X110000D01*
Y56750D01*
X108029D01*
Y58250D01*
X110000D01*
Y66750D01*
D02*
G37*
G36*
X101500Y42000D02*
X98500D01*
Y38250D01*
X101500D01*
Y42000D01*
D02*
G37*
G36*
X97500D02*
X94500D01*
Y38250D01*
X97500D01*
Y42000D01*
D02*
G37*
G36*
X25709Y46040D02*
X24512Y45882D01*
X23398Y45420D01*
X22440Y44686D01*
X21706Y43728D01*
X21244Y42614D01*
X21086Y41417D01*
X21244Y40221D01*
X21568Y39439D01*
X17919Y35790D01*
X17587Y35294D01*
X17471Y34709D01*
Y21750D01*
X15500D01*
Y13250D01*
X22500D01*
Y21750D01*
X20529D01*
Y34075D01*
X23731Y37276D01*
X24512Y36953D01*
X25709Y36795D01*
X26905Y36953D01*
X28020Y37414D01*
X28977Y38149D01*
X29712Y39106D01*
X30173Y40221D01*
X30331Y41417D01*
X30173Y42614D01*
X29712Y43728D01*
X28977Y44686D01*
X28020Y45420D01*
X26905Y45882D01*
X25709Y46040D01*
D02*
G37*
G36*
X84318Y39500D02*
X80500D01*
Y35682D01*
X81135Y35765D01*
X82192Y36203D01*
X83100Y36900D01*
X83797Y37808D01*
X84235Y38865D01*
X84318Y39500D01*
D02*
G37*
G36*
X79500D02*
X75682D01*
X75765Y38865D01*
X76203Y37808D01*
X76900Y36900D01*
X77808Y36203D01*
X78865Y35765D01*
X79500Y35682D01*
Y39500D01*
D02*
G37*
G36*
X101500Y36750D02*
X98500D01*
Y33000D01*
X101500D01*
Y36750D01*
D02*
G37*
G36*
X97500D02*
X94500D01*
Y33000D01*
X97500D01*
Y36750D01*
D02*
G37*
G36*
X227250Y34500D02*
X223500D01*
Y31500D01*
X227250D01*
Y34500D01*
D02*
G37*
G36*
X206250D02*
X202500D01*
Y31500D01*
X206250D01*
Y34500D01*
D02*
G37*
G36*
X249250D02*
X245500D01*
Y31500D01*
X249250D01*
Y34500D01*
D02*
G37*
G36*
X186250D02*
X182500D01*
Y31500D01*
X186250D01*
Y34500D01*
D02*
G37*
G36*
X181500D02*
X177750D01*
Y31500D01*
X181500D01*
Y34500D01*
D02*
G37*
G36*
X222500D02*
X218750D01*
Y31500D01*
X222500D01*
Y34500D01*
D02*
G37*
G36*
X201500D02*
X197750D01*
Y31500D01*
X201500D01*
Y34500D01*
D02*
G37*
G36*
X244500D02*
X240750D01*
Y31500D01*
X244500D01*
Y34500D01*
D02*
G37*
G36*
X101500Y32000D02*
X98500D01*
Y28250D01*
X101500D01*
Y32000D01*
D02*
G37*
G36*
X97500D02*
X94500D01*
Y28250D01*
X97500D01*
Y32000D01*
D02*
G37*
G36*
X57508Y32775D02*
Y27508D01*
X62775D01*
X62643Y28518D01*
X62060Y29925D01*
X61133Y31133D01*
X59925Y32060D01*
X58518Y32642D01*
X57508Y32775D01*
D02*
G37*
G36*
X56508D02*
X55498Y32642D01*
X54091Y32060D01*
X52883Y31133D01*
X51956Y29925D01*
X51373Y28518D01*
X51240Y27508D01*
X56508D01*
Y32775D01*
D02*
G37*
G36*
X249250Y30500D02*
X245500D01*
Y27500D01*
X249250D01*
Y30500D01*
D02*
G37*
G36*
X244500D02*
X240750D01*
Y27500D01*
X244500D01*
Y30500D01*
D02*
G37*
G36*
X227250D02*
X223500D01*
Y27500D01*
X227250D01*
Y30500D01*
D02*
G37*
G36*
X222500D02*
X218750D01*
Y27500D01*
X222500D01*
Y30500D01*
D02*
G37*
G36*
X206250D02*
X202500D01*
Y27500D01*
X206250D01*
Y30500D01*
D02*
G37*
G36*
X201500D02*
X197750D01*
Y27500D01*
X201500D01*
Y30500D01*
D02*
G37*
G36*
X186250D02*
X182500D01*
Y27500D01*
X186250D01*
Y30500D01*
D02*
G37*
G36*
X181500D02*
X177750D01*
Y27500D01*
X181500D01*
Y30500D01*
D02*
G37*
G36*
X45000Y42829D02*
X43473Y42679D01*
X42004Y42233D01*
X40650Y41510D01*
X39464Y40536D01*
X38490Y39350D01*
X37767Y37996D01*
X37321Y36527D01*
X37171Y35000D01*
X37321Y33473D01*
X37767Y32004D01*
X38490Y30650D01*
X39464Y29464D01*
X40650Y28490D01*
X42004Y27767D01*
X43473Y27321D01*
X45000Y27171D01*
X46527Y27321D01*
X47996Y27767D01*
X49350Y28490D01*
X50536Y29464D01*
X51510Y30650D01*
X52233Y32004D01*
X52679Y33473D01*
X52829Y35000D01*
X52679Y36527D01*
X52233Y37996D01*
X51510Y39350D01*
X50536Y40536D01*
X49350Y41510D01*
X47996Y42233D01*
X46527Y42679D01*
X45000Y42829D01*
D02*
G37*
G36*
X25709Y36040D02*
X24512Y35882D01*
X23398Y35420D01*
X22440Y34686D01*
X21706Y33728D01*
X21244Y32614D01*
X21086Y31417D01*
X21244Y30221D01*
X21706Y29106D01*
X22440Y28149D01*
X23398Y27414D01*
X24512Y26953D01*
X25709Y26795D01*
X26905Y26953D01*
X28020Y27414D01*
X28977Y28149D01*
X29712Y29106D01*
X30173Y30221D01*
X30331Y31417D01*
X30173Y32614D01*
X29712Y33728D01*
X28977Y34686D01*
X28020Y35420D01*
X26905Y35882D01*
X25709Y36040D01*
D02*
G37*
G36*
X62775Y26508D02*
X57508D01*
Y21240D01*
X58518Y21373D01*
X59925Y21956D01*
X61133Y22883D01*
X62060Y24091D01*
X62643Y25498D01*
X62775Y26508D01*
D02*
G37*
G36*
X56508D02*
X51240D01*
X51373Y25498D01*
X51956Y24091D01*
X52883Y22883D01*
X54091Y21956D01*
X55498Y21373D01*
X56508Y21240D01*
Y26508D01*
D02*
G37*
G36*
X41500Y22250D02*
X38500D01*
Y18500D01*
X41500D01*
Y22250D01*
D02*
G37*
G36*
X37500D02*
X34500D01*
Y18500D01*
X37500D01*
Y22250D01*
D02*
G37*
G36*
X14500Y21750D02*
X11500D01*
Y18000D01*
X14500D01*
Y21750D01*
D02*
G37*
G36*
X10500D02*
X7500D01*
Y18000D01*
X10500D01*
Y21750D01*
D02*
G37*
G36*
X41500Y17500D02*
X38500D01*
Y13750D01*
X41500D01*
Y17500D01*
D02*
G37*
G36*
X37500D02*
X34500D01*
Y13750D01*
X37500D01*
Y17500D01*
D02*
G37*
G36*
X25709Y78205D02*
X24512Y78047D01*
X23398Y77586D01*
X22440Y76851D01*
X21706Y75894D01*
X21244Y74779D01*
X21086Y73583D01*
X21244Y72386D01*
X21706Y71272D01*
X22440Y70314D01*
X23398Y69580D01*
X24512Y69118D01*
X25709Y68960D01*
X26905Y69118D01*
X27687Y69442D01*
X31471Y65658D01*
Y27634D01*
X28919Y25081D01*
X28587Y24585D01*
X28471Y24000D01*
Y22250D01*
X26500D01*
Y13750D01*
X33500D01*
Y22250D01*
X31529D01*
Y23367D01*
X34081Y25919D01*
X34413Y26415D01*
X34529Y27000D01*
Y66291D01*
X34413Y66877D01*
X34081Y67373D01*
X29850Y71605D01*
X30173Y72386D01*
X30331Y73583D01*
X30173Y74779D01*
X29712Y75894D01*
X28977Y76851D01*
X28020Y77586D01*
X26905Y78047D01*
X25709Y78205D01*
D02*
G37*
G36*
X237362Y34229D02*
X230637D01*
Y27505D01*
X232470D01*
Y14633D01*
X231496Y13659D01*
X231032Y13851D01*
X230000Y13987D01*
X228968Y13851D01*
X228007Y13453D01*
X227181Y12819D01*
X226547Y11993D01*
X226149Y11032D01*
X226013Y10000D01*
X226149Y8968D01*
X226547Y8007D01*
X227181Y7181D01*
X228007Y6547D01*
X228968Y6149D01*
X230000Y6013D01*
X231032Y6149D01*
X231993Y6547D01*
X232819Y7181D01*
X233453Y8007D01*
X233851Y8968D01*
X233987Y10000D01*
X233851Y11032D01*
X233659Y11496D01*
X235081Y12918D01*
X235412Y13414D01*
X235529Y13999D01*
Y27505D01*
X237362D01*
Y34229D01*
D02*
G37*
G36*
X14500Y17000D02*
X11500D01*
Y13250D01*
X14500D01*
Y17000D01*
D02*
G37*
G36*
X10500D02*
X7500D01*
Y13250D01*
X10500D01*
Y17000D01*
D02*
G37*
G36*
X76295Y15862D02*
X72843D01*
Y13000D01*
X76295D01*
Y15862D01*
D02*
G37*
G36*
X71842D02*
X68390D01*
Y13000D01*
X71842D01*
Y15862D01*
D02*
G37*
G36*
X195362Y34229D02*
X188637D01*
Y27505D01*
X190569D01*
X190586Y27415D01*
X190918Y26919D01*
X203422Y14415D01*
X203231Y13953D01*
X196047D01*
Y11529D01*
X192500D01*
X174362Y29668D01*
Y34229D01*
X167637D01*
Y27505D01*
X172199D01*
X190785Y8919D01*
X191281Y8587D01*
X191867Y8471D01*
X196047D01*
Y6047D01*
X203953D01*
Y13231D01*
X204415Y13422D01*
X206341Y11496D01*
X206149Y11032D01*
X206013Y10000D01*
X206149Y8968D01*
X206547Y8007D01*
X207181Y7181D01*
X208007Y6547D01*
X208968Y6149D01*
X210000Y6013D01*
X211032Y6149D01*
X211993Y6547D01*
X212819Y7181D01*
X213453Y8007D01*
X213851Y8968D01*
X213987Y10000D01*
X213851Y11032D01*
X213453Y11993D01*
X212819Y12819D01*
X211993Y13453D01*
X211032Y13851D01*
X210000Y13987D01*
X208968Y13851D01*
X208504Y13659D01*
X195120Y27043D01*
X195311Y27505D01*
X195362D01*
Y34229D01*
D02*
G37*
G36*
X170500Y13921D02*
Y10500D01*
X173921D01*
X173851Y11032D01*
X173453Y11993D01*
X172819Y12819D01*
X171993Y13453D01*
X171032Y13851D01*
X170500Y13921D01*
D02*
G37*
G36*
X169500D02*
X168968Y13851D01*
X168007Y13453D01*
X167181Y12819D01*
X166547Y11993D01*
X166149Y11032D01*
X166079Y10500D01*
X169500D01*
Y13921D01*
D02*
G37*
G36*
X160500D02*
Y10500D01*
X163921D01*
X163851Y11032D01*
X163453Y11993D01*
X162819Y12819D01*
X161993Y13453D01*
X161032Y13851D01*
X160500Y13921D01*
D02*
G37*
G36*
X159500D02*
X158968Y13851D01*
X158007Y13453D01*
X157181Y12819D01*
X156547Y11993D01*
X156149Y11032D01*
X156079Y10500D01*
X159500D01*
Y13921D01*
D02*
G37*
G36*
X76295Y12000D02*
X72843D01*
Y9138D01*
X76295D01*
Y12000D01*
D02*
G37*
G36*
X71842D02*
X68390D01*
Y9138D01*
X71842D01*
Y12000D01*
D02*
G37*
G36*
X173921Y9500D02*
X170500D01*
Y6079D01*
X171032Y6149D01*
X171993Y6547D01*
X172819Y7181D01*
X173453Y8007D01*
X173851Y8968D01*
X173921Y9500D01*
D02*
G37*
G36*
X169500D02*
X166079D01*
X166149Y8968D01*
X166547Y8007D01*
X167181Y7181D01*
X168007Y6547D01*
X168968Y6149D01*
X169500Y6079D01*
Y9500D01*
D02*
G37*
G36*
X163921D02*
X160500D01*
Y6079D01*
X161032Y6149D01*
X161993Y6547D01*
X162819Y7181D01*
X163453Y8007D01*
X163851Y8968D01*
X163921Y9500D01*
D02*
G37*
G36*
X159500D02*
X156079D01*
X156149Y8968D01*
X156547Y8007D01*
X157181Y7181D01*
X158007Y6547D01*
X158968Y6149D01*
X159500Y6079D01*
Y9500D01*
D02*
G37*
G36*
X240000Y13987D02*
X238968Y13851D01*
X238007Y13453D01*
X237181Y12819D01*
X236547Y11993D01*
X236149Y11032D01*
X236013Y10000D01*
X236149Y8968D01*
X236547Y8007D01*
X237181Y7181D01*
X238007Y6547D01*
X238968Y6149D01*
X240000Y6013D01*
X241032Y6149D01*
X241993Y6547D01*
X242819Y7181D01*
X243453Y8007D01*
X243851Y8968D01*
X243987Y10000D01*
X243851Y11032D01*
X243453Y11993D01*
X242819Y12819D01*
X241993Y13453D01*
X241032Y13851D01*
X240000Y13987D01*
D02*
G37*
G36*
X215362Y34229D02*
X208637D01*
Y27505D01*
X210470D01*
Y18001D01*
X210586Y17415D01*
X210918Y16919D01*
X216341Y11496D01*
X216149Y11032D01*
X216013Y10000D01*
X216149Y8968D01*
X216547Y8007D01*
X217181Y7181D01*
X218007Y6547D01*
X218968Y6149D01*
X220000Y6013D01*
X221032Y6149D01*
X221993Y6547D01*
X222819Y7181D01*
X223453Y8007D01*
X223851Y8968D01*
X223987Y10000D01*
X223851Y11032D01*
X223453Y11993D01*
X222819Y12819D01*
X221993Y13453D01*
X221032Y13851D01*
X220000Y13987D01*
X218968Y13851D01*
X218504Y13659D01*
X213529Y18634D01*
Y27505D01*
X215362D01*
Y34229D01*
D02*
G37*
G36*
X180000Y13987D02*
X178968Y13851D01*
X178007Y13453D01*
X177181Y12819D01*
X176547Y11993D01*
X176149Y11032D01*
X176013Y10000D01*
X176149Y8968D01*
X176547Y8007D01*
X177181Y7181D01*
X178007Y6547D01*
X178968Y6149D01*
X180000Y6013D01*
X181032Y6149D01*
X181993Y6547D01*
X182819Y7181D01*
X183453Y8007D01*
X183851Y8968D01*
X183987Y10000D01*
X183851Y11032D01*
X183453Y11993D01*
X182819Y12819D01*
X181993Y13453D01*
X181032Y13851D01*
X180000Y13987D01*
D02*
G37*
G36*
X150000D02*
X148968Y13851D01*
X148007Y13453D01*
X147181Y12819D01*
X146547Y11993D01*
X146149Y11032D01*
X146013Y10000D01*
X146149Y8968D01*
X146547Y8007D01*
X147181Y7181D01*
X148007Y6547D01*
X148968Y6149D01*
X150000Y6013D01*
X151032Y6149D01*
X151993Y6547D01*
X152819Y7181D01*
X153453Y8007D01*
X153851Y8968D01*
X153987Y10000D01*
X153851Y11032D01*
X153453Y11993D01*
X152819Y12819D01*
X151993Y13453D01*
X151032Y13851D01*
X150000Y13987D01*
D02*
G37*
%LPD*%
G36*
X129000Y171684D02*
Y169750D01*
X130971D01*
Y168250D01*
X129000D01*
Y159750D01*
X130971D01*
Y158133D01*
X128323Y155486D01*
X124976D01*
X124709Y155986D01*
X124869Y156226D01*
X125023Y157000D01*
X124869Y157774D01*
X124431Y158431D01*
X123774Y158869D01*
X123395Y158944D01*
X123290Y159475D01*
X123431Y159569D01*
X123869Y160226D01*
X124023Y161000D01*
X123869Y161774D01*
X123431Y162431D01*
X122774Y162869D01*
X122000Y163023D01*
X121226Y162869D01*
X120569Y162431D01*
X120131Y161774D01*
X120012Y161174D01*
X119441Y160604D01*
X117920D01*
X117729Y161066D01*
X128538Y171875D01*
X129000Y171684D01*
D02*
G37*
D10*
X182500Y87000D02*
D03*
Y78000D02*
D03*
X177000Y164500D02*
D03*
Y155500D02*
D03*
Y135500D02*
D03*
Y144500D02*
D03*
X47000Y197500D02*
D03*
Y188500D02*
D03*
X9000Y164500D02*
D03*
Y173500D02*
D03*
X115000Y16500D02*
D03*
Y8500D02*
D03*
X245000Y39000D02*
D03*
Y31000D02*
D03*
X223000Y39000D02*
D03*
Y31000D02*
D03*
X202000Y39000D02*
D03*
Y31000D02*
D03*
X182000D02*
D03*
Y39000D02*
D03*
D11*
X56000Y149000D02*
D03*
X64000D02*
D03*
X56000Y139000D02*
D03*
X64000D02*
D03*
X107000Y42500D02*
D03*
X98000D02*
D03*
X106500Y72000D02*
D03*
X97500D02*
D03*
X176000Y107500D02*
D03*
X184000D02*
D03*
X132500Y128000D02*
D03*
X141500D02*
D03*
X132500Y139000D02*
D03*
X141500D02*
D03*
X132500Y164000D02*
D03*
X141500D02*
D03*
X132500Y174000D02*
D03*
X141500D02*
D03*
X176000Y97500D02*
D03*
X184000D02*
D03*
X176000Y67500D02*
D03*
X184000D02*
D03*
X176000Y57500D02*
D03*
X184000D02*
D03*
X64000Y130000D02*
D03*
X56000D02*
D03*
X64500Y159000D02*
D03*
X55500D02*
D03*
X98500Y52500D02*
D03*
X106500D02*
D03*
X98500Y62500D02*
D03*
X106500D02*
D03*
Y92500D02*
D03*
X98500D02*
D03*
X106500Y82500D02*
D03*
X98500D02*
D03*
X30000Y18000D02*
D03*
X38000D02*
D03*
X107000Y32500D02*
D03*
X98000D02*
D03*
X92000Y188000D02*
D03*
X84000D02*
D03*
X66000D02*
D03*
X74000D02*
D03*
X102474Y111637D02*
D03*
X93474D02*
D03*
X19000Y17500D02*
D03*
X11000D02*
D03*
X204000Y177500D02*
D03*
X196000D02*
D03*
X234500Y162500D02*
D03*
X225500D02*
D03*
X234500Y132500D02*
D03*
X225500D02*
D03*
X204000Y147500D02*
D03*
X196000D02*
D03*
X73500Y99000D02*
D03*
X64500D02*
D03*
X73500Y109000D02*
D03*
X64500D02*
D03*
X30500Y131000D02*
D03*
X21500D02*
D03*
D12*
X24000Y169000D02*
D03*
D13*
X18685Y165063D02*
D03*
Y169000D02*
D03*
Y172937D02*
D03*
X29315D02*
D03*
Y169000D02*
D03*
Y165063D02*
D03*
D14*
X72342Y12500D02*
D03*
X102657D02*
D03*
X245158Y177500D02*
D03*
X214843D02*
D03*
X245158Y147500D02*
D03*
X214843D02*
D03*
D15*
X14551Y198500D02*
D03*
Y193500D02*
D03*
Y188500D02*
D03*
Y183500D02*
D03*
X33449Y198500D02*
D03*
Y193500D02*
D03*
Y188500D02*
D03*
Y183500D02*
D03*
D16*
X212008Y109843D02*
D03*
D17*
X249016Y116929D02*
D03*
Y55905D02*
D03*
D18*
X211221D02*
D03*
D19*
X208661Y61024D02*
D03*
Y65354D02*
D03*
Y69685D02*
D03*
Y74016D02*
D03*
Y78347D02*
D03*
Y82677D02*
D03*
Y87008D02*
D03*
Y91339D02*
D03*
Y95669D02*
D03*
D20*
X111772Y128366D02*
D03*
Y130925D02*
D03*
Y133484D02*
D03*
Y136043D02*
D03*
Y138602D02*
D03*
Y141161D02*
D03*
Y143720D02*
D03*
Y146280D02*
D03*
Y148839D02*
D03*
Y151398D02*
D03*
Y153957D02*
D03*
Y156516D02*
D03*
Y159075D02*
D03*
Y161634D02*
D03*
X83228Y128366D02*
D03*
Y130925D02*
D03*
Y133484D02*
D03*
Y136043D02*
D03*
Y138602D02*
D03*
Y141161D02*
D03*
Y143720D02*
D03*
Y146280D02*
D03*
Y148839D02*
D03*
Y151398D02*
D03*
Y153957D02*
D03*
Y156516D02*
D03*
Y159075D02*
D03*
Y161634D02*
D03*
D21*
X99055Y102500D02*
D03*
X105945D02*
D03*
D22*
X233999Y30867D02*
D03*
Y39135D02*
D03*
X191999Y30867D02*
D03*
Y39135D02*
D03*
X211999Y30867D02*
D03*
Y39135D02*
D03*
X170999Y30867D02*
D03*
Y39135D02*
D03*
D23*
X25000Y147000D02*
D03*
D24*
X17126Y151724D02*
D03*
Y148575D02*
D03*
Y145425D02*
D03*
Y142276D02*
D03*
X32874Y151724D02*
D03*
Y148575D02*
D03*
Y145425D02*
D03*
Y142276D02*
D03*
D25*
X49000Y107937D02*
D03*
Y100063D02*
D03*
D26*
X21441Y104000D02*
D03*
D27*
X49000Y100063D02*
X63437D01*
X49000Y107937D02*
X64000D01*
X43937Y100063D02*
X49000D01*
X40000Y104000D02*
X43937Y100063D01*
X40000Y104000D02*
Y139000D01*
X36724Y142276D02*
X40000Y139000D01*
X32874Y142276D02*
X36724D01*
X49000Y107937D02*
Y135000D01*
X38575Y145425D02*
X49000Y135000D01*
X32874Y145425D02*
X38575D01*
X196185Y69685D02*
X208661D01*
X102657Y12500D02*
X106658Y8500D01*
X115000D01*
X116500Y10000D01*
X130000D01*
X102657Y12500D02*
X107000Y16842D01*
Y32500D01*
X115000Y16500D02*
X133500D01*
X140000Y10000D01*
X70000Y75000D02*
X87500Y92500D01*
X98500D01*
X105945Y93055D02*
Y102500D01*
X80000Y70000D02*
X92500Y82500D01*
X98500D01*
X106500D02*
Y92500D01*
X70000Y65000D02*
X96000D01*
X98500Y62500D01*
X80000Y50000D02*
X82500Y52500D01*
X98500D01*
X106500D02*
Y62500D01*
Y43000D02*
Y52500D01*
X19000Y34709D02*
X25709Y41417D01*
X19000Y17500D02*
Y34709D01*
X150898Y151398D02*
X159500Y160000D01*
X164000Y164500D01*
X177000D01*
X151449Y148839D02*
X159500Y140787D01*
X164787Y135500D01*
X177000D01*
X119328Y192500D02*
X126500D01*
X134000Y200000D01*
X111772Y161634D02*
X116134D01*
X111772Y151398D02*
X150898D01*
X111772Y148839D02*
X151449D01*
X111772Y141161D02*
X130339D01*
X111772Y138602D02*
X121398D01*
X132000Y128000D01*
X132500D01*
X116134Y161634D02*
X128500Y174000D01*
X132500D01*
X83228Y148839D02*
X91339D01*
X83228Y146280D02*
X91608D01*
X83228Y143720D02*
X92721D01*
X97000Y148000D01*
X91608Y146280D02*
X99000Y153672D01*
Y172172D01*
X119328Y192500D01*
X91339Y148839D02*
X97000Y154500D01*
Y173000D01*
X124000Y200000D01*
X83228Y141161D02*
X93675D01*
X101000Y148487D01*
Y171000D01*
X118000Y188000D01*
X132000D01*
X144000Y200000D01*
X83228Y153957D02*
X89957D01*
X95000Y159000D01*
Y174000D01*
X118453Y197453D01*
Y201453D01*
X122000Y205000D01*
X149000D01*
X154000Y200000D01*
X83228Y138602D02*
X94602D01*
X103000Y147000D01*
Y170000D01*
X119000Y186000D01*
X150000D01*
X164000Y200000D01*
X64000Y128000D02*
X64366Y128366D01*
X83228D01*
X64000Y138776D02*
Y139000D01*
Y138776D02*
X83055D01*
X83055Y141335D02*
X83228Y141161D01*
X64000Y149000D02*
X68000D01*
X75665Y141335D01*
X83055D01*
X64500Y159000D02*
X67134Y161634D01*
X83228D01*
X111772Y130925D02*
X117075D01*
X120000Y128000D01*
Y85000D02*
Y128000D01*
X111772Y133484D02*
X118516D01*
X123000Y129000D01*
Y90000D02*
Y129000D01*
X106500Y82500D02*
X116500D01*
X120000Y79000D01*
Y77000D02*
Y79000D01*
X83228Y130925D02*
X83303Y131000D01*
X14551Y183500D02*
Y198500D01*
X84000Y188000D02*
Y200000D01*
X74000Y188000D02*
Y200000D01*
X161555Y87500D02*
X182000D01*
X184000Y97500D02*
X194500D01*
X195000Y97000D01*
X184000Y67500D02*
X194750Y78250D01*
X195000Y78347D02*
X208661D01*
X184000Y57500D02*
X195750Y69250D01*
X92000Y180000D02*
Y188000D01*
X87000Y175000D02*
X92000Y180000D01*
X126500D02*
X132500Y174000D01*
Y164000D02*
Y174000D01*
X184000Y107500D02*
X184500Y108000D01*
X195000D01*
X182500Y87000D02*
X190000D01*
X194323Y82677D01*
X208661D01*
X92000Y188000D02*
X94000Y190000D01*
Y200000D01*
X106500Y72000D02*
Y82500D01*
X176000Y97500D02*
Y107500D01*
Y93500D02*
Y97500D01*
Y93500D02*
X182000Y87500D01*
X182500Y87000D01*
X176000Y57500D02*
Y67500D01*
Y82000D01*
X181000Y87000D01*
X182500D01*
X98555Y103000D02*
X99055Y102500D01*
X90000Y103000D02*
X98555D01*
X204000Y177500D02*
X214843D01*
X204000D02*
Y181500D01*
X212500Y190000D01*
X220000D01*
X230000Y200000D01*
X225500Y162500D02*
Y166842D01*
X214843Y177500D02*
X225500Y166842D01*
Y132500D02*
Y136843D01*
X214843Y147500D02*
X225500Y136843D01*
X204000Y147500D02*
X214843D01*
X204000D02*
Y156500D01*
X205000Y157500D01*
X161555Y87500D02*
Y106555D01*
X196000Y141000D01*
Y147500D01*
Y177500D01*
X195000Y92500D02*
Y97000D01*
Y92500D02*
X200492Y87008D01*
X208661D01*
X203661Y91339D02*
X208661D01*
X200471Y94529D02*
X203661Y91339D01*
X200471Y94529D02*
Y102529D01*
X195000Y108000D02*
X200471Y102529D01*
X230000Y10000D02*
X233999Y13999D01*
Y30867D01*
Y39135D02*
X243865D01*
X211999Y18001D02*
X220000Y10000D01*
X211999Y18001D02*
Y30867D01*
Y39135D02*
X222865D01*
X191999Y28001D02*
X210000Y10000D01*
X191999Y28001D02*
Y30867D01*
Y39135D02*
X201865D01*
X191867Y10000D02*
X200000D01*
X170999Y30867D02*
X191867Y10000D01*
X170999Y39135D02*
X181865D01*
X30000Y18000D02*
Y24000D01*
X33000Y27000D01*
Y66291D01*
X25709Y73583D02*
X33000Y66291D01*
X83228Y133484D02*
X101516D01*
X83228Y130925D02*
X97075D01*
X100000Y128000D01*
X66000Y180000D02*
Y188000D01*
X33449Y198500D02*
X46000D01*
X33449Y188500D02*
X37500D01*
X49000Y177000D01*
X70000D01*
X74000Y181000D01*
Y188000D01*
X33449Y183500D02*
X38500D01*
X47000Y175000D01*
X76000D01*
X84000Y183000D01*
Y188000D01*
X60000D02*
X66000D01*
X50500Y197500D02*
X60000Y188000D01*
X47000Y197500D02*
X50500D01*
X29315Y165063D02*
X32063D01*
X33449Y166449D01*
Y183500D01*
X24000Y169000D02*
X29315D01*
X18685Y162315D02*
Y165063D01*
Y162315D02*
X20000Y161000D01*
X32000D01*
X38000Y167000D01*
Y179000D01*
X26000Y189000D02*
X26500Y188500D01*
X33449D01*
X47000D02*
X51500D01*
X55000Y185000D01*
X29724Y151724D02*
X32874D01*
X17126Y135374D02*
X21500Y131000D01*
X17126Y135374D02*
Y142276D01*
X30500Y131000D02*
Y135500D01*
X25000Y141000D02*
X30500Y135500D01*
X25000Y141000D02*
Y147000D01*
X10276Y151724D02*
X17126D01*
X10000Y152000D02*
X10276Y151724D01*
X26000Y183000D02*
X26500Y183500D01*
X33449D01*
X10425Y148575D02*
X17126D01*
X10000Y149000D02*
X10425Y148575D01*
X32874D02*
X43425D01*
X111772Y153957D02*
X128957D01*
X132500Y157500D01*
Y164000D01*
X122516Y156516D02*
X123000Y157000D01*
X111772Y156516D02*
X122516D01*
X101516Y133484D02*
X102487Y132513D01*
Y132000D02*
Y132513D01*
X111772Y159075D02*
X120075D01*
X122000Y161000D01*
X10000Y145000D02*
X10425Y145425D01*
X17126D01*
X9000Y173500D02*
X13500Y169000D01*
X18685D01*
X21500Y122500D02*
Y131000D01*
X21000Y122000D02*
X21500Y122500D01*
X49000Y150000D02*
X50000Y149000D01*
X56000D01*
X102500Y111637D02*
Y112500D01*
X111772Y121772D01*
Y128366D01*
X99055Y102500D02*
X101000Y104445D01*
Y112500D01*
X102500Y114000D01*
D28*
X140000Y10000D02*
Y65945D01*
X161555Y87500D01*
X132500Y116555D02*
X161555Y87500D01*
X132500Y128000D02*
Y139000D01*
X56000D02*
Y149000D01*
X132500Y117000D02*
Y128000D01*
X39000Y203000D02*
X44000D01*
X47000Y200000D01*
Y197500D02*
Y200000D01*
X6000Y176500D02*
Y183000D01*
Y176500D02*
X9000Y173500D01*
X10000Y131000D02*
X21500D01*
D29*
X240000Y10000D02*
D03*
X210000D02*
D03*
X220000D02*
D03*
X230000D02*
D03*
X250000D02*
D03*
X190000Y200000D02*
D03*
X200000D02*
D03*
X220000D02*
D03*
X230000D02*
D03*
X240000D02*
D03*
X210000D02*
D03*
X180000D02*
D03*
X104000D02*
D03*
X114000D02*
D03*
X134000D02*
D03*
X144000D02*
D03*
X154000D02*
D03*
X124000D02*
D03*
X94000D02*
D03*
X84000D02*
D03*
X74000D02*
D03*
X170000Y10000D02*
D03*
X140000D02*
D03*
X150000D02*
D03*
X160000D02*
D03*
X180000D02*
D03*
D30*
X200000D02*
D03*
X250000Y200000D02*
D03*
X164000D02*
D03*
X130000Y10000D02*
D03*
D31*
X55000D02*
D03*
X60000Y200000D02*
D03*
X260000Y30000D02*
D03*
Y140000D02*
D03*
D32*
X57008Y27008D02*
D03*
Y87992D02*
D03*
D33*
X80000Y40000D02*
D03*
X70000Y45000D02*
D03*
X80000Y50000D02*
D03*
X70000Y55000D02*
D03*
X80000Y60000D02*
D03*
X70000Y65000D02*
D03*
X80000Y70000D02*
D03*
X70000Y75000D02*
D03*
D34*
X25709Y83583D02*
D03*
Y73583D02*
D03*
Y41417D02*
D03*
Y31417D02*
D03*
D35*
X45000Y80000D02*
D03*
Y35000D02*
D03*
D36*
X250590Y98425D02*
D03*
Y66929D02*
D03*
X98779Y121000D02*
D03*
D37*
X159500Y140787D02*
D03*
Y160000D02*
D03*
D38*
X69252Y121000D02*
D03*
D39*
X155000Y105000D02*
D03*
Y115000D02*
D03*
Y125000D02*
D03*
X10000Y115000D02*
D03*
X205000Y130000D02*
D03*
X30000Y120000D02*
D03*
X75000Y170000D02*
D03*
X45000Y165000D02*
D03*
X185000Y180000D02*
D03*
X175000D02*
D03*
X165000D02*
D03*
X130000Y90000D02*
D03*
Y80000D02*
D03*
Y70000D02*
D03*
Y60000D02*
D03*
Y50000D02*
D03*
X161555Y87500D02*
D03*
D40*
X97000Y148000D02*
D03*
X120000Y85000D02*
D03*
X123000Y90000D02*
D03*
X120000Y77000D02*
D03*
X195000Y97000D02*
D03*
X87000Y175000D02*
D03*
X126500Y180000D02*
D03*
X132500Y116555D02*
D03*
X195000Y108000D02*
D03*
X196185Y69685D02*
D03*
X195000Y78347D02*
D03*
X90000Y103000D02*
D03*
X205000Y157500D02*
D03*
X23031Y150937D02*
D03*
X26969D02*
D03*
X23031Y147000D02*
D03*
X26969D02*
D03*
X23031Y143063D02*
D03*
X26969D02*
D03*
X100000Y128000D02*
D03*
X66000Y180000D02*
D03*
X38000Y179000D02*
D03*
X26000Y189000D02*
D03*
X55000Y185000D02*
D03*
X10000Y152000D02*
D03*
X26000Y183000D02*
D03*
X10000Y149000D02*
D03*
X43425Y148575D02*
D03*
X123000Y157000D02*
D03*
X122000Y161000D02*
D03*
X102487Y132000D02*
D03*
X39000Y203000D02*
D03*
X6000Y183000D02*
D03*
X10000Y131000D02*
D03*
Y145000D02*
D03*
X21000Y122000D02*
D03*
X49000Y150000D02*
D03*
M02*
