G04 Layer_Color=8388736*
%FSLAX25Y25*%
%MOIN*%
G70*
G01*
G75*
%ADD50R,0.07300X0.05800*%
%ADD51R,0.05800X0.07300*%
%ADD52R,0.06706X0.10249*%
%ADD53R,0.03162X0.02375*%
%ADD54R,0.06706X0.05524*%
%ADD55O,0.09461X0.03162*%
%ADD56R,0.06312X0.07099*%
%ADD57R,0.09461X0.05524*%
%ADD58R,0.06312X0.05524*%
%ADD59R,0.05918X0.03556*%
%ADD60R,0.07690X0.02572*%
%ADD61R,0.05721X0.08083*%
%ADD62R,0.05524X0.05524*%
%ADD63R,0.10052X0.13595*%
%ADD64R,0.04540X0.02178*%
%ADD65R,0.12611X0.04737*%
%ADD66R,0.32296X0.12611*%
%ADD67C,0.06706*%
%ADD68R,0.06706X0.06706*%
%ADD69C,0.13300*%
%ADD70C,0.10367*%
%ADD71C,0.07493*%
%ADD72C,0.07965*%
%ADD73C,0.14383*%
%ADD74C,0.04737*%
%ADD75C,0.08674*%
%ADD76C,0.05918*%
%ADD77C,0.05800*%
%ADD78C,0.02769*%
D50*
X182500Y87000D02*
D03*
Y78000D02*
D03*
X177000Y164500D02*
D03*
Y155500D02*
D03*
Y135500D02*
D03*
Y144500D02*
D03*
X47000Y197500D02*
D03*
Y188500D02*
D03*
X9000Y164500D02*
D03*
Y173500D02*
D03*
X115000Y16500D02*
D03*
Y8500D02*
D03*
X245000Y39000D02*
D03*
Y31000D02*
D03*
X223000Y39000D02*
D03*
Y31000D02*
D03*
X202000Y39000D02*
D03*
Y31000D02*
D03*
X182000D02*
D03*
Y39000D02*
D03*
D51*
X56000Y149000D02*
D03*
X64000D02*
D03*
X56000Y139000D02*
D03*
X64000D02*
D03*
X107000Y42500D02*
D03*
X98000D02*
D03*
X106500Y72000D02*
D03*
X97500D02*
D03*
X176000Y107500D02*
D03*
X184000D02*
D03*
X132500Y128000D02*
D03*
X141500D02*
D03*
X132500Y139000D02*
D03*
X141500D02*
D03*
X132500Y164000D02*
D03*
X141500D02*
D03*
X132500Y174000D02*
D03*
X141500D02*
D03*
X176000Y97500D02*
D03*
X184000D02*
D03*
X176000Y67500D02*
D03*
X184000D02*
D03*
X176000Y57500D02*
D03*
X184000D02*
D03*
X64000Y130000D02*
D03*
X56000D02*
D03*
X64500Y159000D02*
D03*
X55500D02*
D03*
X98500Y52500D02*
D03*
X106500D02*
D03*
X98500Y62500D02*
D03*
X106500D02*
D03*
Y92500D02*
D03*
X98500D02*
D03*
X106500Y82500D02*
D03*
X98500D02*
D03*
X30000Y18000D02*
D03*
X38000D02*
D03*
X107000Y32500D02*
D03*
X98000D02*
D03*
X92000Y188000D02*
D03*
X84000D02*
D03*
X66000D02*
D03*
X74000D02*
D03*
X102474Y111637D02*
D03*
X93474D02*
D03*
X19000Y17500D02*
D03*
X11000D02*
D03*
X204000Y177500D02*
D03*
X196000D02*
D03*
X234500Y162500D02*
D03*
X225500D02*
D03*
X234500Y132500D02*
D03*
X225500D02*
D03*
X204000Y147500D02*
D03*
X196000D02*
D03*
X73500Y99000D02*
D03*
X64500D02*
D03*
X73500Y109000D02*
D03*
X64500D02*
D03*
X30500Y131000D02*
D03*
X21500D02*
D03*
D52*
X24000Y169000D02*
D03*
D53*
X18685Y165063D02*
D03*
Y169000D02*
D03*
Y172937D02*
D03*
X29315D02*
D03*
Y169000D02*
D03*
Y165063D02*
D03*
D54*
X72342Y12500D02*
D03*
X102657D02*
D03*
X245158Y177500D02*
D03*
X214843D02*
D03*
X245158Y147500D02*
D03*
X214843D02*
D03*
D55*
X14551Y198500D02*
D03*
Y193500D02*
D03*
Y188500D02*
D03*
Y183500D02*
D03*
X33449Y198500D02*
D03*
Y193500D02*
D03*
Y188500D02*
D03*
Y183500D02*
D03*
D56*
X212008Y109843D02*
D03*
D57*
X249016Y116929D02*
D03*
Y55905D02*
D03*
D58*
X211221D02*
D03*
D59*
X208661Y61024D02*
D03*
Y65354D02*
D03*
Y69685D02*
D03*
Y74016D02*
D03*
Y78347D02*
D03*
Y82677D02*
D03*
Y87008D02*
D03*
Y91339D02*
D03*
Y95669D02*
D03*
D60*
X111772Y128366D02*
D03*
Y130925D02*
D03*
Y133484D02*
D03*
Y136043D02*
D03*
Y138602D02*
D03*
Y141161D02*
D03*
Y143720D02*
D03*
Y146280D02*
D03*
Y148839D02*
D03*
Y151398D02*
D03*
Y153957D02*
D03*
Y156516D02*
D03*
Y159075D02*
D03*
Y161634D02*
D03*
X83228Y128366D02*
D03*
Y130925D02*
D03*
Y133484D02*
D03*
Y136043D02*
D03*
Y138602D02*
D03*
Y141161D02*
D03*
Y143720D02*
D03*
Y146280D02*
D03*
Y148839D02*
D03*
Y151398D02*
D03*
Y153957D02*
D03*
Y156516D02*
D03*
Y159075D02*
D03*
Y161634D02*
D03*
D61*
X99055Y102500D02*
D03*
X105945D02*
D03*
D62*
X233999Y30867D02*
D03*
Y39135D02*
D03*
X191999Y30867D02*
D03*
Y39135D02*
D03*
X211999Y30867D02*
D03*
Y39135D02*
D03*
X170999Y30867D02*
D03*
Y39135D02*
D03*
D63*
X25000Y147000D02*
D03*
D64*
X17126Y151724D02*
D03*
Y148575D02*
D03*
Y145425D02*
D03*
Y142276D02*
D03*
X32874Y151724D02*
D03*
Y148575D02*
D03*
Y145425D02*
D03*
Y142276D02*
D03*
D65*
X49000Y107937D02*
D03*
Y100063D02*
D03*
D66*
X21441Y104000D02*
D03*
D67*
X240000Y10000D02*
D03*
X210000D02*
D03*
X220000D02*
D03*
X230000D02*
D03*
X250000D02*
D03*
X190000Y200000D02*
D03*
X200000D02*
D03*
X220000D02*
D03*
X230000D02*
D03*
X240000D02*
D03*
X210000D02*
D03*
X180000D02*
D03*
X104000D02*
D03*
X114000D02*
D03*
X134000D02*
D03*
X144000D02*
D03*
X154000D02*
D03*
X124000D02*
D03*
X94000D02*
D03*
X84000D02*
D03*
X74000D02*
D03*
X170000Y10000D02*
D03*
X140000D02*
D03*
X150000D02*
D03*
X160000D02*
D03*
X180000D02*
D03*
D68*
X200000D02*
D03*
X250000Y200000D02*
D03*
X164000D02*
D03*
X130000Y10000D02*
D03*
D69*
X55000D02*
D03*
X60000Y200000D02*
D03*
X260000Y30000D02*
D03*
Y140000D02*
D03*
D70*
X57008Y27008D02*
D03*
Y87992D02*
D03*
D71*
X80000Y40000D02*
D03*
X70000Y45000D02*
D03*
X80000Y50000D02*
D03*
X70000Y55000D02*
D03*
X80000Y60000D02*
D03*
X70000Y65000D02*
D03*
X80000Y70000D02*
D03*
X70000Y75000D02*
D03*
D72*
X25709Y83583D02*
D03*
Y73583D02*
D03*
Y41417D02*
D03*
Y31417D02*
D03*
D73*
X45000Y80000D02*
D03*
Y35000D02*
D03*
D74*
X250590Y98425D02*
D03*
Y66929D02*
D03*
X98779Y121000D02*
D03*
D75*
X159500Y140787D02*
D03*
Y160000D02*
D03*
D76*
X69252Y121000D02*
D03*
D77*
X155000Y105000D02*
D03*
Y115000D02*
D03*
Y125000D02*
D03*
X10000Y115000D02*
D03*
X205000Y130000D02*
D03*
X30000Y120000D02*
D03*
X75000Y170000D02*
D03*
X45000Y165000D02*
D03*
X185000Y180000D02*
D03*
X175000D02*
D03*
X165000D02*
D03*
X130000Y90000D02*
D03*
Y80000D02*
D03*
Y70000D02*
D03*
Y60000D02*
D03*
Y50000D02*
D03*
X161555Y87500D02*
D03*
D78*
X97000Y148000D02*
D03*
X120000Y85000D02*
D03*
X123000Y90000D02*
D03*
X120000Y77000D02*
D03*
X195000Y97000D02*
D03*
X87000Y175000D02*
D03*
X126500Y180000D02*
D03*
X132500Y116555D02*
D03*
X195000Y108000D02*
D03*
X196185Y69685D02*
D03*
X195000Y78347D02*
D03*
X90000Y103000D02*
D03*
X205000Y157500D02*
D03*
X23031Y150937D02*
D03*
X26969D02*
D03*
X23031Y147000D02*
D03*
X26969D02*
D03*
X23031Y143063D02*
D03*
X26969D02*
D03*
X100000Y128000D02*
D03*
X66000Y180000D02*
D03*
X38000Y179000D02*
D03*
X26000Y189000D02*
D03*
X55000Y185000D02*
D03*
X10000Y152000D02*
D03*
X26000Y183000D02*
D03*
X10000Y149000D02*
D03*
X43425Y148575D02*
D03*
X123000Y157000D02*
D03*
X122000Y161000D02*
D03*
X102487Y132000D02*
D03*
X39000Y203000D02*
D03*
X6000Y183000D02*
D03*
X10000Y131000D02*
D03*
Y145000D02*
D03*
X21000Y122000D02*
D03*
X49000Y150000D02*
D03*
M02*
