G04 Layer_Color=8421504*
%FSLAX25Y25*%
%MOIN*%
G70*
G01*
G75*
%ADD10R,0.06500X0.05000*%
%ADD11R,0.05000X0.06500*%
%ADD12R,0.05906X0.09449*%
%ADD13R,0.02362X0.01575*%
%ADD14R,0.05906X0.04724*%
%ADD15O,0.08661X0.02362*%
%ADD16R,0.05512X0.06299*%
%ADD17R,0.08661X0.04724*%
%ADD18R,0.05512X0.04724*%
%ADD19R,0.05118X0.02756*%
%ADD20R,0.06890X0.01772*%
%ADD21R,0.04921X0.07284*%
%ADD22R,0.04724X0.04724*%
%ADD24R,0.03740X0.01378*%
%ADD25R,0.11811X0.03937*%
%ADD26R,0.31496X0.11811*%
%ADD48R,0.03504X0.05315*%
%ADD49R,0.00669X0.04213*%
D10*
X182500Y87000D02*
D03*
Y78000D02*
D03*
X177000Y164500D02*
D03*
Y155500D02*
D03*
Y135500D02*
D03*
Y144500D02*
D03*
X47000Y197500D02*
D03*
Y188500D02*
D03*
X9000Y164500D02*
D03*
Y173500D02*
D03*
X115000Y16500D02*
D03*
Y8500D02*
D03*
X245000Y39000D02*
D03*
Y31000D02*
D03*
X223000Y39000D02*
D03*
Y31000D02*
D03*
X202000Y39000D02*
D03*
Y31000D02*
D03*
X182000D02*
D03*
Y39000D02*
D03*
D11*
X56000Y149000D02*
D03*
X64000D02*
D03*
X56000Y139000D02*
D03*
X64000D02*
D03*
X107000Y42500D02*
D03*
X98000D02*
D03*
X106500Y72000D02*
D03*
X97500D02*
D03*
X176000Y107500D02*
D03*
X184000D02*
D03*
X132500Y128000D02*
D03*
X141500D02*
D03*
X132500Y139000D02*
D03*
X141500D02*
D03*
X132500Y164000D02*
D03*
X141500D02*
D03*
X132500Y174000D02*
D03*
X141500D02*
D03*
X176000Y97500D02*
D03*
X184000D02*
D03*
X176000Y67500D02*
D03*
X184000D02*
D03*
X176000Y57500D02*
D03*
X184000D02*
D03*
X64000Y130000D02*
D03*
X56000D02*
D03*
X64500Y159000D02*
D03*
X55500D02*
D03*
X98500Y52500D02*
D03*
X106500D02*
D03*
X98500Y62500D02*
D03*
X106500D02*
D03*
Y92500D02*
D03*
X98500D02*
D03*
X106500Y82500D02*
D03*
X98500D02*
D03*
X30000Y18000D02*
D03*
X38000D02*
D03*
X107000Y32500D02*
D03*
X98000D02*
D03*
X92000Y188000D02*
D03*
X84000D02*
D03*
X66000D02*
D03*
X74000D02*
D03*
X102474Y111637D02*
D03*
X93474D02*
D03*
X19000Y17500D02*
D03*
X11000D02*
D03*
X204000Y177500D02*
D03*
X196000D02*
D03*
X234500Y162500D02*
D03*
X225500D02*
D03*
X234500Y132500D02*
D03*
X225500D02*
D03*
X204000Y147500D02*
D03*
X196000D02*
D03*
X73500Y99000D02*
D03*
X64500D02*
D03*
X73500Y109000D02*
D03*
X64500D02*
D03*
X30500Y131000D02*
D03*
X21500D02*
D03*
D12*
X24000Y169000D02*
D03*
D13*
X18685Y165063D02*
D03*
Y169000D02*
D03*
Y172937D02*
D03*
X29315D02*
D03*
Y169000D02*
D03*
Y165063D02*
D03*
D14*
X72342Y12500D02*
D03*
X102657D02*
D03*
X245158Y177500D02*
D03*
X214843D02*
D03*
X245158Y147500D02*
D03*
X214843D02*
D03*
D15*
X14551Y198500D02*
D03*
Y193500D02*
D03*
Y188500D02*
D03*
Y183500D02*
D03*
X33449Y198500D02*
D03*
Y193500D02*
D03*
Y188500D02*
D03*
Y183500D02*
D03*
D16*
X212008Y109843D02*
D03*
D17*
X249016Y116929D02*
D03*
Y55905D02*
D03*
D18*
X211221D02*
D03*
D19*
X208661Y61024D02*
D03*
Y65354D02*
D03*
Y69685D02*
D03*
Y74016D02*
D03*
Y78347D02*
D03*
Y82677D02*
D03*
Y87008D02*
D03*
Y91339D02*
D03*
Y95669D02*
D03*
D20*
X111772Y128366D02*
D03*
Y130925D02*
D03*
Y133484D02*
D03*
Y136043D02*
D03*
Y138602D02*
D03*
Y141161D02*
D03*
Y143720D02*
D03*
Y146280D02*
D03*
Y148839D02*
D03*
Y151398D02*
D03*
Y153957D02*
D03*
Y156516D02*
D03*
Y159075D02*
D03*
Y161634D02*
D03*
X83228Y128366D02*
D03*
Y130925D02*
D03*
Y133484D02*
D03*
Y136043D02*
D03*
Y138602D02*
D03*
Y141161D02*
D03*
Y143720D02*
D03*
Y146280D02*
D03*
Y148839D02*
D03*
Y151398D02*
D03*
Y153957D02*
D03*
Y156516D02*
D03*
Y159075D02*
D03*
Y161634D02*
D03*
D21*
X99055Y102500D02*
D03*
X105945D02*
D03*
D22*
X233999Y30867D02*
D03*
Y39135D02*
D03*
X191999Y30867D02*
D03*
Y39135D02*
D03*
X211999Y30867D02*
D03*
Y39135D02*
D03*
X170999Y30867D02*
D03*
Y39135D02*
D03*
D24*
X17126Y151724D02*
D03*
Y148575D02*
D03*
Y145425D02*
D03*
Y142276D02*
D03*
X32874Y151724D02*
D03*
Y148575D02*
D03*
Y145425D02*
D03*
Y142276D02*
D03*
D25*
X49000Y107937D02*
D03*
Y100063D02*
D03*
D26*
X21441Y104000D02*
D03*
D48*
X22854Y150051D02*
D03*
Y143949D02*
D03*
X27146Y150051D02*
D03*
Y143949D02*
D03*
D49*
X25000Y147000D02*
D03*
M02*
