G04 Layer_Physical_Order=2*
G04 Layer_Color=16711680*
%FSLAX25Y25*%
%MOIN*%
G70*
G01*
G75*
%ADD27C,0.01000*%
%ADD28C,0.02000*%
%ADD29C,0.05906*%
%ADD30R,0.05906X0.05906*%
%ADD31C,0.12500*%
%ADD32C,0.09567*%
%ADD33C,0.06693*%
%ADD34C,0.07165*%
%ADD35C,0.13583*%
%ADD36C,0.03937*%
%ADD37C,0.07874*%
%ADD38C,0.05118*%
%ADD39C,0.05000*%
%ADD40C,0.01969*%
%ADD41R,0.14410X0.10236*%
%ADD42R,0.13937X0.10236*%
G36*
X246047Y196047D02*
X250000D01*
Y158000D01*
X260268Y147732D01*
X260054Y147280D01*
X260000Y147285D01*
X258579Y147145D01*
X257212Y146730D01*
X255953Y146057D01*
X254849Y145151D01*
X253943Y144047D01*
X253270Y142788D01*
X252855Y141421D01*
X252715Y140000D01*
X252855Y138579D01*
X253270Y137212D01*
X253943Y135953D01*
X254849Y134849D01*
X255953Y133943D01*
X257212Y133270D01*
X258579Y132855D01*
X260000Y132715D01*
X261421Y132855D01*
X262500Y133182D01*
X263000Y132846D01*
Y37154D01*
X262500Y36818D01*
X261421Y37145D01*
X260000Y37285D01*
X258579Y37145D01*
X257212Y36731D01*
X255953Y36057D01*
X254849Y35151D01*
X253943Y34047D01*
X253270Y32788D01*
X252855Y31421D01*
X252715Y30000D01*
X252855Y28579D01*
X253270Y27212D01*
X253943Y25953D01*
X254849Y24849D01*
X255953Y23943D01*
X257212Y23269D01*
X258579Y22855D01*
X260000Y22715D01*
X261421Y22855D01*
X262500Y23182D01*
X263000Y22846D01*
Y20000D01*
X254287Y11287D01*
X253697Y11404D01*
X253453Y11993D01*
X252819Y12819D01*
X251993Y13453D01*
X251032Y13851D01*
X250000Y13987D01*
X248968Y13851D01*
X248007Y13453D01*
X247181Y12819D01*
X246547Y11993D01*
X246149Y11032D01*
X246013Y10000D01*
X246149Y8968D01*
X246547Y8007D01*
X247181Y7181D01*
X248007Y6547D01*
X248596Y6303D01*
X248713Y5713D01*
X248000Y5000D01*
X60860D01*
X60646Y5452D01*
X61057Y5953D01*
X61730Y7212D01*
X62145Y8579D01*
X62285Y10000D01*
X62145Y11421D01*
X61730Y12788D01*
X61057Y14047D01*
X60151Y15151D01*
X59047Y16057D01*
X57788Y16730D01*
X56421Y17145D01*
X55000Y17285D01*
X53579Y17145D01*
X52212Y16730D01*
X50953Y16057D01*
X49849Y15151D01*
X48943Y14047D01*
X48270Y12788D01*
X47855Y11421D01*
X47715Y10000D01*
X47855Y8579D01*
X48270Y7212D01*
X48943Y5953D01*
X49354Y5452D01*
X49140Y5000D01*
X5000D01*
Y126184D01*
X5462Y126375D01*
X7919Y123919D01*
X8415Y123587D01*
X9000Y123471D01*
X13000D01*
X13585Y123587D01*
X14081Y123919D01*
X16081Y125919D01*
X16413Y126415D01*
X16529Y127000D01*
Y140000D01*
X16413Y140585D01*
X16081Y141081D01*
X11988Y145175D01*
X11869Y145774D01*
X11431Y146431D01*
X11016Y146708D01*
Y147292D01*
X11431Y147569D01*
X11803Y148127D01*
X39081Y175405D01*
X39413Y175901D01*
X39529Y176487D01*
Y177717D01*
X39869Y178226D01*
X40023Y179000D01*
X39869Y179774D01*
X39431Y180431D01*
X38774Y180869D01*
X38175Y180988D01*
X29081Y190081D01*
X28585Y190413D01*
X28000Y190529D01*
X27283D01*
X26774Y190869D01*
X26000Y191023D01*
X25226Y190869D01*
X24569Y190431D01*
X24131Y189774D01*
X23977Y189000D01*
X24131Y188226D01*
X24569Y187569D01*
X25226Y187131D01*
X26000Y186977D01*
X26774Y187131D01*
X27283Y187471D01*
X27367D01*
X36012Y178825D01*
X36131Y178226D01*
X36471Y177717D01*
Y177120D01*
X27991Y168641D01*
X27529Y168832D01*
Y181717D01*
X27869Y182226D01*
X28023Y183000D01*
X27869Y183774D01*
X27431Y184431D01*
X26774Y184869D01*
X26000Y185023D01*
X25226Y184869D01*
X24569Y184431D01*
X24131Y183774D01*
X23977Y183000D01*
X24131Y182226D01*
X24471Y181717D01*
Y168633D01*
X9826Y153988D01*
X9226Y153869D01*
X8569Y153431D01*
X8539Y153385D01*
X8039Y153537D01*
Y183000D01*
Y185155D01*
X23845Y200961D01*
X38155D01*
X44961Y194155D01*
Y179000D01*
X45116Y178220D01*
X45558Y177558D01*
X84558Y138558D01*
X85220Y138116D01*
X86000Y137961D01*
X97000D01*
X97113Y137983D01*
X97360Y137523D01*
X58367Y98529D01*
X39126D01*
X38541Y98413D01*
X38045Y98081D01*
X27687Y87724D01*
X26905Y88047D01*
X25709Y88205D01*
X24512Y88047D01*
X23398Y87586D01*
X22440Y86851D01*
X21706Y85894D01*
X21244Y84779D01*
X21086Y83583D01*
X21244Y82386D01*
X21706Y81272D01*
X22440Y80314D01*
X23398Y79580D01*
X24512Y79118D01*
X25709Y78961D01*
X26905Y79118D01*
X28020Y79580D01*
X28977Y80314D01*
X29712Y81272D01*
X30173Y82386D01*
X30331Y83583D01*
X30173Y84779D01*
X29850Y85561D01*
X32210Y87922D01*
X32599Y87603D01*
X32587Y87585D01*
X32471Y87000D01*
Y40342D01*
X27687Y35558D01*
X26905Y35882D01*
X25709Y36040D01*
X24512Y35882D01*
X23398Y35420D01*
X22440Y34686D01*
X21706Y33728D01*
X21244Y32614D01*
X21086Y31417D01*
X21244Y30221D01*
X21706Y29106D01*
X22440Y28149D01*
X23398Y27414D01*
X24512Y26953D01*
X25709Y26795D01*
X26905Y26953D01*
X28020Y27414D01*
X28977Y28149D01*
X29712Y29106D01*
X30173Y30221D01*
X30331Y31417D01*
X30173Y32614D01*
X29850Y33395D01*
X35081Y38627D01*
X35413Y39123D01*
X35529Y39709D01*
Y86366D01*
X42634Y93471D01*
X53899D01*
X53996Y92971D01*
X52883Y92117D01*
X51956Y90909D01*
X51373Y89502D01*
X51240Y88492D01*
X57008D01*
X62775D01*
X62643Y89502D01*
X62060Y90909D01*
X61133Y92117D01*
X60020Y92971D01*
X60117Y93471D01*
X60658D01*
X61244Y93587D01*
X61740Y93919D01*
X72009Y104188D01*
X72471Y103996D01*
Y93634D01*
X58919Y80081D01*
X58587Y79585D01*
X58471Y79000D01*
Y57000D01*
X58587Y56415D01*
X58919Y55919D01*
X65919Y48919D01*
X66415Y48587D01*
X66652Y48540D01*
X66747Y48372D01*
X66821Y47997D01*
X66203Y47192D01*
X65765Y46135D01*
X65682Y45500D01*
X70000D01*
X74318D01*
X74235Y46135D01*
X73797Y47192D01*
X73199Y47971D01*
X73382Y48471D01*
X75929D01*
X76203Y47808D01*
X76900Y46900D01*
X77808Y46203D01*
X78865Y45765D01*
X80000Y45616D01*
X81135Y45765D01*
X82192Y46203D01*
X83100Y46900D01*
X83797Y47808D01*
X84235Y48865D01*
X84384Y50000D01*
X84235Y51135D01*
X83797Y52192D01*
X83100Y53100D01*
X82192Y53797D01*
X81135Y54235D01*
X80000Y54384D01*
X78865Y54235D01*
X77808Y53797D01*
X76900Y53100D01*
X76203Y52192D01*
X75929Y51529D01*
X73382D01*
X73199Y52029D01*
X73797Y52808D01*
X74235Y53865D01*
X74384Y55000D01*
X74235Y56135D01*
X73797Y57192D01*
X73100Y58100D01*
X72192Y58797D01*
X71135Y59235D01*
X70000Y59384D01*
X68865Y59235D01*
X67808Y58797D01*
X66900Y58100D01*
X66203Y57192D01*
X65765Y56135D01*
X65616Y55000D01*
X65729Y54141D01*
X65256Y53907D01*
X61529Y57634D01*
Y78367D01*
X61971Y78808D01*
X62471Y78601D01*
Y71000D01*
X62587Y70415D01*
X62919Y69919D01*
X66040Y66797D01*
X65765Y66135D01*
X65616Y65000D01*
X65765Y63865D01*
X66203Y62808D01*
X66900Y61900D01*
X67808Y61203D01*
X68865Y60765D01*
X70000Y60616D01*
X71135Y60765D01*
X72192Y61203D01*
X73100Y61900D01*
X73797Y62808D01*
X74235Y63865D01*
X74384Y65000D01*
X74235Y66135D01*
X73797Y67192D01*
X73100Y68100D01*
X72192Y68797D01*
X71135Y69235D01*
X70000Y69384D01*
X68865Y69235D01*
X68203Y68960D01*
X65529Y71633D01*
Y73129D01*
X66029Y73228D01*
X66203Y72808D01*
X66900Y71900D01*
X67808Y71203D01*
X68865Y70765D01*
X70000Y70616D01*
X71135Y70765D01*
X72192Y71203D01*
X73100Y71900D01*
X73797Y72808D01*
X74235Y73865D01*
X74384Y75000D01*
X74235Y76135D01*
X73960Y76797D01*
X85633Y88471D01*
X121717D01*
X122226Y88131D01*
X123000Y87977D01*
X123774Y88131D01*
X124431Y88569D01*
X124869Y89226D01*
X125023Y90000D01*
X124869Y90774D01*
X124431Y91431D01*
X123774Y91869D01*
X123000Y92023D01*
X122226Y91869D01*
X121717Y91529D01*
X85000D01*
X84415Y91413D01*
X83919Y91081D01*
X71797Y78960D01*
X71135Y79235D01*
X70000Y79384D01*
X68865Y79235D01*
X67808Y78797D01*
X66900Y78100D01*
X66203Y77192D01*
X66029Y76772D01*
X65529Y76871D01*
Y78367D01*
X77081Y89919D01*
X77413Y90415D01*
X77529Y91000D01*
Y103538D01*
X95325Y121334D01*
X95799Y121100D01*
X95785Y121000D01*
X95887Y120225D01*
X96187Y119503D01*
X96662Y118883D01*
X97282Y118407D01*
X98005Y118108D01*
X98779Y118006D01*
X99555Y118108D01*
X100277Y118407D01*
X100897Y118883D01*
X101373Y119503D01*
X101672Y120225D01*
X101774Y121000D01*
X101672Y121775D01*
X101373Y122497D01*
X100897Y123117D01*
X100277Y123593D01*
X99555Y123892D01*
X98779Y123994D01*
X98679Y123981D01*
X98446Y124454D01*
X99973Y125982D01*
X100000Y125977D01*
X100774Y126131D01*
X101431Y126569D01*
X101869Y127226D01*
X102023Y128000D01*
X101869Y128774D01*
X101431Y129431D01*
X101214Y129576D01*
X101192Y130130D01*
X101460Y130299D01*
X101713Y130131D01*
X102487Y129977D01*
X103261Y130131D01*
X103917Y130569D01*
X104356Y131226D01*
X104510Y132000D01*
X104356Y132774D01*
X103917Y133431D01*
X103261Y133869D01*
X102541Y134012D01*
X102424Y134203D01*
X102321Y134500D01*
X122832Y155010D01*
X123000Y154977D01*
X123774Y155131D01*
X124431Y155569D01*
X124869Y156226D01*
X125023Y157000D01*
X124869Y157774D01*
X124431Y158431D01*
X123774Y158869D01*
X123575Y158909D01*
X123384Y159371D01*
X123413Y159415D01*
X123449Y159598D01*
X123869Y160226D01*
X124023Y161000D01*
X123869Y161774D01*
X123431Y162431D01*
X122774Y162869D01*
X122627Y162898D01*
X122585Y162926D01*
X122000Y163043D01*
X121415Y162926D01*
X121373Y162898D01*
X121226Y162869D01*
X120569Y162431D01*
X120131Y161774D01*
X119977Y161000D01*
X120120Y160283D01*
X110477Y150640D01*
X110017Y150887D01*
X110039Y151000D01*
Y170155D01*
X117845Y177961D01*
X125655D01*
X130461Y173155D01*
Y117400D01*
X118100Y105039D01*
X90000D01*
X89220Y104884D01*
X88558Y104442D01*
X88116Y103780D01*
X87961Y103000D01*
X88116Y102220D01*
X88558Y101558D01*
X89220Y101116D01*
X90000Y100961D01*
X118945D01*
X119725Y101116D01*
X120387Y101558D01*
X133942Y115113D01*
X133942Y115113D01*
X134384Y115775D01*
X134539Y116555D01*
Y174000D01*
X134384Y174780D01*
X133942Y175442D01*
X127942Y181442D01*
X127280Y181884D01*
X126500Y182039D01*
X117000D01*
X116220Y181884D01*
X115558Y181442D01*
X106558Y172442D01*
X106116Y171780D01*
X105961Y171000D01*
Y151845D01*
X96155Y142039D01*
X86845D01*
X49039Y179845D01*
Y195000D01*
X48884Y195780D01*
X48442Y196442D01*
X42606Y202277D01*
X42783Y202807D01*
X42999Y202838D01*
X58919Y186919D01*
X59415Y186587D01*
X60000Y186471D01*
X64000D01*
X64585Y186587D01*
X65081Y186919D01*
X70081Y191919D01*
X70413Y192415D01*
X70529Y193000D01*
Y197208D01*
X71029Y197378D01*
X71181Y197181D01*
X72007Y196547D01*
X72968Y196149D01*
X74000Y196013D01*
X75032Y196149D01*
X75993Y196547D01*
X76819Y197181D01*
X77453Y198007D01*
X77851Y198968D01*
X77987Y200000D01*
X77851Y201032D01*
X77453Y201993D01*
X77064Y202500D01*
X77311Y203000D01*
X80689D01*
X80936Y202500D01*
X80547Y201993D01*
X80149Y201032D01*
X80013Y200000D01*
X80149Y198968D01*
X80547Y198007D01*
X81181Y197181D01*
X82007Y196547D01*
X82968Y196149D01*
X84000Y196013D01*
X85032Y196149D01*
X85993Y196547D01*
X86819Y197181D01*
X87453Y198007D01*
X87851Y198968D01*
X87987Y200000D01*
X87851Y201032D01*
X87453Y201993D01*
X87064Y202500D01*
X87311Y203000D01*
X90689D01*
X90936Y202500D01*
X90547Y201993D01*
X90149Y201032D01*
X90013Y200000D01*
X90149Y198968D01*
X90547Y198007D01*
X91181Y197181D01*
X92007Y196547D01*
X92968Y196149D01*
X94000Y196013D01*
X95032Y196149D01*
X95993Y196547D01*
X96819Y197181D01*
X97453Y198007D01*
X97851Y198968D01*
X97987Y200000D01*
X97851Y201032D01*
X97453Y201993D01*
X97064Y202500D01*
X97311Y203000D01*
X100689D01*
X100936Y202500D01*
X100547Y201993D01*
X100149Y201032D01*
X100079Y200500D01*
X104000D01*
X107921D01*
X107851Y201032D01*
X107453Y201993D01*
X107064Y202500D01*
X107311Y203000D01*
X110689D01*
X110936Y202500D01*
X110547Y201993D01*
X110149Y201032D01*
X110013Y200000D01*
X110149Y198968D01*
X110341Y198504D01*
X95919Y184081D01*
X95587Y183585D01*
X95471Y183000D01*
Y149283D01*
X95131Y148774D01*
X94977Y148000D01*
X95131Y147226D01*
X95569Y146569D01*
X96226Y146131D01*
X97000Y145977D01*
X97774Y146131D01*
X98431Y146569D01*
X98869Y147226D01*
X99023Y148000D01*
X98869Y148774D01*
X98529Y149283D01*
Y182367D01*
X112504Y196341D01*
X112968Y196149D01*
X114000Y196013D01*
X115032Y196149D01*
X115496Y196341D01*
X130919Y180919D01*
X131415Y180587D01*
X132000Y180471D01*
X145367D01*
X160483Y165355D01*
X160249Y164881D01*
X159500Y164980D01*
X158211Y164810D01*
X157010Y164313D01*
X155979Y163521D01*
X155187Y162490D01*
X154690Y161289D01*
X154520Y160000D01*
X154690Y158711D01*
X155187Y157510D01*
X155979Y156479D01*
X157010Y155687D01*
X158211Y155190D01*
X159500Y155020D01*
X160789Y155190D01*
X161990Y155687D01*
X163021Y156479D01*
X163812Y157510D01*
X164310Y158711D01*
X164480Y160000D01*
X164381Y160749D01*
X164855Y160983D01*
X182471Y143367D01*
Y89000D01*
X182587Y88415D01*
X182919Y87919D01*
X193098Y77740D01*
X193131Y77572D01*
X193569Y76916D01*
X194226Y76477D01*
X195000Y76323D01*
X195774Y76477D01*
X196431Y76916D01*
X196869Y77572D01*
X197023Y78347D01*
X196869Y79121D01*
X196431Y79777D01*
X195774Y80216D01*
X195000Y80370D01*
X194828Y80335D01*
X185529Y89634D01*
Y93623D01*
X185592Y93671D01*
X186029Y93808D01*
X198471Y81366D01*
Y73633D01*
X196485Y71648D01*
X196185Y71708D01*
X195411Y71554D01*
X194755Y71116D01*
X194316Y70459D01*
X194162Y69685D01*
X194316Y68911D01*
X194755Y68255D01*
X195411Y67816D01*
X196185Y67662D01*
X196959Y67816D01*
X197616Y68255D01*
X198015Y68852D01*
X201081Y71919D01*
X201413Y72415D01*
X201529Y73000D01*
Y82000D01*
X201413Y82585D01*
X201081Y83081D01*
X188529Y95634D01*
Y100623D01*
X188592Y100671D01*
X189029Y100808D01*
X193012Y96825D01*
X193131Y96226D01*
X193569Y95569D01*
X194226Y95131D01*
X195000Y94977D01*
X195774Y95131D01*
X196431Y95569D01*
X196869Y96226D01*
X197023Y97000D01*
X196869Y97774D01*
X196431Y98431D01*
X195774Y98869D01*
X195175Y98988D01*
X191529Y102634D01*
Y147000D01*
X191413Y147585D01*
X191081Y148081D01*
X143571Y195592D01*
X143792Y196040D01*
X144000Y196013D01*
X145032Y196149D01*
X145993Y196547D01*
X146819Y197181D01*
X147453Y198007D01*
X147851Y198968D01*
X147987Y200000D01*
X147851Y201032D01*
X147453Y201993D01*
X147064Y202500D01*
X147311Y203000D01*
X150689D01*
X150936Y202500D01*
X150547Y201993D01*
X150149Y201032D01*
X150013Y200000D01*
X150149Y198968D01*
X150547Y198007D01*
X151181Y197181D01*
X152007Y196547D01*
X152968Y196149D01*
X154000Y196013D01*
X155032Y196149D01*
X155993Y196547D01*
X156819Y197181D01*
X157453Y198007D01*
X157851Y198968D01*
X157987Y200000D01*
X157851Y201032D01*
X157453Y201993D01*
X157064Y202500D01*
X157311Y203000D01*
X160047D01*
Y196047D01*
X167953D01*
Y203000D01*
X174837D01*
X176341Y201496D01*
X176149Y201032D01*
X176013Y200000D01*
X176149Y198968D01*
X176547Y198007D01*
X177181Y197181D01*
X178007Y196547D01*
X178968Y196149D01*
X180000Y196013D01*
X181032Y196149D01*
X181993Y196547D01*
X182819Y197181D01*
X183453Y198007D01*
X183851Y198968D01*
X183987Y200000D01*
X183851Y201032D01*
X183453Y201993D01*
X183064Y202500D01*
X183311Y203000D01*
X186689D01*
X186936Y202500D01*
X186547Y201993D01*
X186149Y201032D01*
X186013Y200000D01*
X186149Y198968D01*
X186547Y198007D01*
X187181Y197181D01*
X188007Y196547D01*
X188968Y196149D01*
X190000Y196013D01*
X191032Y196149D01*
X191496Y196341D01*
X193471Y194367D01*
Y109283D01*
X193131Y108774D01*
X192977Y108000D01*
X193131Y107226D01*
X193569Y106569D01*
X194226Y106131D01*
X195000Y105977D01*
X195774Y106131D01*
X196431Y106569D01*
X196869Y107226D01*
X197023Y108000D01*
X196869Y108774D01*
X196529Y109283D01*
Y195000D01*
X196413Y195585D01*
X196081Y196081D01*
X193659Y198504D01*
X193851Y198968D01*
X193987Y200000D01*
X193851Y201032D01*
X193453Y201993D01*
X193064Y202500D01*
X193311Y203000D01*
X196689D01*
X196936Y202500D01*
X196547Y201993D01*
X196149Y201032D01*
X196013Y200000D01*
X196149Y198968D01*
X196547Y198007D01*
X197181Y197181D01*
X198007Y196547D01*
X198968Y196149D01*
X200000Y196013D01*
X201032Y196149D01*
X201993Y196547D01*
X202819Y197181D01*
X203453Y198007D01*
X203851Y198968D01*
X203987Y200000D01*
X203851Y201032D01*
X203453Y201993D01*
X203064Y202500D01*
X203311Y203000D01*
X206689D01*
X206936Y202500D01*
X206547Y201993D01*
X206149Y201032D01*
X206013Y200000D01*
X206149Y198968D01*
X206547Y198007D01*
X207181Y197181D01*
X208007Y196547D01*
X208968Y196149D01*
X210000Y196013D01*
X211032Y196149D01*
X211993Y196547D01*
X212819Y197181D01*
X213453Y198007D01*
X213851Y198968D01*
X213987Y200000D01*
X213851Y201032D01*
X213453Y201993D01*
X213064Y202500D01*
X213311Y203000D01*
X216689D01*
X216936Y202500D01*
X216547Y201993D01*
X216149Y201032D01*
X216013Y200000D01*
X216149Y198968D01*
X216547Y198007D01*
X217181Y197181D01*
X218007Y196547D01*
X218471Y196355D01*
Y173134D01*
X204825Y159488D01*
X204226Y159369D01*
X203569Y158931D01*
X203131Y158274D01*
X202977Y157500D01*
X203131Y156726D01*
X203569Y156069D01*
X204226Y155631D01*
X205000Y155477D01*
X205774Y155631D01*
X206431Y156069D01*
X206869Y156726D01*
X206988Y157325D01*
X221081Y171419D01*
X221413Y171915D01*
X221529Y172500D01*
Y196355D01*
X221993Y196547D01*
X222819Y197181D01*
X223453Y198007D01*
X223851Y198968D01*
X223987Y200000D01*
X223851Y201032D01*
X223453Y201993D01*
X223064Y202500D01*
X223311Y203000D01*
X226689D01*
X226936Y202500D01*
X226547Y201993D01*
X226149Y201032D01*
X226013Y200000D01*
X226149Y198968D01*
X226547Y198007D01*
X227181Y197181D01*
X228007Y196547D01*
X228968Y196149D01*
X230000Y196013D01*
X231032Y196149D01*
X231993Y196547D01*
X232819Y197181D01*
X233453Y198007D01*
X233851Y198968D01*
X233987Y200000D01*
X233851Y201032D01*
X233453Y201993D01*
X233064Y202500D01*
X233311Y203000D01*
X236689D01*
X236936Y202500D01*
X236547Y201993D01*
X236149Y201032D01*
X236013Y200000D01*
X236149Y198968D01*
X236547Y198007D01*
X237181Y197181D01*
X238007Y196547D01*
X238968Y196149D01*
X240000Y196013D01*
X241032Y196149D01*
X241993Y196547D01*
X242819Y197181D01*
X243453Y198007D01*
X243851Y198968D01*
X243987Y200000D01*
X243851Y201032D01*
X243453Y201993D01*
X243064Y202500D01*
X243311Y203000D01*
X246047D01*
Y196047D01*
D02*
G37*
G36*
X13375Y202538D02*
X5462Y194625D01*
X5000Y194816D01*
Y203000D01*
X13184D01*
X13375Y202538D01*
D02*
G37*
G36*
X67471Y197929D02*
Y193633D01*
X63367Y189529D01*
X60633D01*
X57505Y192658D01*
X57770Y193100D01*
X58579Y192855D01*
X60000Y192715D01*
X61421Y192855D01*
X62788Y193270D01*
X64047Y193943D01*
X65151Y194849D01*
X66057Y195953D01*
X66730Y197212D01*
X66971Y198003D01*
X67471Y197929D01*
D02*
G37*
G36*
X130936Y202500D02*
X130547Y201993D01*
X130149Y201032D01*
X130013Y200000D01*
X130149Y198968D01*
X130547Y198007D01*
X131181Y197181D01*
X132007Y196547D01*
X132968Y196149D01*
X134000Y196013D01*
X135032Y196149D01*
X135993Y196547D01*
X136819Y197181D01*
X136952Y197354D01*
X137451Y197386D01*
X145301Y189536D01*
X144982Y189148D01*
X144585Y189413D01*
X144000Y189529D01*
X136634D01*
X127659Y198504D01*
X127851Y198968D01*
X127987Y200000D01*
X127851Y201032D01*
X127453Y201993D01*
X127064Y202500D01*
X127311Y203000D01*
X130689D01*
X130936Y202500D01*
D02*
G37*
G36*
X19654Y202538D02*
X5462Y188346D01*
X5000Y188537D01*
Y189837D01*
X18163Y203000D01*
X19463D01*
X19654Y202538D01*
D02*
G37*
G36*
X120936Y202500D02*
X120547Y201993D01*
X120149Y201032D01*
X120013Y200000D01*
X120149Y198968D01*
X120547Y198007D01*
X121181Y197181D01*
X122007Y196547D01*
X122968Y196149D01*
X124000Y196013D01*
X125032Y196149D01*
X125496Y196341D01*
X134919Y186919D01*
X135415Y186587D01*
X136000Y186471D01*
X143367D01*
X145808Y184029D01*
X145601Y183529D01*
X132633D01*
X117659Y198504D01*
X117851Y198968D01*
X117987Y200000D01*
X117851Y201032D01*
X117453Y201993D01*
X117064Y202500D01*
X117311Y203000D01*
X120689D01*
X120936Y202500D01*
D02*
G37*
G36*
X8569Y143569D02*
X9226Y143131D01*
X9826Y143012D01*
X13471Y139366D01*
Y127634D01*
X12366Y126529D01*
X9634D01*
X5000Y131163D01*
Y132463D01*
X5462Y132654D01*
X8558Y129558D01*
X9220Y129116D01*
X10000Y128961D01*
X10780Y129116D01*
X11442Y129558D01*
X11884Y130220D01*
X12039Y131000D01*
X11884Y131780D01*
X11442Y132442D01*
X8039Y135845D01*
Y143463D01*
X8539Y143615D01*
X8569Y143569D01*
D02*
G37*
%LPC*%
G36*
X107921Y199500D02*
X104500D01*
Y196079D01*
X105032Y196149D01*
X105993Y196547D01*
X106819Y197181D01*
X107453Y198007D01*
X107851Y198968D01*
X107921Y199500D01*
D02*
G37*
G36*
X103500D02*
X100079D01*
X100149Y198968D01*
X100547Y198007D01*
X101181Y197181D01*
X102007Y196547D01*
X102968Y196149D01*
X103500Y196079D01*
Y199500D01*
D02*
G37*
G36*
X55500Y186924D02*
Y185500D01*
X56924D01*
X56869Y185774D01*
X56431Y186431D01*
X55774Y186869D01*
X55500Y186924D01*
D02*
G37*
G36*
X54500D02*
X54226Y186869D01*
X53569Y186431D01*
X53131Y185774D01*
X53076Y185500D01*
X54500D01*
Y186924D01*
D02*
G37*
G36*
X56924Y184500D02*
X55500D01*
Y183076D01*
X55774Y183131D01*
X56431Y183569D01*
X56869Y184226D01*
X56924Y184500D01*
D02*
G37*
G36*
X54500D02*
X53076D01*
X53131Y184226D01*
X53569Y183569D01*
X54226Y183131D01*
X54500Y183076D01*
Y184500D01*
D02*
G37*
G36*
X185500Y183464D02*
Y180500D01*
X188464D01*
X188410Y180914D01*
X188057Y181765D01*
X187496Y182496D01*
X186765Y183057D01*
X185914Y183410D01*
X185500Y183464D01*
D02*
G37*
G36*
X184500D02*
X184086Y183410D01*
X183235Y183057D01*
X182504Y182496D01*
X181943Y181765D01*
X181590Y180914D01*
X181536Y180500D01*
X184500D01*
Y183464D01*
D02*
G37*
G36*
X175500D02*
Y180500D01*
X178464D01*
X178410Y180914D01*
X178057Y181765D01*
X177496Y182496D01*
X176765Y183057D01*
X175914Y183410D01*
X175500Y183464D01*
D02*
G37*
G36*
X174500D02*
X174086Y183410D01*
X173235Y183057D01*
X172504Y182496D01*
X171943Y181765D01*
X171590Y180914D01*
X171536Y180500D01*
X174500D01*
Y183464D01*
D02*
G37*
G36*
X165500D02*
Y180500D01*
X168464D01*
X168410Y180914D01*
X168057Y181765D01*
X167496Y182496D01*
X166765Y183057D01*
X165914Y183410D01*
X165500Y183464D01*
D02*
G37*
G36*
X164500D02*
X164086Y183410D01*
X163235Y183057D01*
X162504Y182496D01*
X161943Y181765D01*
X161590Y180914D01*
X161536Y180500D01*
X164500D01*
Y183464D01*
D02*
G37*
G36*
X188464Y179500D02*
X185500D01*
Y176536D01*
X185914Y176590D01*
X186765Y176943D01*
X187496Y177504D01*
X188057Y178235D01*
X188410Y179086D01*
X188464Y179500D01*
D02*
G37*
G36*
X184500D02*
X181536D01*
X181590Y179086D01*
X181943Y178235D01*
X182504Y177504D01*
X183235Y176943D01*
X184086Y176590D01*
X184500Y176536D01*
Y179500D01*
D02*
G37*
G36*
X178464D02*
X175500D01*
Y176536D01*
X175914Y176590D01*
X176765Y176943D01*
X177496Y177504D01*
X178057Y178235D01*
X178410Y179086D01*
X178464Y179500D01*
D02*
G37*
G36*
X174500D02*
X171536D01*
X171590Y179086D01*
X171943Y178235D01*
X172504Y177504D01*
X173235Y176943D01*
X174086Y176590D01*
X174500Y176536D01*
Y179500D01*
D02*
G37*
G36*
X168464D02*
X165500D01*
Y176536D01*
X165914Y176590D01*
X166765Y176943D01*
X167496Y177504D01*
X168057Y178235D01*
X168410Y179086D01*
X168464Y179500D01*
D02*
G37*
G36*
X164500D02*
X161536D01*
X161590Y179086D01*
X161943Y178235D01*
X162504Y177504D01*
X163235Y176943D01*
X164086Y176590D01*
X164500Y176536D01*
Y179500D01*
D02*
G37*
G36*
X66000Y182023D02*
X65226Y181869D01*
X64569Y181431D01*
X64131Y180774D01*
X63977Y180000D01*
X64131Y179226D01*
X64471Y178717D01*
Y178000D01*
X64587Y177415D01*
X64919Y176919D01*
X67919Y173919D01*
X68415Y173587D01*
X69000Y173471D01*
X72993D01*
X73122Y172971D01*
X72504Y172496D01*
X71943Y171765D01*
X71590Y170914D01*
X71536Y170500D01*
X78464D01*
X78410Y170914D01*
X78057Y171765D01*
X77496Y172496D01*
X76878Y172971D01*
X77007Y173471D01*
X85717D01*
X86226Y173131D01*
X87000Y172977D01*
X87774Y173131D01*
X88431Y173569D01*
X88869Y174226D01*
X89023Y175000D01*
X88869Y175774D01*
X88431Y176431D01*
X87774Y176869D01*
X87000Y177023D01*
X86226Y176869D01*
X85717Y176529D01*
X69634D01*
X67529Y178633D01*
Y178717D01*
X67869Y179226D01*
X68023Y180000D01*
X67869Y180774D01*
X67431Y181431D01*
X66774Y181869D01*
X66000Y182023D01*
D02*
G37*
G36*
X78464Y169500D02*
X75500D01*
Y166536D01*
X75914Y166590D01*
X76765Y166943D01*
X77496Y167504D01*
X78057Y168235D01*
X78410Y169086D01*
X78464Y169500D01*
D02*
G37*
G36*
X74500D02*
X71536D01*
X71590Y169086D01*
X71943Y168235D01*
X72504Y167504D01*
X73235Y166943D01*
X74086Y166590D01*
X74500Y166536D01*
Y169500D01*
D02*
G37*
G36*
X45500Y168464D02*
Y165500D01*
X48464D01*
X48410Y165914D01*
X48057Y166765D01*
X47496Y167496D01*
X46765Y168057D01*
X45914Y168410D01*
X45500Y168464D01*
D02*
G37*
G36*
X44500D02*
X44086Y168410D01*
X43235Y168057D01*
X42504Y167496D01*
X41943Y166765D01*
X41590Y165914D01*
X41536Y165500D01*
X44500D01*
Y168464D01*
D02*
G37*
G36*
X48464Y164500D02*
X45500D01*
Y161536D01*
X45914Y161590D01*
X46765Y161943D01*
X47496Y162504D01*
X48057Y163235D01*
X48410Y164086D01*
X48464Y164500D01*
D02*
G37*
G36*
X44500D02*
X41536D01*
X41590Y164086D01*
X41943Y163235D01*
X42504Y162504D01*
X43235Y161943D01*
X44086Y161590D01*
X44500Y161536D01*
Y164500D01*
D02*
G37*
G36*
X27468Y152861D02*
Y151437D01*
X28892D01*
X28838Y151711D01*
X28399Y152368D01*
X27743Y152806D01*
X27468Y152861D01*
D02*
G37*
G36*
X22532D02*
X22257Y152806D01*
X21601Y152368D01*
X21162Y151711D01*
X21108Y151437D01*
X22532D01*
Y152861D01*
D02*
G37*
G36*
X46000Y154529D02*
X40000D01*
X39415Y154413D01*
X38919Y154081D01*
X29051Y144214D01*
X28553Y144263D01*
X28399Y144494D01*
X28044Y144731D01*
Y145332D01*
X28399Y145569D01*
X28838Y146226D01*
X28892Y146500D01*
X26969D01*
Y147500D01*
X28892D01*
X28838Y147774D01*
X28399Y148431D01*
X28044Y148668D01*
Y149269D01*
X28399Y149506D01*
X28838Y150163D01*
X28892Y150437D01*
X26969D01*
Y150937D01*
X26469D01*
Y152861D01*
X26194Y152806D01*
X25538Y152368D01*
X25301Y152013D01*
X24699D01*
X24462Y152368D01*
X23806Y152806D01*
X23531Y152861D01*
Y150937D01*
X23031D01*
Y150437D01*
X21108D01*
X21162Y150163D01*
X21601Y149506D01*
X21956Y149269D01*
Y148668D01*
X21601Y148431D01*
X21162Y147774D01*
X21108Y147500D01*
X23031D01*
Y146500D01*
X21108D01*
X21162Y146226D01*
X21601Y145569D01*
X21956Y145332D01*
Y144731D01*
X21601Y144494D01*
X21162Y143837D01*
X21108Y143563D01*
X23031D01*
Y143063D01*
X23531D01*
Y141139D01*
X23806Y141194D01*
X24462Y141632D01*
X24699Y141988D01*
X25301D01*
X25538Y141632D01*
X25924Y141375D01*
X26015Y140759D01*
X19919Y134663D01*
X19587Y134167D01*
X19471Y133581D01*
Y123283D01*
X19131Y122774D01*
X18977Y122000D01*
X19131Y121226D01*
X19569Y120569D01*
X20226Y120131D01*
X21000Y119977D01*
X21774Y120131D01*
X22431Y120569D01*
X22869Y121226D01*
X23023Y122000D01*
X22869Y122774D01*
X22529Y123283D01*
Y132948D01*
X30534Y140953D01*
X30866Y141449D01*
X30929Y141766D01*
X40633Y151471D01*
X45366D01*
X47012Y149826D01*
X47131Y149226D01*
X47569Y148569D01*
X48226Y148131D01*
X49000Y147977D01*
X49774Y148131D01*
X50431Y148569D01*
X50869Y149226D01*
X51023Y150000D01*
X50869Y150774D01*
X50431Y151431D01*
X49774Y151869D01*
X49174Y151988D01*
X47081Y154081D01*
X46585Y154413D01*
X46000Y154529D01*
D02*
G37*
G36*
X22532Y142563D02*
X21108D01*
X21162Y142289D01*
X21601Y141632D01*
X22257Y141194D01*
X22532Y141139D01*
Y142563D01*
D02*
G37*
G36*
X159500Y145767D02*
X158211Y145597D01*
X157010Y145100D01*
X155979Y144308D01*
X155187Y143277D01*
X154690Y142076D01*
X154520Y140787D01*
X154690Y139499D01*
X155187Y138298D01*
X155979Y137266D01*
X157010Y136475D01*
X158211Y135977D01*
X159500Y135808D01*
X160789Y135977D01*
X161990Y136475D01*
X163021Y137266D01*
X163812Y138298D01*
X164310Y139499D01*
X164480Y140787D01*
X164310Y142076D01*
X163812Y143277D01*
X163021Y144308D01*
X161990Y145100D01*
X160789Y145597D01*
X159500Y145767D01*
D02*
G37*
G36*
X205500Y133464D02*
Y130500D01*
X208464D01*
X208410Y130914D01*
X208057Y131765D01*
X207496Y132496D01*
X206765Y133057D01*
X205914Y133410D01*
X205500Y133464D01*
D02*
G37*
G36*
X204500D02*
X204086Y133410D01*
X203235Y133057D01*
X202504Y132496D01*
X201943Y131765D01*
X201590Y130914D01*
X201536Y130500D01*
X204500D01*
Y133464D01*
D02*
G37*
G36*
X208464Y129500D02*
X205500D01*
Y126536D01*
X205914Y126590D01*
X206765Y126943D01*
X207496Y127504D01*
X208057Y128235D01*
X208410Y129086D01*
X208464Y129500D01*
D02*
G37*
G36*
X204500D02*
X201536D01*
X201590Y129086D01*
X201943Y128235D01*
X202504Y127504D01*
X203235Y126943D01*
X204086Y126590D01*
X204500Y126536D01*
Y129500D01*
D02*
G37*
G36*
X155500Y128464D02*
Y125500D01*
X158464D01*
X158410Y125914D01*
X158057Y126765D01*
X157496Y127496D01*
X156765Y128057D01*
X155914Y128410D01*
X155500Y128464D01*
D02*
G37*
G36*
X154500D02*
X154086Y128410D01*
X153235Y128057D01*
X152504Y127496D01*
X151943Y126765D01*
X151590Y125914D01*
X151536Y125500D01*
X154500D01*
Y128464D01*
D02*
G37*
G36*
X158464Y124500D02*
X155500D01*
Y121536D01*
X155914Y121590D01*
X156765Y121943D01*
X157496Y122504D01*
X158057Y123235D01*
X158410Y124086D01*
X158464Y124500D01*
D02*
G37*
G36*
X154500D02*
X151536D01*
X151590Y124086D01*
X151943Y123235D01*
X152504Y122504D01*
X153235Y121943D01*
X154086Y121590D01*
X154500Y121536D01*
Y124500D01*
D02*
G37*
G36*
X123008Y127118D02*
X115303D01*
Y121500D01*
X123008D01*
Y127118D01*
D02*
G37*
G36*
X114303D02*
X106598D01*
Y121500D01*
X114303D01*
Y127118D01*
D02*
G37*
G36*
X30500Y123464D02*
Y120500D01*
X33464D01*
X33410Y120914D01*
X33057Y121765D01*
X32496Y122496D01*
X31765Y123057D01*
X30914Y123410D01*
X30500Y123464D01*
D02*
G37*
G36*
X29500D02*
X29086Y123410D01*
X28235Y123057D01*
X27504Y122496D01*
X26943Y121765D01*
X26590Y120914D01*
X26536Y120500D01*
X29500D01*
Y123464D01*
D02*
G37*
G36*
X69252Y124590D02*
X68323Y124467D01*
X67457Y124109D01*
X66714Y123538D01*
X66143Y122795D01*
X65785Y121929D01*
X65662Y121000D01*
X65785Y120071D01*
X66143Y119205D01*
X66714Y118462D01*
X67457Y117891D01*
X68323Y117533D01*
X69252Y117410D01*
X70181Y117533D01*
X71047Y117891D01*
X71790Y118462D01*
X72361Y119205D01*
X72719Y120071D01*
X72842Y121000D01*
X72719Y121929D01*
X72361Y122795D01*
X71790Y123538D01*
X71047Y124109D01*
X70181Y124467D01*
X69252Y124590D01*
D02*
G37*
G36*
X33464Y119500D02*
X30500D01*
Y116536D01*
X30914Y116590D01*
X31765Y116943D01*
X32496Y117504D01*
X33057Y118235D01*
X33410Y119086D01*
X33464Y119500D01*
D02*
G37*
G36*
X29500D02*
X26536D01*
X26590Y119086D01*
X26943Y118235D01*
X27504Y117504D01*
X28235Y116943D01*
X29086Y116590D01*
X29500Y116536D01*
Y119500D01*
D02*
G37*
G36*
X155500Y118464D02*
Y115500D01*
X158464D01*
X158410Y115914D01*
X158057Y116765D01*
X157496Y117496D01*
X156765Y118057D01*
X155914Y118410D01*
X155500Y118464D01*
D02*
G37*
G36*
X154500D02*
X154086Y118410D01*
X153235Y118057D01*
X152504Y117496D01*
X151943Y116765D01*
X151590Y115914D01*
X151536Y115500D01*
X154500D01*
Y118464D01*
D02*
G37*
G36*
X10500D02*
Y115500D01*
X13464D01*
X13410Y115914D01*
X13057Y116765D01*
X12496Y117496D01*
X11765Y118057D01*
X10914Y118410D01*
X10500Y118464D01*
D02*
G37*
G36*
X9500D02*
X9086Y118410D01*
X8235Y118057D01*
X7504Y117496D01*
X6943Y116765D01*
X6590Y115914D01*
X6536Y115500D01*
X9500D01*
Y118464D01*
D02*
G37*
G36*
X123008Y120500D02*
X115303D01*
Y114882D01*
X123008D01*
Y120500D01*
D02*
G37*
G36*
X114303D02*
X106598D01*
Y114882D01*
X114303D01*
Y120500D01*
D02*
G37*
G36*
X43425Y150598D02*
X42651Y150444D01*
X41995Y150005D01*
X41556Y149349D01*
X41402Y148575D01*
X41556Y147801D01*
X41995Y147144D01*
X42651Y146706D01*
X43251Y146586D01*
X50069Y139768D01*
Y127118D01*
X44630D01*
Y121650D01*
X44587Y121585D01*
X44471Y121000D01*
X44587Y120415D01*
X44630Y120351D01*
Y114882D01*
X60567D01*
Y127118D01*
X53128D01*
Y140402D01*
X53011Y140987D01*
X52680Y141483D01*
X45414Y148749D01*
X45294Y149349D01*
X44856Y150005D01*
X44199Y150444D01*
X43425Y150598D01*
D02*
G37*
G36*
X158464Y114500D02*
X155500D01*
Y111536D01*
X155914Y111590D01*
X156765Y111943D01*
X157496Y112504D01*
X158057Y113235D01*
X158410Y114086D01*
X158464Y114500D01*
D02*
G37*
G36*
X154500D02*
X151536D01*
X151590Y114086D01*
X151943Y113235D01*
X152504Y112504D01*
X153235Y111943D01*
X154086Y111590D01*
X154500Y111536D01*
Y114500D01*
D02*
G37*
G36*
X13464D02*
X10500D01*
Y111536D01*
X10914Y111590D01*
X11765Y111943D01*
X12496Y112504D01*
X13057Y113235D01*
X13410Y114086D01*
X13464Y114500D01*
D02*
G37*
G36*
X9500D02*
X6536D01*
X6590Y114086D01*
X6943Y113235D01*
X7504Y112504D01*
X8235Y111943D01*
X9086Y111590D01*
X9500Y111536D01*
Y114500D01*
D02*
G37*
G36*
X155500Y108464D02*
Y105500D01*
X158464D01*
X158410Y105914D01*
X158057Y106765D01*
X157496Y107496D01*
X156765Y108057D01*
X155914Y108410D01*
X155500Y108464D01*
D02*
G37*
G36*
X154500D02*
X154086Y108410D01*
X153235Y108057D01*
X152504Y107496D01*
X151943Y106765D01*
X151590Y105914D01*
X151536Y105500D01*
X154500D01*
Y108464D01*
D02*
G37*
G36*
X158464Y104500D02*
X155500D01*
Y101536D01*
X155914Y101590D01*
X156765Y101943D01*
X157496Y102504D01*
X158057Y103235D01*
X158410Y104086D01*
X158464Y104500D01*
D02*
G37*
G36*
X154500D02*
X151536D01*
X151590Y104086D01*
X151943Y103235D01*
X152504Y102504D01*
X153235Y101943D01*
X154086Y101590D01*
X154500Y101536D01*
Y104500D01*
D02*
G37*
G36*
X250590Y101419D02*
X249816Y101317D01*
X249094Y101018D01*
X248473Y100542D01*
X247998Y99922D01*
X247698Y99200D01*
X247596Y98425D01*
X247698Y97650D01*
X247998Y96928D01*
X248473Y96308D01*
X249094Y95832D01*
X249816Y95533D01*
X250590Y95431D01*
X251365Y95533D01*
X252088Y95832D01*
X252708Y96308D01*
X253184Y96928D01*
X253483Y97650D01*
X253585Y98425D01*
X253483Y99200D01*
X253184Y99922D01*
X252708Y100542D01*
X252088Y101018D01*
X251365Y101317D01*
X250590Y101419D01*
D02*
G37*
G36*
X130500Y93464D02*
Y90500D01*
X133464D01*
X133410Y90914D01*
X133057Y91765D01*
X132496Y92496D01*
X131765Y93057D01*
X130914Y93410D01*
X130500Y93464D01*
D02*
G37*
G36*
X129500D02*
X129086Y93410D01*
X128235Y93057D01*
X127504Y92496D01*
X126943Y91765D01*
X126590Y90914D01*
X126536Y90500D01*
X129500D01*
Y93464D01*
D02*
G37*
G36*
X133464Y89500D02*
X130500D01*
Y86536D01*
X130914Y86590D01*
X131765Y86943D01*
X132496Y87504D01*
X133057Y88235D01*
X133410Y89086D01*
X133464Y89500D01*
D02*
G37*
G36*
X129500D02*
X126536D01*
X126590Y89086D01*
X126943Y88235D01*
X127504Y87504D01*
X128235Y86943D01*
X129086Y86590D01*
X129500Y86536D01*
Y89500D01*
D02*
G37*
G36*
X161555Y91030D02*
X160641Y90910D01*
X159790Y90557D01*
X159059Y89996D01*
X158498Y89265D01*
X158145Y88414D01*
X158025Y87500D01*
X158145Y86586D01*
X158498Y85735D01*
X159059Y85004D01*
X159790Y84443D01*
X160641Y84090D01*
X161555Y83970D01*
X162469Y84090D01*
X163320Y84443D01*
X164051Y85004D01*
X164612Y85735D01*
X164965Y86586D01*
X165085Y87500D01*
X164965Y88414D01*
X164612Y89265D01*
X164051Y89996D01*
X163320Y90557D01*
X162469Y90910D01*
X161555Y91030D01*
D02*
G37*
G36*
X62775Y87492D02*
X57508D01*
Y82225D01*
X58518Y82358D01*
X59925Y82940D01*
X61133Y83867D01*
X62060Y85075D01*
X62643Y86482D01*
X62775Y87492D01*
D02*
G37*
G36*
X56508D02*
X51240D01*
X51373Y86482D01*
X51956Y85075D01*
X52883Y83867D01*
X54091Y82940D01*
X55498Y82358D01*
X56508Y82225D01*
Y87492D01*
D02*
G37*
G36*
X130500Y83464D02*
Y80500D01*
X133464D01*
X133410Y80914D01*
X133057Y81765D01*
X132496Y82496D01*
X131765Y83057D01*
X130914Y83410D01*
X130500Y83464D01*
D02*
G37*
G36*
X129500D02*
X129086Y83410D01*
X128235Y83057D01*
X127504Y82496D01*
X126943Y81765D01*
X126590Y80914D01*
X126536Y80500D01*
X129500D01*
Y83464D01*
D02*
G37*
G36*
X133464Y79500D02*
X130500D01*
Y76536D01*
X130914Y76590D01*
X131765Y76943D01*
X132496Y77504D01*
X133057Y78235D01*
X133410Y79086D01*
X133464Y79500D01*
D02*
G37*
G36*
X129500D02*
X126536D01*
X126590Y79086D01*
X126943Y78235D01*
X127504Y77504D01*
X128235Y76943D01*
X129086Y76590D01*
X129500Y76536D01*
Y79500D01*
D02*
G37*
G36*
X45000Y87829D02*
X43473Y87679D01*
X42004Y87233D01*
X40650Y86510D01*
X39464Y85536D01*
X38490Y84350D01*
X37767Y82996D01*
X37321Y81527D01*
X37171Y80000D01*
X37321Y78473D01*
X37767Y77004D01*
X38490Y75650D01*
X39464Y74464D01*
X40650Y73490D01*
X42004Y72767D01*
X43473Y72321D01*
X45000Y72171D01*
X46527Y72321D01*
X47996Y72767D01*
X49350Y73490D01*
X50536Y74464D01*
X51510Y75650D01*
X52233Y77004D01*
X52679Y78473D01*
X52829Y80000D01*
X52679Y81527D01*
X52233Y82996D01*
X51510Y84350D01*
X50536Y85536D01*
X49350Y86510D01*
X47996Y87233D01*
X46527Y87679D01*
X45000Y87829D01*
D02*
G37*
G36*
X120000Y87023D02*
X119226Y86869D01*
X118569Y86431D01*
X118131Y85774D01*
X118012Y85175D01*
X104367Y71529D01*
X84071D01*
X83797Y72192D01*
X83100Y73100D01*
X82192Y73797D01*
X81135Y74235D01*
X80000Y74384D01*
X78865Y74235D01*
X77808Y73797D01*
X76900Y73100D01*
X76203Y72192D01*
X75765Y71135D01*
X75616Y70000D01*
X75765Y68865D01*
X76203Y67808D01*
X76900Y66900D01*
X77808Y66203D01*
X78865Y65765D01*
X80000Y65616D01*
X81135Y65765D01*
X82192Y66203D01*
X83100Y66900D01*
X83797Y67808D01*
X84071Y68471D01*
X105000D01*
X105585Y68587D01*
X106081Y68919D01*
X120175Y83012D01*
X120774Y83131D01*
X121431Y83569D01*
X121869Y84226D01*
X122023Y85000D01*
X121869Y85774D01*
X121431Y86431D01*
X120774Y86869D01*
X120000Y87023D01*
D02*
G37*
G36*
X130500Y73464D02*
Y70500D01*
X133464D01*
X133410Y70914D01*
X133057Y71765D01*
X132496Y72496D01*
X131765Y73057D01*
X130914Y73410D01*
X130500Y73464D01*
D02*
G37*
G36*
X129500D02*
X129086Y73410D01*
X128235Y73057D01*
X127504Y72496D01*
X126943Y71765D01*
X126590Y70914D01*
X126536Y70500D01*
X129500D01*
Y73464D01*
D02*
G37*
G36*
X25709Y78205D02*
X24512Y78047D01*
X23398Y77586D01*
X22440Y76851D01*
X21706Y75894D01*
X21244Y74779D01*
X21086Y73583D01*
X21244Y72386D01*
X21706Y71272D01*
X22440Y70314D01*
X23398Y69580D01*
X24512Y69118D01*
X25709Y68960D01*
X26905Y69118D01*
X28020Y69580D01*
X28977Y70314D01*
X29712Y71272D01*
X30173Y72386D01*
X30331Y73583D01*
X30173Y74779D01*
X29712Y75894D01*
X28977Y76851D01*
X28020Y77586D01*
X26905Y78047D01*
X25709Y78205D01*
D02*
G37*
G36*
X133464Y69500D02*
X130500D01*
Y66536D01*
X130914Y66590D01*
X131765Y66943D01*
X132496Y67504D01*
X133057Y68235D01*
X133410Y69086D01*
X133464Y69500D01*
D02*
G37*
G36*
X129500D02*
X126536D01*
X126590Y69086D01*
X126943Y68235D01*
X127504Y67504D01*
X128235Y66943D01*
X129086Y66590D01*
X129500Y66536D01*
Y69500D01*
D02*
G37*
G36*
X250590Y69923D02*
X249816Y69821D01*
X249094Y69522D01*
X248473Y69046D01*
X247998Y68426D01*
X247698Y67704D01*
X247596Y66929D01*
X247698Y66154D01*
X247998Y65432D01*
X248473Y64812D01*
X249094Y64336D01*
X249816Y64037D01*
X250590Y63935D01*
X251365Y64037D01*
X252088Y64336D01*
X252708Y64812D01*
X253184Y65432D01*
X253483Y66154D01*
X253585Y66929D01*
X253483Y67704D01*
X253184Y68426D01*
X252708Y69046D01*
X252088Y69522D01*
X251365Y69821D01*
X250590Y69923D01*
D02*
G37*
G36*
X120000Y79023D02*
X119226Y78869D01*
X118569Y78431D01*
X118131Y77774D01*
X117977Y77000D01*
X118120Y76283D01*
X103366Y61529D01*
X84071D01*
X83797Y62192D01*
X83100Y63100D01*
X82192Y63797D01*
X81135Y64235D01*
X80000Y64384D01*
X78865Y64235D01*
X77808Y63797D01*
X76900Y63100D01*
X76203Y62192D01*
X75765Y61135D01*
X75616Y60000D01*
X75765Y58865D01*
X76203Y57808D01*
X76900Y56900D01*
X77808Y56203D01*
X78865Y55765D01*
X80000Y55616D01*
X81135Y55765D01*
X82192Y56203D01*
X83100Y56900D01*
X83797Y57808D01*
X84071Y58471D01*
X104000D01*
X104585Y58587D01*
X105081Y58919D01*
X121081Y74919D01*
X121413Y75415D01*
X121449Y75598D01*
X121869Y76226D01*
X122023Y77000D01*
X121869Y77774D01*
X121431Y78431D01*
X120774Y78869D01*
X120000Y79023D01*
D02*
G37*
G36*
X130500Y63464D02*
Y60500D01*
X133464D01*
X133410Y60914D01*
X133057Y61765D01*
X132496Y62496D01*
X131765Y63057D01*
X130914Y63410D01*
X130500Y63464D01*
D02*
G37*
G36*
X129500D02*
X129086Y63410D01*
X128235Y63057D01*
X127504Y62496D01*
X126943Y61765D01*
X126590Y60914D01*
X126536Y60500D01*
X129500D01*
Y63464D01*
D02*
G37*
G36*
X133464Y59500D02*
X130500D01*
Y56536D01*
X130914Y56590D01*
X131765Y56943D01*
X132496Y57504D01*
X133057Y58235D01*
X133410Y59086D01*
X133464Y59500D01*
D02*
G37*
G36*
X129500D02*
X126536D01*
X126590Y59086D01*
X126943Y58235D01*
X127504Y57504D01*
X128235Y56943D01*
X129086Y56590D01*
X129500Y56536D01*
Y59500D01*
D02*
G37*
G36*
X130500Y53464D02*
Y50500D01*
X133464D01*
X133410Y50914D01*
X133057Y51765D01*
X132496Y52496D01*
X131765Y53057D01*
X130914Y53410D01*
X130500Y53464D01*
D02*
G37*
G36*
X129500D02*
X129086Y53410D01*
X128235Y53057D01*
X127504Y52496D01*
X126943Y51765D01*
X126590Y50914D01*
X126536Y50500D01*
X129500D01*
Y53464D01*
D02*
G37*
G36*
X133464Y49500D02*
X130500D01*
Y46536D01*
X130914Y46590D01*
X131765Y46943D01*
X132496Y47504D01*
X133057Y48235D01*
X133410Y49086D01*
X133464Y49500D01*
D02*
G37*
G36*
X129500D02*
X126536D01*
X126590Y49086D01*
X126943Y48235D01*
X127504Y47504D01*
X128235Y46943D01*
X129086Y46590D01*
X129500Y46536D01*
Y49500D01*
D02*
G37*
G36*
X74318Y44500D02*
X70500D01*
Y40682D01*
X71135Y40765D01*
X72192Y41203D01*
X73100Y41900D01*
X73797Y42808D01*
X74235Y43865D01*
X74318Y44500D01*
D02*
G37*
G36*
X69500D02*
X65682D01*
X65765Y43865D01*
X66203Y42808D01*
X66900Y41900D01*
X67808Y41203D01*
X68865Y40765D01*
X69500Y40682D01*
Y44500D01*
D02*
G37*
G36*
X80500Y44318D02*
Y40500D01*
X84318D01*
X84235Y41135D01*
X83797Y42192D01*
X83100Y43100D01*
X82192Y43797D01*
X81135Y44235D01*
X80500Y44318D01*
D02*
G37*
G36*
X79500D02*
X78865Y44235D01*
X77808Y43797D01*
X76900Y43100D01*
X76203Y42192D01*
X75765Y41135D01*
X75682Y40500D01*
X79500D01*
Y44318D01*
D02*
G37*
G36*
X25709Y46040D02*
X24512Y45882D01*
X23398Y45420D01*
X22440Y44686D01*
X21706Y43728D01*
X21244Y42614D01*
X21086Y41417D01*
X21244Y40221D01*
X21706Y39106D01*
X22440Y38149D01*
X23398Y37414D01*
X24512Y36953D01*
X25709Y36795D01*
X26905Y36953D01*
X28020Y37414D01*
X28977Y38149D01*
X29712Y39106D01*
X30173Y40221D01*
X30331Y41417D01*
X30173Y42614D01*
X29712Y43728D01*
X28977Y44686D01*
X28020Y45420D01*
X26905Y45882D01*
X25709Y46040D01*
D02*
G37*
G36*
X84318Y39500D02*
X80500D01*
Y35682D01*
X81135Y35765D01*
X82192Y36203D01*
X83100Y36900D01*
X83797Y37808D01*
X84235Y38865D01*
X84318Y39500D01*
D02*
G37*
G36*
X79500D02*
X75682D01*
X75765Y38865D01*
X76203Y37808D01*
X76900Y36900D01*
X77808Y36203D01*
X78865Y35765D01*
X79500Y35682D01*
Y39500D01*
D02*
G37*
G36*
X57508Y32775D02*
Y27508D01*
X62775D01*
X62643Y28518D01*
X62060Y29925D01*
X61133Y31133D01*
X59925Y32060D01*
X58518Y32642D01*
X57508Y32775D01*
D02*
G37*
G36*
X56508D02*
X55498Y32642D01*
X54091Y32060D01*
X52883Y31133D01*
X51956Y29925D01*
X51373Y28518D01*
X51240Y27508D01*
X56508D01*
Y32775D01*
D02*
G37*
G36*
X45000Y42829D02*
X43473Y42679D01*
X42004Y42233D01*
X40650Y41510D01*
X39464Y40536D01*
X38490Y39350D01*
X37767Y37996D01*
X37321Y36527D01*
X37171Y35000D01*
X37321Y33473D01*
X37767Y32004D01*
X38490Y30650D01*
X39464Y29464D01*
X40650Y28490D01*
X42004Y27767D01*
X43473Y27321D01*
X45000Y27171D01*
X46527Y27321D01*
X47996Y27767D01*
X49350Y28490D01*
X50536Y29464D01*
X51510Y30650D01*
X52233Y32004D01*
X52679Y33473D01*
X52829Y35000D01*
X52679Y36527D01*
X52233Y37996D01*
X51510Y39350D01*
X50536Y40536D01*
X49350Y41510D01*
X47996Y42233D01*
X46527Y42679D01*
X45000Y42829D01*
D02*
G37*
G36*
X62775Y26508D02*
X57508D01*
Y21240D01*
X58518Y21373D01*
X59925Y21956D01*
X61133Y22883D01*
X62060Y24091D01*
X62643Y25498D01*
X62775Y26508D01*
D02*
G37*
G36*
X56508D02*
X51240D01*
X51373Y25498D01*
X51956Y24091D01*
X52883Y22883D01*
X54091Y21956D01*
X55498Y21373D01*
X56508Y21240D01*
Y26508D01*
D02*
G37*
G36*
X170500Y13921D02*
Y10500D01*
X173921D01*
X173851Y11032D01*
X173453Y11993D01*
X172819Y12819D01*
X171993Y13453D01*
X171032Y13851D01*
X170500Y13921D01*
D02*
G37*
G36*
X169500D02*
X168968Y13851D01*
X168007Y13453D01*
X167181Y12819D01*
X166547Y11993D01*
X166149Y11032D01*
X166079Y10500D01*
X169500D01*
Y13921D01*
D02*
G37*
G36*
X160500D02*
Y10500D01*
X163921D01*
X163851Y11032D01*
X163453Y11993D01*
X162819Y12819D01*
X161993Y13453D01*
X161032Y13851D01*
X160500Y13921D01*
D02*
G37*
G36*
X159500D02*
X158968Y13851D01*
X158007Y13453D01*
X157181Y12819D01*
X156547Y11993D01*
X156149Y11032D01*
X156079Y10500D01*
X159500D01*
Y13921D01*
D02*
G37*
G36*
X173921Y9500D02*
X170500D01*
Y6079D01*
X171032Y6149D01*
X171993Y6547D01*
X172819Y7181D01*
X173453Y8007D01*
X173851Y8968D01*
X173921Y9500D01*
D02*
G37*
G36*
X169500D02*
X166079D01*
X166149Y8968D01*
X166547Y8007D01*
X167181Y7181D01*
X168007Y6547D01*
X168968Y6149D01*
X169500Y6079D01*
Y9500D01*
D02*
G37*
G36*
X163921D02*
X160500D01*
Y6079D01*
X161032Y6149D01*
X161993Y6547D01*
X162819Y7181D01*
X163453Y8007D01*
X163851Y8968D01*
X163921Y9500D01*
D02*
G37*
G36*
X159500D02*
X156079D01*
X156149Y8968D01*
X156547Y8007D01*
X157181Y7181D01*
X158007Y6547D01*
X158968Y6149D01*
X159500Y6079D01*
Y9500D01*
D02*
G37*
G36*
X203953Y13953D02*
X196047D01*
Y6047D01*
X203953D01*
Y13953D01*
D02*
G37*
G36*
X133953D02*
X126047D01*
Y6047D01*
X133953D01*
Y13953D01*
D02*
G37*
G36*
X240000Y13987D02*
X238968Y13851D01*
X238007Y13453D01*
X237181Y12819D01*
X236547Y11993D01*
X236149Y11032D01*
X236013Y10000D01*
X236149Y8968D01*
X236547Y8007D01*
X237181Y7181D01*
X238007Y6547D01*
X238968Y6149D01*
X240000Y6013D01*
X241032Y6149D01*
X241993Y6547D01*
X242819Y7181D01*
X243453Y8007D01*
X243851Y8968D01*
X243987Y10000D01*
X243851Y11032D01*
X243453Y11993D01*
X242819Y12819D01*
X241993Y13453D01*
X241032Y13851D01*
X240000Y13987D01*
D02*
G37*
G36*
X230000D02*
X228968Y13851D01*
X228007Y13453D01*
X227181Y12819D01*
X226547Y11993D01*
X226149Y11032D01*
X226013Y10000D01*
X226149Y8968D01*
X226547Y8007D01*
X227181Y7181D01*
X228007Y6547D01*
X228968Y6149D01*
X230000Y6013D01*
X231032Y6149D01*
X231993Y6547D01*
X232819Y7181D01*
X233453Y8007D01*
X233851Y8968D01*
X233987Y10000D01*
X233851Y11032D01*
X233453Y11993D01*
X232819Y12819D01*
X231993Y13453D01*
X231032Y13851D01*
X230000Y13987D01*
D02*
G37*
G36*
X220000D02*
X218968Y13851D01*
X218007Y13453D01*
X217181Y12819D01*
X216547Y11993D01*
X216149Y11032D01*
X216013Y10000D01*
X216149Y8968D01*
X216547Y8007D01*
X217181Y7181D01*
X218007Y6547D01*
X218968Y6149D01*
X220000Y6013D01*
X221032Y6149D01*
X221993Y6547D01*
X222819Y7181D01*
X223453Y8007D01*
X223851Y8968D01*
X223987Y10000D01*
X223851Y11032D01*
X223453Y11993D01*
X222819Y12819D01*
X221993Y13453D01*
X221032Y13851D01*
X220000Y13987D01*
D02*
G37*
G36*
X210000D02*
X208968Y13851D01*
X208007Y13453D01*
X207181Y12819D01*
X206547Y11993D01*
X206149Y11032D01*
X206013Y10000D01*
X206149Y8968D01*
X206547Y8007D01*
X207181Y7181D01*
X208007Y6547D01*
X208968Y6149D01*
X210000Y6013D01*
X211032Y6149D01*
X211993Y6547D01*
X212819Y7181D01*
X213453Y8007D01*
X213851Y8968D01*
X213987Y10000D01*
X213851Y11032D01*
X213453Y11993D01*
X212819Y12819D01*
X211993Y13453D01*
X211032Y13851D01*
X210000Y13987D01*
D02*
G37*
G36*
X180000D02*
X178968Y13851D01*
X178007Y13453D01*
X177181Y12819D01*
X176547Y11993D01*
X176149Y11032D01*
X176013Y10000D01*
X176149Y8968D01*
X176547Y8007D01*
X177181Y7181D01*
X178007Y6547D01*
X178968Y6149D01*
X180000Y6013D01*
X181032Y6149D01*
X181993Y6547D01*
X182819Y7181D01*
X183453Y8007D01*
X183851Y8968D01*
X183987Y10000D01*
X183851Y11032D01*
X183453Y11993D01*
X182819Y12819D01*
X181993Y13453D01*
X181032Y13851D01*
X180000Y13987D01*
D02*
G37*
G36*
X150000D02*
X148968Y13851D01*
X148007Y13453D01*
X147181Y12819D01*
X146547Y11993D01*
X146149Y11032D01*
X146013Y10000D01*
X146149Y8968D01*
X146547Y8007D01*
X147181Y7181D01*
X148007Y6547D01*
X148968Y6149D01*
X150000Y6013D01*
X151032Y6149D01*
X151993Y6547D01*
X152819Y7181D01*
X153453Y8007D01*
X153851Y8968D01*
X153987Y10000D01*
X153851Y11032D01*
X153453Y11993D01*
X152819Y12819D01*
X151993Y13453D01*
X151032Y13851D01*
X150000Y13987D01*
D02*
G37*
G36*
X140000D02*
X138968Y13851D01*
X138007Y13453D01*
X137181Y12819D01*
X136547Y11993D01*
X136149Y11032D01*
X136013Y10000D01*
X136149Y8968D01*
X136547Y8007D01*
X137181Y7181D01*
X138007Y6547D01*
X138968Y6149D01*
X140000Y6013D01*
X141032Y6149D01*
X141993Y6547D01*
X142819Y7181D01*
X143453Y8007D01*
X143851Y8968D01*
X143987Y10000D01*
X143851Y11032D01*
X143453Y11993D01*
X142819Y12819D01*
X141993Y13453D01*
X141032Y13851D01*
X140000Y13987D01*
D02*
G37*
%LPD*%
D27*
X154000Y200000D02*
X155000Y199000D01*
X84000Y200000D02*
X85000D01*
X153000D02*
X154000D01*
X97000Y148000D02*
Y183000D01*
X114000Y200000D01*
X105000Y70000D02*
X120000Y85000D01*
X80000Y70000D02*
X105000D01*
X70000Y75000D02*
X85000Y90000D01*
X123000D01*
X80000Y60000D02*
X104000D01*
X120000Y76000D01*
Y77000D01*
X67000Y50000D02*
X80000D01*
X34000Y39709D02*
Y87000D01*
X25709Y31417D02*
X34000Y39709D01*
X190000Y102000D02*
X195000Y97000D01*
X114000Y200000D02*
X132000Y182000D01*
X146000D01*
X134000Y200000D02*
X137000D01*
X190000Y147000D01*
Y102000D02*
Y147000D01*
X124000Y200000D02*
X136000Y188000D01*
X144000D01*
X200000Y73000D02*
Y82000D01*
X184000Y89000D02*
Y144000D01*
X146000Y182000D02*
X184000Y144000D01*
X187000Y95000D02*
X200000Y82000D01*
X187000Y95000D02*
Y145000D01*
X144000Y188000D02*
X187000Y145000D01*
X190000Y200000D02*
X195000Y195000D01*
Y108000D02*
Y195000D01*
X196685Y69685D02*
X200000Y73000D01*
X196185Y69685D02*
X196685D01*
X184000Y89000D02*
X194653Y78347D01*
X195000D01*
X205000Y157500D02*
X220000Y172500D01*
Y200000D01*
X46000Y121000D02*
X51598D01*
X60000Y57000D02*
X67000Y50000D01*
X60000Y57000D02*
Y79000D01*
X74000Y93000D01*
X64000Y71000D02*
X70000Y65000D01*
X64000Y71000D02*
Y79000D01*
X76000Y91000D01*
X34000Y87000D02*
X42000Y95000D01*
X25709Y83583D02*
X39126Y97000D01*
X59000D01*
X66000Y178000D02*
Y180000D01*
Y178000D02*
X69000Y175000D01*
X87000D01*
X28000Y189000D02*
X38000Y179000D01*
X26000Y189000D02*
X28000D01*
X10000Y152000D02*
X26000Y168000D01*
Y183000D01*
X10000Y149000D02*
X10513D01*
X38000Y176487D01*
Y179000D01*
X51598Y121000D02*
Y140402D01*
X43425Y148575D02*
X51598Y140402D01*
X60658Y95000D02*
X122658Y157000D01*
X123000D01*
X42000Y95000D02*
X60658D01*
X59000Y97000D02*
X122000Y160000D01*
Y161513D01*
X174000Y206000D02*
X180000Y200000D01*
X71000Y206000D02*
X174000D01*
X69000Y204000D02*
X71000Y206000D01*
X69000Y193000D02*
Y204000D01*
X64000Y188000D02*
X69000Y193000D01*
X60000Y188000D02*
X64000D01*
X42000Y206000D02*
X60000Y188000D01*
X19000Y206000D02*
X42000D01*
X3000Y190000D02*
X19000Y206000D01*
X3000Y131000D02*
Y190000D01*
Y131000D02*
X9000Y125000D01*
X13000D01*
X15000Y127000D01*
Y140000D01*
X10000Y145000D02*
X15000Y140000D01*
X21000Y122000D02*
Y133581D01*
X29453Y142034D01*
Y142453D01*
X40000Y153000D01*
X46000D01*
X49000Y150000D01*
X100487Y132000D02*
X102487D01*
X74000Y93000D02*
Y105513D01*
X100487Y132000D01*
X99828Y128000D02*
X100000D01*
X76000Y91000D02*
Y104172D01*
X99828Y128000D01*
D28*
X132500Y116555D02*
Y174000D01*
X126500Y180000D02*
X132500Y174000D01*
X118945Y103000D02*
X132500Y116555D01*
X90000Y103000D02*
X118945D01*
X117000Y180000D02*
X126500D01*
X108000Y171000D02*
X117000Y180000D01*
X108000Y151000D02*
Y171000D01*
X97000Y140000D02*
X108000Y151000D01*
X86000Y140000D02*
X97000D01*
X23000Y203000D02*
X39000D01*
X6000Y186000D02*
X23000Y203000D01*
X6000Y183000D02*
Y186000D01*
Y135000D02*
Y183000D01*
Y135000D02*
X10000Y131000D01*
X47000Y179000D02*
X86000Y140000D01*
X47000Y179000D02*
Y195000D01*
X39000Y203000D02*
X47000Y195000D01*
D29*
X240000Y10000D02*
D03*
X210000D02*
D03*
X220000D02*
D03*
X230000D02*
D03*
X250000D02*
D03*
X190000Y200000D02*
D03*
X200000D02*
D03*
X220000D02*
D03*
X230000D02*
D03*
X240000D02*
D03*
X210000D02*
D03*
X180000D02*
D03*
X104000D02*
D03*
X114000D02*
D03*
X134000D02*
D03*
X144000D02*
D03*
X154000D02*
D03*
X124000D02*
D03*
X94000D02*
D03*
X84000D02*
D03*
X74000D02*
D03*
X170000Y10000D02*
D03*
X140000D02*
D03*
X150000D02*
D03*
X160000D02*
D03*
X180000D02*
D03*
D30*
X200000D02*
D03*
X250000Y200000D02*
D03*
X164000D02*
D03*
X130000Y10000D02*
D03*
D31*
X55000D02*
D03*
X60000Y200000D02*
D03*
X260000Y30000D02*
D03*
Y140000D02*
D03*
D32*
X57008Y27008D02*
D03*
Y87992D02*
D03*
D33*
X80000Y40000D02*
D03*
X70000Y45000D02*
D03*
X80000Y50000D02*
D03*
X70000Y55000D02*
D03*
X80000Y60000D02*
D03*
X70000Y65000D02*
D03*
X80000Y70000D02*
D03*
X70000Y75000D02*
D03*
D34*
X25709Y83583D02*
D03*
Y73583D02*
D03*
Y41417D02*
D03*
Y31417D02*
D03*
D35*
X45000Y80000D02*
D03*
Y35000D02*
D03*
D36*
X250590Y98425D02*
D03*
Y66929D02*
D03*
X98779Y121000D02*
D03*
D37*
X159500Y140787D02*
D03*
Y160000D02*
D03*
D38*
X69252Y121000D02*
D03*
D39*
X155000Y105000D02*
D03*
Y115000D02*
D03*
Y125000D02*
D03*
X10000Y115000D02*
D03*
X205000Y130000D02*
D03*
X30000Y120000D02*
D03*
X75000Y170000D02*
D03*
X45000Y165000D02*
D03*
X185000Y180000D02*
D03*
X175000D02*
D03*
X165000D02*
D03*
X130000Y90000D02*
D03*
Y80000D02*
D03*
Y70000D02*
D03*
Y60000D02*
D03*
Y50000D02*
D03*
X161555Y87500D02*
D03*
D40*
X97000Y148000D02*
D03*
X120000Y85000D02*
D03*
X123000Y90000D02*
D03*
X120000Y77000D02*
D03*
X195000Y97000D02*
D03*
X87000Y175000D02*
D03*
X126500Y180000D02*
D03*
X132500Y116555D02*
D03*
X195000Y108000D02*
D03*
X196185Y69685D02*
D03*
X195000Y78347D02*
D03*
X90000Y103000D02*
D03*
X205000Y157500D02*
D03*
X23031Y150937D02*
D03*
X26969D02*
D03*
X23031Y147000D02*
D03*
X26969D02*
D03*
X23031Y143063D02*
D03*
X26969D02*
D03*
X100000Y128000D02*
D03*
X66000Y180000D02*
D03*
X38000Y179000D02*
D03*
X26000Y189000D02*
D03*
X55000Y185000D02*
D03*
X10000Y152000D02*
D03*
X26000Y183000D02*
D03*
X10000Y149000D02*
D03*
X43425Y148575D02*
D03*
X123000Y157000D02*
D03*
X122000Y161000D02*
D03*
X102487Y132000D02*
D03*
X39000Y203000D02*
D03*
X6000Y183000D02*
D03*
X10000Y131000D02*
D03*
Y145000D02*
D03*
X21000Y122000D02*
D03*
X49000Y150000D02*
D03*
D41*
X114803Y121000D02*
D03*
D42*
X52598D02*
D03*
M02*
